<svg xmlns="http://www.w3.org/2000/svg" width="24" height="24" fill="none" viewBox="0 0 24 24">
  <path fill="#888" d="M10.673 1.203a7.625 7.625 0 0 1 5.858.599l3.605 1.961a.88.88 0 0 0 .42.107h1.429a1.125 1.125 0 0 1 0 2.25h-1.43a3.128 3.128 0 0 1-1.494-.38l-3.605-1.962a5.375 5.375 0 0 0-4.13-.422l-.272.09-7.517 2.728a.625.625 0 0 0-.374.802l.056.113a.626.626 0 0 0 .745.26l.002-.001 5.256-1.896.13-.047.208-.058c.21-.05.428-.076.652-.076h3.85a1.125 1.125 0 0 1 0 2.25h-3.85a.524.524 0 0 0-.158.023l-.047.016a.526.526 0 0 0 .205 1.01h2.284c.48 0 .96.068 1.422.202l3.14.906c.44.127.895.192 1.353.192h3.591l.115.006a1.125 1.125 0 0 1 0 2.238l-.115.006h-3.591a7.132 7.132 0 0 1-1.978-.28l-3.14-.906a2.876 2.876 0 0 0-.797-.114h-2.284a2.773 2.773 0 0 1-2.74-2.346l-2.743.99h.001a2.876 2.876 0 0 1-3.566-1.448l-.115-.271a2.874 2.874 0 0 1 1.722-3.686l7.516-2.727.386-.13ZM5.59 11.875c.67 0 1.335.094 1.978.28l3.14.906.197.05c.197.042.4.063.602.063h2.284a2.773 2.773 0 0 1 2.737 2.345l2.742-.989.282-.086a2.877 2.877 0 0 1 3.401 1.806l.087.281a2.875 2.875 0 0 1-1.808 3.405l-7.516 2.727a7.625 7.625 0 0 1-6.245-.47l-3.605-1.961a.878.878 0 0 0-.419-.107h-1.43a1.125 1.125 0 0 1 0-2.25h1.43c.522 0 1.036.13 1.494.379l3.605 1.963.257.13a5.375 5.375 0 0 0 4.145.201l7.516-2.727a.625.625 0 0 0 .406-.679l-.03-.123a.626.626 0 0 0-.802-.373l-.001.001-5.258 1.896-.096.035-.002-.002-.032.014a2.78 2.78 0 0 1-.858.134H9.938a1.125 1.125 0 0 1 0-2.25h3.851c.058 0 .11-.01.159-.025l.045-.016a.525.525 0 0 0-.204-1.009h-2.283c-.361 0-.721-.037-1.074-.113l-.348-.088-3.141-.907a4.88 4.88 0 0 0-1.354-.191H2a1.125 1.125 0 0 1 0-2.25h3.59Z"/>
</svg>
