<svg xmlns="http://www.w3.org/2000/svg" width="24" height="24" fill="none" viewBox="0 0 24 24">
  <path fill="#888" d="M13.957.875c.936 0 1.747.48 2.29 1.102a3.52 3.52 0 0 1 .873 2.408l.002.001c-.037 1.226-.759 2.166-1.42 2.852l-.278.28c-.49.48-.96.924-1.365 1.3l-.98.897a1.615 1.615 0 0 1-2.04.098l-.118-.098a75.4 75.4 0 0 1-1.633-1.508l-.715-.689c-.719-.703-1.656-1.73-1.698-3.132l.001-.001a3.525 3.525 0 0 1 .875-2.408C8.294 1.354 9.104.875 10.039.875c.866 0 1.5.308 1.959.688.458-.38 1.093-.688 1.96-.688Zm0 2.25c-.293 0-.459.102-.587.229a1.367 1.367 0 0 0-.202.26l-.157.295v.001l-.028.05-.022.04a1.098 1.098 0 0 1-.174.216 1.12 1.12 0 0 1-.299.217 1.12 1.12 0 0 1-.38.103 1.107 1.107 0 0 1-.32-.015 1.11 1.11 0 0 1-.157-.038c-.002 0-.004 0-.005-.002a1.15 1.15 0 0 1-.118-.048.93.93 0 0 1-.061-.034l-.022-.011a1.12 1.12 0 0 1-.213-.169 1.12 1.12 0 0 1-.178-.221.299.299 0 0 1-.02-.04c-.01-.016-.02-.031-.027-.048l-.002-.001c-.097-.203-.2-.4-.357-.555-.128-.127-.295-.229-.589-.229-.148 0-.377.084-.593.331a1.3 1.3 0 0 0-.32.747l-.002.113v.003l.019.161c.073.38.372.813 1.003 1.43l.693.668c.439.417.84.784 1.159 1.075A73.745 73.745 0 0 0 13.85 5.91l.25-.254c.539-.567.761-.969.772-1.337v-.003l-.003-.113a1.3 1.3 0 0 0-.32-.747c-.215-.247-.445-.331-.593-.331Z"/>
  <path fill="#888" d="M16.88 22v-.217c0-.787.296-1.545.83-2.122l2.135-2.308a3.878 3.878 0 0 0 1.031-2.632l.001-6.094a.502.502 0 0 0-.991-.102l-.01.1-.017 5.207c0 .02-.002.04-.003.059a2.793 2.793 0 0 1-.653 1.732l-1.336 1.597a1.126 1.126 0 0 1-1.725-1.444l1.335-1.597.062-.09a.556.556 0 0 0-.038-.594l-.073-.08a.555.555 0 0 0-.768.016l-2.69 2.69a2.883 2.883 0 0 0-.842 2.034V22a1.126 1.126 0 0 1-2.25 0v-3.845l-.014-.284a2.877 2.877 0 0 0-.828-1.75l-2.69-2.69a.554.554 0 0 0-.949.394l.01.094a.55.55 0 0 0 .12.26l1.337 1.597A1.125 1.125 0 0 1 6.14 17.22l-1.338-1.596a2.8 2.8 0 0 1-.655-1.792l-.016-5.206v-.001a.502.502 0 0 0-1.003.002l.001 6.094c0 .976.369 1.916 1.032 2.633l2.134 2.307.189.224c.415.543.643 1.21.643 1.898V22a1.126 1.126 0 0 1-2.25 0v-.217a.876.876 0 0 0-.135-.464l-.098-.13-2.136-2.308a6.128 6.128 0 0 1-1.629-4.16L.878 8.627A2.752 2.752 0 0 1 6.38 8.62l.008 2.458a2.801 2.801 0 0 1 2.547.763l2.691 2.69c.133.134.258.275.375.421.117-.146.244-.286.378-.42l2.69-2.691a2.802 2.802 0 0 1 2.547-.763l.008-2.458.015-.282a2.752 2.752 0 0 1 5.487.29l-.001 6.094a6.128 6.128 0 0 1-1.629 4.16l-2.134 2.308a.875.875 0 0 0-.233.594V22a1.125 1.125 0 0 1-2.25 0Z"/>
</svg>
