<svg xmlns="http://www.w3.org/2000/svg" width="24" height="24" fill="none" viewBox="0 0 24 24">
  <path fill="#888" d="M19.875 6c0-1.036-.84-1.875-1.875-1.875H6c-1.036 0-1.875.84-1.875 1.875v12c0 1.035.84 1.875 1.875 1.875h12c1.035 0 1.875-.84 1.875-1.875V6Zm2.25 12A4.125 4.125 0 0 1 18 22.125H6A4.125 4.125 0 0 1 1.875 18V6A4.125 4.125 0 0 1 6 1.875h12A4.125 4.125 0 0 1 22.125 6v12Z"/>
  <path fill="#888" d="M11.125 10c0 .621-.504 1.125-1.125 1.125H8.125v1.75H10c.621 0 1.125.504 1.125 1.126v1.875h1.75V14c0-.622.504-1.125 1.126-1.125h1.875v-1.751H14A1.125 1.125 0 0 1 12.876 10V8.125h-1.751V10Zm4-1.125H16c1.174 0 2.125.952 2.125 2.126V13A2.126 2.126 0 0 1 16 15.126h-.874V16A2.126 2.126 0 0 1 13 18.125h-2A2.126 2.126 0 0 1 8.876 16v-.874H8A2.126 2.126 0 0 1 5.875 13v-2c0-1.173.952-2.125 2.125-2.125h.875V8c0-1.173.952-2.125 2.126-2.125H13c1.174 0 2.126.952 2.126 2.125v.875Z"/>
</svg>
