<svg xmlns="http://www.w3.org/2000/svg" width="24" height="24" fill="none" viewBox="0 0 24 24">
  <path fill="#888" d="M18.166 14.18c.279.61.522 1.237.726 1.877l.192.643.025.113a1.125 1.125 0 0 1-2.158.596l-.036-.11-.166-.557a14.605 14.605 0 0 0-.63-1.627l2.047-.935Zm-1.49-.556a1.125 1.125 0 0 1 1.49.556l-2.047.935a1.126 1.126 0 0 1 .557-1.491Zm-4.611-5.23a1.125 1.125 0 0 1 1.492-.21l.093.07.558.487a16.91 16.91 0 0 1 1.535 1.604 1.125 1.125 0 1 1-1.723 1.446 14.64 14.64 0 0 0-1.331-1.389l-.484-.423-.085-.08a1.125 1.125 0 0 1-.055-1.505Z"/>
  <path fill="#888" d="M9.991 2.5a1.125 1.125 0 0 1 2.017 1L4.167 19.333a.375.375 0 0 0 .335.542H21l.116.006a1.125 1.125 0 0 1 0 2.238l-.116.006H4.502c-1.946 0-3.216-2.045-2.352-3.79L9.99 2.5Z"/>
</svg>
