<svg xmlns="http://www.w3.org/2000/svg" width="24" height="24" fill="none" viewBox="0 0 24 24">
  <path fill="#888" d="M10.195 6.847a1.125 1.125 0 0 1 1.59 1.591l-6.713 6.715a2.094 2.094 0 0 0-.6 1.25l-.393 3.517 3.518-.392.176-.026c.406-.08.78-.28 1.074-.574l6.715-6.713a1.125 1.125 0 1 1 1.59 1.59l-6.714 6.714a4.345 4.345 0 0 1-2.228 1.19l-.365.056-3.435.381-1.067.712a1.589 1.589 0 0 1-2.201-2.201l.712-1.068.38-3.434.056-.365a4.346 4.346 0 0 1 1.191-2.228l6.714-6.715Z"/>
  <path fill="#888" d="M15.058 1.994a4.345 4.345 0 0 1 5.982.154l.813.813.154.161a4.346 4.346 0 0 1 0 5.822l-.154.16-3.905 3.904.278.279.078.086a1.125 1.125 0 0 1-1.584 1.582l-.085-.077-7.513-7.514-.078-.085a1.126 1.126 0 0 1 1.584-1.582l.085.077.278.278 3.904-3.904.163-.154Zm4.391 1.745a2.096 2.096 0 0 0-2.963 0L12.58 7.643l3.776 3.775 3.905-3.904.144-.158a2.097 2.097 0 0 0 0-2.646l-.144-.158-.813-.813Z"/>
</svg>
