<svg xmlns="http://www.w3.org/2000/svg" width="24" height="24" fill="none" viewBox="0 0 24 24">
  <path fill="#888" d="M9.391 18.382a1.375 1.375 0 1 1-1.509 1.509l-.007-.14.007-.141a1.375 1.375 0 0 1 1.368-1.235l.141.007Zm5.5 0a1.375 1.375 0 1 1-1.508 1.509l-.007-.14.007-.141a1.374 1.374 0 0 1 1.367-1.235l.14.007Zm-5.5-5.166a1.375 1.375 0 1 1-1.509 1.508l-.007-.14.007-.14a1.375 1.375 0 0 1 1.368-1.236l.141.008Zm5.5 0a1.375 1.375 0 1 1-1.508 1.508l-.007-.14.007-.14a1.374 1.374 0 0 1 1.367-1.236l.14.008Zm-5.5-5.166a1.375 1.375 0 1 1-1.509 1.508l-.007-.14.007-.141A1.375 1.375 0 0 1 9.25 8.042l.141.007Zm5.5 0a1.375 1.375 0 1 1-1.508 1.508l-.007-.14.007-.141a1.375 1.375 0 0 1 1.367-1.235l.14.007Zm-5.5-5.167A1.375 1.375 0 1 1 7.882 4.39l-.007-.14.007-.14A1.375 1.375 0 0 1 9.25 2.874l.141.008Zm5.5 0a1.375 1.375 0 1 1-1.508 1.508l-.007-.14.007-.14a1.375 1.375 0 0 1 1.367-1.236l.14.008Z"/>
</svg>
