<svg xmlns="http://www.w3.org/2000/svg" width="24" height="24" fill="none" viewBox="0 0 24 24">
  <path fill="#888" d="M10.941 13.385a1.875 1.875 0 1 1-.457 3.719L5.24 22.352a1.125 1.125 0 0 1-1.591-1.59l5.247-5.25c-.003-.024-.008-.047-.01-.07l-.01-.193.01-.191a1.876 1.876 0 0 1 1.864-1.684l.192.01Zm2.246-7.198a1.124 1.124 0 0 1 1.504-.078l.087.078 5.036 5.036.078.085a1.126 1.126 0 0 1-1.584 1.583l-.085-.078-5.036-5.036-.078-.085a1.125 1.125 0 0 1 .078-1.505ZM3.375 7V5.625H2a1.125 1.125 0 0 1 0-2.25h1.375V2a1.125 1.125 0 0 1 2.25 0v1.375H7l.115.006a1.125 1.125 0 0 1 0 2.239L7 5.625H5.625V7a1.125 1.125 0 0 1-2.25 0Z"/>
  <path fill="#888" d="M15.858 3.574a3.126 3.126 0 0 1 4.182.215l2.172 2.17.214.238a3.126 3.126 0 0 1 0 3.945l-.214.237-1.964 1.965a6.874 6.874 0 0 0-1.837 3.315l-.557 2.412a4.126 4.126 0 0 1-3.14 3.103l-8.65 1.888c-1.869.407-3.532-1.256-3.125-3.125l1.887-8.651a4.125 4.125 0 0 1 3.102-3.14l2.413-.556a6.88 6.88 0 0 0 3.316-1.838l1.963-1.963.238-.215Zm2.59 1.806a.876.876 0 0 0-1.1-.113l-.137.113-1.963 1.963a9.126 9.126 0 0 1-4.4 2.439l-2.413.556a1.877 1.877 0 0 0-1.41 1.428l-1.887 8.65a.375.375 0 0 0 .445.447l8.652-1.887a1.876 1.876 0 0 0 1.426-1.41l.557-2.413a9.127 9.127 0 0 1 2.439-4.4l1.963-1.965.113-.137a.876.876 0 0 0 0-.963l-.113-.137-2.171-2.171Z"/>
</svg>
