<svg xmlns="http://www.w3.org/2000/svg" width="24" height="24" fill="none" viewBox="0 0 24 24">
  <path fill="#888" d="M10.658 14.766a2.127 2.127 0 0 1 2.684 0l.161.146 4.439 4.439c1.023 1.023.299 2.774-1.149 2.774H7.207c-1.448 0-2.172-1.75-1.148-2.774l4.438-4.439.161-.146Zm-1.942 5.109h6.568L12 16.591l-3.284 3.284Zm8.077-18c1.448 0 2.172 1.75 1.149 2.774l-4.439 4.439c-.83.83-2.176.83-3.006 0L6.06 4.649c-1.024-1.023-.3-2.774 1.148-2.774h9.586ZM12 7.409l3.284-3.284H8.716L12 7.409Zm9 3.466a1.125 1.125 0 0 1 0 2.25H3a1.125 1.125 0 0 1 0-2.25h18Z"/>
</svg>
