<svg xmlns="http://www.w3.org/2000/svg" width="24" height="24" fill="none" viewBox="0 0 24 24">
  <path fill="#888" d="M1.875 7.207c0-1.357 1.538-2.08 2.574-1.321l.2.173 4.439 4.438c.83.83.83 2.176 0 3.006l-4.439 4.439c-1.023 1.023-2.774.299-2.774-1.149V7.207Zm2.25 8.077L7.409 12 4.125 8.716v6.568ZM16.591 12l3.284 3.284V8.716L16.591 12Zm5.534 4.793c0 1.448-1.75 2.172-2.774 1.149l-4.439-4.439a2.126 2.126 0 0 1 0-3.006l4.439-4.438.2-.173c1.036-.758 2.574-.036 2.574 1.321v9.586ZM10.875 21V3a1.125 1.125 0 0 1 2.25 0v18a1.125 1.125 0 0 1-2.25 0Z"/>
</svg>
