<svg xmlns="http://www.w3.org/2000/svg" width="24" height="24" fill="none" viewBox="0 0 24 24">
  <path fill="#888" d="M6.875 11a1.875 1.875 0 1 0-3.75 0 1.875 1.875 0 0 0 3.75 0Zm2.25 0c0 .225-.024.444-.059.66l12.59-4.051a1.125 1.125 0 0 1 .69 2.141L6.344 14.9c-.017.006-.035.008-.052.013A4.116 4.116 0 0 1 5 15.125 4.125 4.125 0 1 1 9.125 11Z"/>
  <path fill="#888" d="M14.875 19a1.875 1.875 0 1 1-3.75 0 1.875 1.875 0 0 1 3.75 0Zm2.25 0A4.125 4.125 0 0 0 13 14.875a4.1 4.1 0 0 0-.66.059l4.054-12.592.03-.112a1.126 1.126 0 0 0-2.13-.685l-.042.107L9.1 17.655c-.005.017-.007.035-.012.051A4.114 4.114 0 0 0 8.875 19a4.125 4.125 0 0 0 8.25 0Z"/>
</svg>
