<svg xmlns="http://www.w3.org/2000/svg" width="24" height="24" fill="none" viewBox="0 0 24 24">
  <path fill="#888" d="M4.479 17.997c.515.27 1.144.1 1.458-.375l.06-.1 5.5-10.5a1.126 1.126 0 0 0-1.994-1.044l-5.5 10.5-.047.105c-.212.53.007 1.143.523 1.414Zm10.018-12.02a1.126 1.126 0 0 0-1.994 1.045l1.994-1.044Zm3.565 11.645a1.126 1.126 0 0 0 1.935-1.145l-5.5-10.5-.996.523-.998.522 5.5 10.5.059.1ZM17 20.125l.116-.006a1.125 1.125 0 0 0 0-2.238L17 17.875H7a1.125 1.125 0 0 0 0 2.25h10Z"/>
  <path fill="#888" d="M5.875 19a.876.876 0 1 0-1.75 0 .876.876 0 0 0 1.75 0Zm14 0a.876.876 0 1 0-1.752 0 .876.876 0 0 0 1.752 0Zm-7-14a.875.875 0 1 0-1.75 0 .875.875 0 0 0 1.75 0Zm-4.75 14a3.126 3.126 0 1 1-6.251-.002A3.126 3.126 0 0 1 8.125 19Zm14 0a3.125 3.125 0 1 1-6.25 0 3.125 3.125 0 0 1 6.25 0Zm-7-14a3.125 3.125 0 1 1-6.251 0 3.125 3.125 0 0 1 6.25 0Z"/>
</svg>
