<svg xmlns="http://www.w3.org/2000/svg" width="24" height="24" fill="none" viewBox="0 0 24 24">
  <path fill="#888" d="M5.085 13.728a7.142 7.142 0 0 0 4.698 5.045l.469.136.11.034a1.126 1.126 0 0 1-.548 2.17l-.113-.023-.618-.178a9.391 9.391 0 0 1-6.18-6.64L3.994 14l1.091-.272Zm13.829 0a1.126 1.126 0 0 1 2.184.543 9.39 9.39 0 0 1-6.799 6.82l-.114.023a1.126 1.126 0 0 1-.437-2.205l.47-.136a7.14 7.14 0 0 0 4.696-5.045Zm-15.192-.82a1.126 1.126 0 0 1 1.363.82l-2.182.543a1.125 1.125 0 0 1 .819-1.363ZM9.728 2.903a1.125 1.125 0 0 1 .545 2.182 7.141 7.141 0 0 0-5.188 5.187 1.125 1.125 0 0 1-2.182-.545 9.388 9.388 0 0 1 6.825-6.824Zm3.18.819c.15-.603.76-.97 1.364-.82a9.392 9.392 0 0 1 6.648 6.206l.178.62.022.114a1.125 1.125 0 0 1-2.173.54l-.033-.11-.134-.471a7.143 7.143 0 0 0-5.052-4.716 1.126 1.126 0 0 1-.82-1.363Z"/>
  <path fill="#888" d="M12.875 20a.875.875 0 1 0-1.75 0 .875.875 0 0 0 1.75 0Zm-8-8a.876.876 0 1 0-1.75 0 .876.876 0 0 0 1.75 0Zm16 0a.875.875 0 1 0-1.751 0 .875.875 0 0 0 1.75 0Zm-8-8a.875.875 0 1 0-1.75 0 .875.875 0 0 0 1.75 0Zm2.25 16a3.125 3.125 0 1 1-6.25 0 3.125 3.125 0 0 1 6.25 0Zm-8-8a3.126 3.126 0 1 1-6.251-.002A3.126 3.126 0 0 1 7.125 12Zm16 0a3.125 3.125 0 1 1-6.25 0 3.125 3.125 0 0 1 6.25 0Zm-8-8a3.126 3.126 0 1 1-6.252 0 3.126 3.126 0 0 1 6.252 0Z"/>
</svg>
