<svg xmlns="http://www.w3.org/2000/svg" width="24" height="24" fill="none" viewBox="0 0 24 24">
  <path fill="#888" d="m17 6.125.116-.005a1.126 1.126 0 0 0 0-2.239L17 3.875H7a1.125 1.125 0 0 0 0 2.25h10ZM3.875 7v10a1.125 1.125 0 0 0 2.25 0V7a1.125 1.125 0 0 0-2.25 0Zm14 0v10a1.126 1.126 0 0 0 2.25 0V7a1.125 1.125 0 0 0-2.25 0ZM17 20.125l.116-.006a1.125 1.125 0 0 0 0-2.238L17 17.875H7a1.125 1.125 0 0 0 0 2.25h10Z"/>
  <path fill="#888" d="M5.875 19a.876.876 0 1 0-1.75 0 .876.876 0 0 0 1.75 0Zm14 0a.876.876 0 1 0-1.752 0 .876.876 0 0 0 1.752 0Zm-14-14a.876.876 0 1 0-1.751.002A.876.876 0 0 0 5.875 5Zm14 0a.875.875 0 1 0-1.75 0 .875.875 0 0 0 1.75 0ZM8.125 19a3.126 3.126 0 1 1-6.251-.002A3.126 3.126 0 0 1 8.125 19Zm14 0a3.125 3.125 0 1 1-6.25 0 3.125 3.125 0 0 1 6.25 0Zm-14-14a3.126 3.126 0 1 1-6.25 0 3.126 3.126 0 0 1 6.25 0Zm14 0a3.126 3.126 0 1 1-6.252 0 3.126 3.126 0 0 1 6.252 0Z"/>
</svg>
