<svg xmlns="http://www.w3.org/2000/svg" width="24" height="24" fill="none" viewBox="0 0 24 24">
  <path fill="#888" d="M5.921 1.536a1.126 1.126 0 0 1 1.27 1.851l.01-.007.002-.002a.343.343 0 0 0-.034.037.216.216 0 0 0-.042.076l.065.09c.033.04.08.093.148.17.22.247.785.827.786 1.748 0 .652-.318 1.162-.559 1.474l-.2.245a6.317 6.317 0 0 0-.156.192 1.274 1.274 0 0 0-.07.1c.03.045.08.107.2.24.218.247.784.828.785 1.75 0 .418-.126.766-.274 1.039l-.06.098A1.125 1.125 0 0 1 5.859 9.49a2.331 2.331 0 0 0-.199-.242c-.209-.234-.733-.774-.78-1.624H3a1.125 1.125 0 0 1 0-2.25h2.77a7.569 7.569 0 0 0-.11-.126c-.124-.14-.358-.39-.539-.747l-2.055.122a1.126 1.126 0 0 1-.132-2.246l2.313-.136a2.594 2.594 0 0 1 .517-.594L5.8 1.62l.015-.01.006-.005.003-.002h.001V1.6l.097-.064Zm4.945 9.181a1.125 1.125 0 0 1-1.733-1.434l1.733 1.434Zm-1.54-9.616a1.125 1.125 0 1 1 1.348 1.797l.002.001.001-.001.003-.002c.002 0 .003-.003.005-.004l.007-.006.01-.007-.001.001a.37.37 0 0 0-.041.047.172.172 0 0 0-.033.065c.028.047.075.105.213.259.219.246.785.827.785 1.749 0 .869-.565 1.482-.759 1.717-.133.161-.197.25-.225.293.03.044.079.107.199.241.219.246.785.827.785 1.75 0 .868-.565 1.482-.759 1.716L10.001 10l-.868-.716c.065-.078.113-.136.156-.192.033-.043.053-.078.068-.102a2.372 2.372 0 0 0-.197-.24c-.206-.23-.715-.756-.778-1.58L8.375 7l.007-.16c.063-.783.57-1.337.751-1.556a3.34 3.34 0 0 0 .224-.296 2.481 2.481 0 0 0-.197-.239c-.22-.246-.785-.826-.785-1.748 0-.622.25-1.1.465-1.396a2.628 2.628 0 0 1 .456-.481l.016-.014.007-.004.005-.004.451.6-.45-.6ZM20.5 5.375l.115.006a1.126 1.126 0 0 1 0 2.238l-.114.006h-6.213a1.125 1.125 0 0 1 0-2.25H20.5Zm-.566-3.998a1.125 1.125 0 1 1 .131 2.246l-6 .353-.114.002a1.125 1.125 0 0 1-.017-2.248l6-.353Z"/>
  <path fill="#888" d="M21.506 8.875c.834 0 1.546.639 1.614 1.48l.005.17c-.043 1.853-.31 3.45-.841 4.732a11.128 11.128 0 0 1-2.414 3.61 11.129 11.129 0 0 1-2.916 2.09V21a2.126 2.126 0 0 1-2.125 2.125H9.172A2.126 2.126 0 0 1 7.046 21v-.041a11.126 11.126 0 0 1-2.916-2.092 11.125 11.125 0 0 1-2.192-3.109l-.22-.5c-.466-1.123-.73-2.485-.817-4.05l-.026-.682a1.618 1.618 0 0 1 1.62-1.651h19.01ZM3.15 11.125c.08 1.375.308 2.457.645 3.271a8.877 8.877 0 0 0 4.806 4.803c.42.174.694.585.694 1.04v.636h5.409v-.636c0-.455.273-.866.694-1.04a8.88 8.88 0 0 0 4.806-4.803c.337-.814.564-1.896.643-3.271H3.151Z"/>
</svg>
