<svg xmlns="http://www.w3.org/2000/svg" width="24" height="24" fill="none" viewBox="0 0 24 24">
  <path fill="#888" d="M7.375 17.25c0-.229.016-.454.046-.674a4.853 4.853 0 0 1-3.041-.566 2.624 2.624 0 1 0 3.608 3.607 4.853 4.853 0 0 1-.613-2.367Zm9.902-12.106a3.684 3.684 0 0 1 3.578-.711 1.125 1.125 0 0 1-.71 2.134 1.436 1.436 0 0 0-1.468.347l-.882.882a1.125 1.125 0 0 1-1.59-1.591l.881-.882.19-.179ZM9.625 17.25a2.625 2.625 0 0 0 5.229.335 1.126 1.126 0 0 1 2.232.284 4.877 4.877 0 0 1-7.542 3.436 4.86 4.86 0 0 1-3.794 1.82A4.875 4.875 0 0 1 .875 18.25a4.86 4.86 0 0 1 1.82-3.795 4.875 4.875 0 0 1 3.437-7.541 1.126 1.126 0 0 1 .283 2.232 2.626 2.626 0 1 0 2.42 1.008 1.125 1.125 0 0 1 1.786-1.37 4.86 4.86 0 0 1 .956 3.638 4.859 4.859 0 0 1 3.32.734l.317.224.088.074a1.125 1.125 0 0 1-1.362 1.777l-.095-.066-.17-.12a2.626 2.626 0 0 0-4.05 2.205Z"/>
  <path fill="#888" d="M20.875 14.75a2.625 2.625 0 0 0-2.375-2.613 4.885 4.885 0 0 1-2.853 2.283 2.625 2.625 0 1 0 5.228.33Zm-4-5a2.625 2.625 0 1 0-5.25 0 2.625 2.625 0 0 0 5.25 0Zm2.244.203a4.876 4.876 0 1 1-5.744 4.797c0-.069.006-.137.009-.205a4.875 4.875 0 0 1-3.93-3.93c-.068.002-.136.01-.204.01a4.875 4.875 0 1 1 4.796-5.745 4.875 4.875 0 0 1 5.079 4.87c0 .068-.004.136-.006.203ZM6.625 5.75A2.625 2.625 0 0 0 9.25 8.375c.112 0 .22-.01.328-.023a4.889 4.889 0 0 1 2.284-2.854 2.624 2.624 0 0 0-5.237.252Z"/>
</svg>
