<svg xmlns="http://www.w3.org/2000/svg" width="24" height="24" fill="none" viewBox="0 0 24 24">
  <path fill="#888" d="M20.875 9.67c0-2.072-.574-4.085-1.634-5.826l-.218-.344a.814.814 0 0 0-.684-.375 1.248 1.248 0 0 0-.813.29l-.105.095L3.51 17.42a1.268 1.268 0 0 0-.386.919.814.814 0 0 0 .375.684l.344.218a11.205 11.205 0 0 0 13.75-1.648l.382-.402a11.205 11.205 0 0 0 2.899-7.521Zm2.25 0a13.456 13.456 0 0 1-20.45 11.493l-.414-.262C.383 19.661.562 17.187 1.92 15.83L15.83 1.92l.266-.24C17.491.547 19.74.5 20.901 2.26l.262.415a13.455 13.455 0 0 1 1.962 6.995Z"/>
  <path fill="#888" d="M16.21 2.006c.298 0 .584.119.795.33a10.373 10.373 0 1 1-14.67 14.668 1.125 1.125 0 0 1 0-1.59l13.08-13.079.171-.14c.184-.122.4-.19.624-.19ZM4.777 16.152a8.12 8.12 0 0 0 3.767 1.56v-5.326l-3.767 3.766Zm6.017 1.56a8.12 8.12 0 0 0 3.766-1.56l-3.766-3.766v5.326Zm5.357-3.15a8.12 8.12 0 0 0 1.56-3.767h-5.326l3.766 3.766Zm-3.766-6.017h5.326a8.121 8.121 0 0 0-1.56-3.768l-3.766 3.768Z"/>
</svg>
