<svg xmlns="http://www.w3.org/2000/svg" width="24" height="24" fill="none" viewBox="0 0 24 24">
  <path fill="#888" d="M18 16.875a1.125 1.125 0 0 1 0 2.25H6a1.125 1.125 0 0 1 0-2.25h12ZM12.874 12a.874.874 0 1 0-1.748 0 .874.874 0 0 0 1.748 0ZM18 4.875a1.125 1.125 0 0 1 0 2.25H6a1.125 1.125 0 0 1 0-2.25h12ZM15.124 12a3.124 3.124 0 1 1-6.248 0 3.124 3.124 0 0 1 6.248 0Z"/>
  <path fill="#888" d="M16.875 5.724a.875.875 0 0 0-.116-.435l-.086-.125-1.7-2.039H9.027l-1.7 2.04a.875.875 0 0 0-.203.559v12.67c0 .173.05.342.146.485l1.071 1.606.066.086a.874.874 0 0 0 .662.303h5.86a.875.875 0 0 0 .728-.39l1.07-1.605.063-.11a.875.875 0 0 0 .084-.374V5.724Zm2.25 12.67c0 .617-.182 1.22-.524 1.733l-1.071 1.606a3.125 3.125 0 0 1-2.6 1.392H9.07c-.98 0-1.898-.459-2.487-1.232l-.113-.16-1.07-1.606a3.125 3.125 0 0 1-.525-1.732V5.724c0-.731.256-1.439.724-2l.549-.66A1.121 1.121 0 0 1 6.5.874h11l.115.006a1.12 1.12 0 0 1 .236 2.183l.55.66.166.217c.362.521.558 1.143.558 1.783v12.67Z"/>
</svg>
