<svg xmlns="http://www.w3.org/2000/svg" width="24" height="24" fill="none" viewBox="0 0 24 24">
  <path fill="#888" d="m10.998 1.9.115.007a1.125 1.125 0 0 1-.022 2.238l-.116.005-.707-.005c-1.64 0-2.973.753-4.06 2.033-1.106 1.304-1.922 3.123-2.439 5.096-.513 1.966-.708 4.003-.626 5.678.04.838.15 1.557.307 2.117.164.583.352.887.473 1.008l.126.102c.164.112.445.248.882.37.56.158 1.279.268 2.117.309 1.675.081 3.713-.114 5.678-.627 1.972-.516 3.791-1.334 5.094-2.44 1.281-1.086 2.035-2.42 2.035-4.06l-.004-.706.004-.116a1.125 1.125 0 0 1 2.238-.022l.006.115.006.73c0 2.44-1.16 4.36-2.829 5.775-1.645 1.396-3.811 2.332-5.982 2.9-2.18.57-4.445.791-6.356.698-.955-.047-1.85-.173-2.616-.389-.65-.182-1.291-.452-1.787-.862l-.204-.186c-.516-.517-.839-1.248-1.047-1.99-.216-.765-.342-1.66-.389-2.616-.093-1.911.128-4.178.698-6.357.568-2.171 1.504-4.336 2.9-5.981 1.416-1.668 3.335-2.829 5.775-2.829l.73.005Z"/>
  <path fill="#888" d="M19.375 17a1.376 1.376 0 0 1-2.743.14l-.008-.14.008-.14A1.376 1.376 0 0 1 18 15.623l.14.008c.694.07 1.235.656 1.235 1.368ZM22 13.222v1.125h-.009l-.014-.001h-.036a4.11 4.11 0 0 1-.447-.044 4.864 4.864 0 0 1-1.058-.29 4.702 4.702 0 0 1-1.638-1.099l-.082.084a1.125 1.125 0 0 1-1.152.272l.356-1.068-.357 1.068v-.001h-.003l-.004-.002c-.003 0-.007-.003-.01-.004l-.028-.01-.082-.031a4.294 4.294 0 0 1-1-.58 3.819 3.819 0 0 1-.856-.926c-.48.154-.936.207-1.319.208a4.65 4.65 0 0 1-1.155-.145l-.084-.025-.03-.009-.01-.003-.004-.001h-.003v-.002l.355-1.066-.356 1.066a1.125 1.125 0 0 1-.663-.589l-.05-.123v-.007l-.005-.012-.009-.027-.023-.085a4.635 4.635 0 0 1-.145-1.154c0-.384.052-.841.206-1.322a3.825 3.825 0 0 1-.926-.854 4.3 4.3 0 0 1-.578-1l-.032-.081-.01-.028-.004-.012-.001-.004-.002-.002v-.001c-.134-.404-.03-.85.271-1.151l.082-.084A4.699 4.699 0 0 1 9.99 3.566a4.863 4.863 0 0 1-.328-1.399 3.078 3.078 0 0 1-.006-.107l-.002-.037v-.022L10.778 2H9.653c0-.621.504-1.125 1.125-1.125 3.408 0 5.955 1.653 7.626 3.129l.76-.759a1.125 1.125 0 1 1 1.591 1.59l-.76.76c1.477 1.67 3.13 4.218 3.13 7.627A1.127 1.127 0 0 1 22 14.347v-1.125ZM12.393 3.29c.205.277.499.55.928.765a1.127 1.127 0 0 1 .293 1.801l-.409.408c.196.223.45.406.803.457a1.126 1.126 0 0 1 .724 1.809 1.906 1.906 0 0 0-.4 1.138 1.904 1.904 0 0 0 1.138-.398l.125-.085a1.125 1.125 0 0 1 1.686.807c.05.352.233.605.455.801l.407-.406.102-.09a1.124 1.124 0 0 1 1.7.382c.215.43.488.724.765.93-.4-1.951-1.47-3.5-2.517-4.655l-.56-.586c-1.196-1.197-2.938-2.606-5.24-3.078Zm2.006 7.039v-.002l-.001-.004-.002-.003v-.003a.48.48 0 0 1 .003.012ZM13.376 20a1.376 1.376 0 0 1-2.744.14l-.008-.14.008-.14A1.376 1.376 0 0 1 12 18.624l.14.007c.694.07 1.236.656 1.236 1.368Zm-5.002-3a1.375 1.375 0 0 1-2.742.14L5.625 17l.007-.14A1.376 1.376 0 0 1 7 15.623l.141.008c.693.07 1.233.656 1.233 1.368Zm6-2a1.374 1.374 0 0 1-2.742.141l-.007-.14.007-.141a1.375 1.375 0 0 1 1.369-1.235l.14.007a1.376 1.376 0 0 1 1.233 1.369Zm-9-3a1.374 1.374 0 0 1-2.742.141l-.007-.14.007-.141A1.375 1.375 0 0 1 4 10.625l.141.007a1.376 1.376 0 0 1 1.233 1.369Zm5.002-1a1.376 1.376 0 0 1-2.744.14L7.624 11l.008-.14A1.376 1.376 0 0 1 9 9.624l.14.007c.694.07 1.236.656 1.236 1.368ZM8.373 6a1.374 1.374 0 0 1-2.742.141l-.007-.14.007-.141A1.375 1.375 0 0 1 7 4.625l.141.007A1.375 1.375 0 0 1 8.374 6Z"/>
</svg>
