<svg xmlns="http://www.w3.org/2000/svg" width="24" height="24" fill="none" viewBox="0 0 24 24">
  <path fill="#888" d="M19.875 18v-2a1.125 1.125 0 0 1 2.25 0v2A4.125 4.125 0 0 1 18 22.125h-2a1.125 1.125 0 0 1 0-2.25h2c1.035 0 1.875-.84 1.875-1.875Zm-18-10V6A4.125 4.125 0 0 1 6 1.875h2l.115.006a1.125 1.125 0 0 1 0 2.238L8 4.125H6c-1.036 0-1.875.84-1.875 1.875v2a1.125 1.125 0 0 1-2.25 0Zm18.33-5.795a1.125 1.125 0 1 1 1.59 1.59l-4.08 4.08H20.5l.115.006a1.125 1.125 0 0 1 0 2.238l-.114.006H15A1.125 1.125 0 0 1 13.875 9V3.5a1.125 1.125 0 0 1 2.25 0v2.784l4.08-4.08ZM10.125 20.5a1.125 1.125 0 0 1-2.25 0v-2.785l-4.08 4.08a1.125 1.125 0 1 1-1.59-1.591l4.08-4.08H3.5a1.125 1.125 0 0 1 0-2.25H9c.621 0 1.125.504 1.125 1.125v5.5Z"/>
</svg>
