<svg xmlns="http://www.w3.org/2000/svg" width="24" height="24" fill="none" viewBox="0 0 24 24">
  <path fill="#888" d="M15.205 15.205a1.124 1.124 0 0 1 1.504-.078l.087.078 3.079 3.08V17a1.125 1.125 0 0 1 2.25 0v4c0 .621-.504 1.125-1.125 1.125h-4a1.125 1.125 0 0 1 0-2.25h1.284l-3.079-3.08-.078-.086a1.124 1.124 0 0 1 .078-1.504ZM1.875 7V3c0-.621.504-1.125 1.125-1.125h4l.115.006a1.126 1.126 0 0 1 0 2.238L7 4.125H5.716l3.079 3.08.078.086A1.124 1.124 0 0 1 7.29 8.873l-.087-.078-3.079-3.08V7a1.125 1.125 0 0 1-2.25 0Zm5.329 8.205a1.125 1.125 0 1 1 1.59 1.59l-3.078 3.08H7l.115.006a1.125 1.125 0 0 1 0 2.238L7 22.125H3A1.125 1.125 0 0 1 1.875 21v-4a1.125 1.125 0 0 1 2.25 0v1.284l3.08-3.079Zm4.297-3.579a.62.62 0 0 0-.127.374l.014.126a.62.62 0 0 0 .113.246v-.745Zm.998.746a.62.62 0 0 0 .113-.246l.014-.126-.014-.126a.62.62 0 0 0-.113-.248v.746ZM13.624 12a1.624 1.624 0 0 1-3.241.165L10.376 12l.007-.165A1.625 1.625 0 0 1 12 10.375l.165.008c.82.083 1.46.775 1.46 1.617Zm8.501-5a1.125 1.125 0 0 1-2.25 0V5.716l-3.08 3.079a1.125 1.125 0 1 1-1.59-1.59l3.08-3.08H17a1.125 1.125 0 0 1 0-2.25h4c.621 0 1.125.504 1.125 1.125v4Z"/>
</svg>
