<svg xmlns="http://www.w3.org/2000/svg" width="24" height="24" fill="none" viewBox="0 0 24 24">
  <path fill="#888" d="M19.875 6c0-1.036-.84-1.875-1.875-1.875H6c-1.036 0-1.875.84-1.875 1.875v12c0 1.035.84 1.875 1.875 1.875h12c1.035 0 1.875-.84 1.875-1.875V6Zm2.25 12A4.125 4.125 0 0 1 18 22.125H6A4.125 4.125 0 0 1 1.875 18V6A4.125 4.125 0 0 1 6 1.875h12A4.125 4.125 0 0 1 22.125 6v12Z"/>
  <path fill="#888" d="M9.204 13.205a1.125 1.125 0 0 1 1.59 1.59l-1.578 1.58H10l.115.005a1.125 1.125 0 0 1 0 2.239l-.115.006H6.5A1.125 1.125 0 0 1 5.375 17.5V14a1.125 1.125 0 0 1 2.25 0v.784l1.58-1.58ZM18.624 10a1.125 1.125 0 0 1-2.25 0v-.784l-1.579 1.579a1.125 1.125 0 1 1-1.59-1.59l1.579-1.58H14a1.125 1.125 0 0 1 0-2.25h3.5c.62 0 1.125.504 1.125 1.125V10Z"/>
</svg>
