<svg xmlns="http://www.w3.org/2000/svg" width="24" height="24" fill="none" viewBox="0 0 24 24">
  <path fill="#888" d="m11.5 13.61.641.925-7.44 5.154C3.085 20.81.875 19.652.875 17.685V6.315c0-1.966 2.21-3.124 3.826-2.004l7.44 5.154a1.126 1.126 0 0 1-1.282 1.85L3.42 6.16a.188.188 0 0 0-.294.155v11.37c0 .152.17.24.294.154l7.44-5.154.64.925Zm-.64-.925a1.126 1.126 0 0 1 1.281 1.85l-1.282-1.85Z"/>
  <path fill="#888" d="M10.375 6.315c0-1.966 2.21-3.124 3.826-2.004l7.686 5.325c1.6 1.108 1.649 3.432.15 4.616l-.15.111-7.686 5.326c-1.616 1.12-3.826-.037-3.826-2.004V6.315Zm2.25 11.37c0 .152.17.24.294.154l7.686-5.324a.626.626 0 0 0 0-1.029L12.92 6.16a.188.188 0 0 0-.294.155v11.37Z"/>
</svg>
