<svg xmlns="http://www.w3.org/2000/svg" width="24" height="24" fill="none" viewBox="0 0 24 24">
  <path fill="#888" d="M18.875 10.5a1.125 1.125 0 0 1 2.25 0c0 1.292-.27 2.524-.756 3.64l-.052.105a1.125 1.125 0 0 1-2.01-1.002l.128-.318c.284-.753.44-1.57.44-2.425Zm-4-.146V6a2.876 2.876 0 0 0-5.03-1.9L8.157 2.61A5.126 5.126 0 0 1 17.126 6v4.354a1.125 1.125 0 0 1-2.25 0Zm-5.03-6.255a1.125 1.125 0 0 1-1.688-1.49L9.844 4.1Zm-8.64-2.894a1.125 1.125 0 0 1 1.506-.078l.084.078 20 19.999.078.087a1.124 1.124 0 0 1-1.582 1.581l-.087-.077-4.487-4.486a9.068 9.068 0 0 1-3.591 1.246v1.32H15l.114.005a1.126 1.126 0 0 1 0 2.239l-.114.005H9a1.125 1.125 0 1 1 0-2.25h1.875v-1.32c-4.51-.555-8.001-4.395-8.001-9.054a1.125 1.125 0 0 1 2.25 0A6.876 6.876 0 0 0 12 17.375l.293-.006a6.824 6.824 0 0 0 2.765-.718l-1.329-1.328A5.125 5.125 0 0 1 6.875 10.5V8.465l-5.67-5.67-.078-.086a1.125 1.125 0 0 1 .078-1.505Zm7.93 9.521a2.871 2.871 0 0 0 2.637 2.637l-2.637-2.637Z"/>
</svg>
