<svg xmlns="http://www.w3.org/2000/svg" width="24" height="24" fill="none" viewBox="0 0 24 24">
  <path fill="#888" d="M20.875 12a8.875 8.875 0 1 0-17.75 0 8.875 8.875 0 0 0 17.75 0Zm2.25 0c0 6.144-4.98 11.124-11.124 11.125C5.856 23.125.875 18.145.875 12 .875 5.856 5.856.875 12.001.875c6.143 0 11.124 4.981 11.124 11.126Z"/>
  <path fill="#888" d="M8.875 9.158c0-1.347 1.419-2.174 2.57-1.598l.226.134 3.843 2.663a2 2 0 0 1 0 3.287l-3.843 2.663c-1.18.818-2.796-.028-2.796-1.465V9.158Zm2.25 4.789L13.935 12l-2.81-1.948v3.895Z"/>
</svg>
