<svg xmlns="http://www.w3.org/2000/svg" width="24" height="24" fill="none" viewBox="0 0 24 24">
  <path fill="#888" d="M5.205 15.204a1.125 1.125 0 1 1 1.59 1.591l-1.08 1.08H18c1.035 0 1.875-.84 1.875-1.875v-3a1.125 1.125 0 0 1 2.25 0v3l-.022.422A4.125 4.125 0 0 1 18 20.125H5.716l1.08 1.08.077.085a1.125 1.125 0 0 1-1.583 1.583l-.085-.078-3-3a1.125 1.125 0 0 1 0-1.59l3-3Z"/>
  <path fill="#888" d="M12.258 7.877c.593.037 1.055.53 1.055 1.123v4.875h.562l.116.006a1.125 1.125 0 0 1 0 2.239l-.116.005H10.5a1.125 1.125 0 0 1 0-2.25h.563v-2.282c-.047.007-.094.016-.141.02l-.246.012H10.5a1.125 1.125 0 0 1 0-2.25h.176l.069-.007a.375.375 0 0 0 .303-.322l.023-.186c.074-.59.594-1.02 1.187-.983ZM1.875 11V8A4.125 4.125 0 0 1 6 3.875h12.284l-1.08-1.08-.077-.085a1.125 1.125 0 0 1 1.583-1.583l.085.078 3 3c.44.439.44 1.151 0 1.59l-3 3a1.125 1.125 0 1 1-1.59-1.59l1.08-1.08H6c-1.036 0-1.875.84-1.875 1.875v3a1.125 1.125 0 1 1-2.25 0Z"/>
</svg>
