<svg xmlns="http://www.w3.org/2000/svg" width="24" height="24" fill="none" viewBox="0 0 24 24">
  <path fill="#888" d="M10.993 8.997a1.126 1.126 0 0 1 2.013 1.006l-.686 1.373h1.18a1.125 1.125 0 0 1 1.006 1.627l-1.5 3-.056.101a1.126 1.126 0 0 1-1.957-1.107l.686-1.371h-1.18a1.126 1.126 0 0 1-1.006-1.63l1.5-3ZM8.5 2.875c.621 0 1.125.504 1.125 1.125v1a1.125 1.125 0 0 1-2.243.125h-.764A1.125 1.125 0 0 1 4.375 5V4l.006-.116A1.125 1.125 0 0 1 5.5 2.875h3Zm10 0c.622 0 1.125.504 1.125 1.125v1a1.126 1.126 0 0 1-2.242.125h-.765A1.126 1.126 0 0 1 14.376 5V4l.005-.116a1.125 1.125 0 0 1 1.12-1.009h3Z"/>
  <path fill="#888" d="M20.875 8c0-1.036-.84-1.875-1.875-1.875H5c-1.036 0-1.875.84-1.875 1.875v9c0 1.035.84 1.875 1.875 1.875h14c1.035 0 1.875-.84 1.875-1.875V8Zm2.25 9A4.125 4.125 0 0 1 19 21.125H5A4.125 4.125 0 0 1 .875 17V8A4.125 4.125 0 0 1 5 3.875h14A4.125 4.125 0 0 1 23.125 8v9Z"/>
</svg>
