<svg xmlns="http://www.w3.org/2000/svg" width="24" height="24" fill="none" viewBox="0 0 24 24">
  <path fill="#888" d="M10.875 2a1.125 1.125 0 0 1 2.25 0v4.875h8.263l.116.006a1.125 1.125 0 0 1 0 2.238l-.116.006H2.612a1.125 1.125 0 0 1 0-2.25h8.263V2Z"/>
  <path fill="#888" d="M20.375 18a2.876 2.876 0 1 0-5.751.001 2.876 2.876 0 0 0 5.751 0Zm-4-1.25a1.125 1.125 0 0 1 2.25 0v.372l.15.038.11.033a1.125 1.125 0 0 1-.543 2.171l-.112-.022-1.003-.25A1.126 1.126 0 0 1 16.375 18v-1.252Zm4-5.684V8.812c0-.25-.05-.496-.145-.724l-.11-.221-2.223-3.812a1.876 1.876 0 0 0-1.62-.93H7.724c-.667 0-1.284.354-1.62.93L3.88 7.867a1.877 1.877 0 0 0-.255.945V19c0 1.035.84 1.875 1.875 1.875h5.074l.116.005a1.125 1.125 0 0 1 0 2.239l-.116.006H5.5A4.125 4.125 0 0 1 1.375 19V8.812c0-.73.194-1.448.563-2.08l2.222-3.81A4.126 4.126 0 0 1 7.724.874h8.553c1.467 0 2.823.78 3.562 2.046l2.224 3.812.13.24c.284.57.432 1.2.432 1.839v2.254a1.125 1.125 0 0 1-2.25 0ZM22.625 18a5.125 5.125 0 1 1-10.25-.002 5.125 5.125 0 0 1 10.25.002Z"/>
</svg>
