<svg xmlns="http://www.w3.org/2000/svg" width="24" height="24" fill="none" viewBox="0 0 24 24">
  <path fill="#888" d="m19.875 8.912-6.75 3.748v7.361l5.774-3.155.214-.136c.475-.35.762-.909.762-1.51V8.913ZM5.329 7.008 12 10.712 14.183 9.5 7.529 5.805l-2.2 1.203Zm7.57-3.154a1.876 1.876 0 0 0-1.583-.101l-.215.1-1.238.676 6.636 3.684 2.17-1.205-5.77-3.154ZM4.125 15.22c0 .685.374 1.316.976 1.645l5.774 3.155v-7.36l-6.75-3.75v6.31Zm18 0a4.125 4.125 0 0 1-2.146 3.62l-6 3.28a4.126 4.126 0 0 1-3.724.118l-.234-.119-6-3.28a4.125 4.125 0 0 1-2.146-3.62V8.78c0-.705.182-1.382.508-1.978a1.144 1.144 0 0 1 .17-.286A4.12 4.12 0 0 1 4.021 5.16l6-3.28.234-.119a4.126 4.126 0 0 1 3.724.12l6 3.279.242.143c.5.32.915.739 1.23 1.222a1.133 1.133 0 0 1 .166.277c.326.596.508 1.273.508 1.978v6.442Z"/>
  <path fill="#888" d="M5.017 13.453a1.125 1.125 0 0 1 1.425-.487l.104.05 3 1.666.099.062A1.126 1.126 0 0 1 8.558 16.7l-.104-.051-3-1.667-.099-.06a1.125 1.125 0 0 1-.338-1.47Z"/>
</svg>
