<svg xmlns="http://www.w3.org/2000/svg" width="24" height="24" fill="none" viewBox="0 0 24 24">
  <path fill="#888" d="M16.125 8.572c0 1.328-1.553 2.037-2.556 1.184v.003L12 8.459l-1.569 1.3-.001-.003c-1.003.852-2.555.144-2.555-1.184V3a1.125 1.125 0 0 1 2.25 0v4.09l1.157-.957.164-.112c.4-.227.908-.19 1.272.112l1.157.957V3a1.125 1.125 0 0 1 2.25 0v5.572Z"/>
  <path fill="#888" d="M19.875 6c0-1.036-.84-1.875-1.875-1.875H6c-1.036 0-1.875.84-1.875 1.875v12c0 1.035.84 1.875 1.875 1.875h12c1.035 0 1.875-.84 1.875-1.875V6Zm2.25 12A4.125 4.125 0 0 1 18 22.125H6A4.125 4.125 0 0 1 1.875 18V6A4.125 4.125 0 0 1 6 1.875h12A4.125 4.125 0 0 1 22.125 6v12Z"/>
</svg>
