<svg xmlns="http://www.w3.org/2000/svg" width="24" height="24" fill="none" viewBox="0 0 24 24">
  <path fill="#888" d="M4.769 4.771a1.125 1.125 0 0 1 2.203.458l-1.455 7-.03.111a1.125 1.125 0 0 1-2.173-.57l1.455-6.999Zm4.571 0a1.125 1.125 0 0 1 2.204.458l-1.455 7-.03.111a1.126 1.126 0 0 1-2.173-.57L9.34 4.772Zm4.572 0a1.125 1.125 0 1 1 2.202.458l-1.455 7-.028.111a1.126 1.126 0 0 1-2.174-.57l1.455-6.999Zm4.57 0a1.125 1.125 0 1 1 2.203.457l-1.454 7.001-.03.111a1.125 1.125 0 0 1-2.173-.57l1.454-6.999Z"/>
  <path fill="#888" d="M20.875 20v-6.876H3.125V20a1.125 1.125 0 0 1-2.25 0V4a1.125 1.125 0 0 1 2.243-.125h17.764A1.125 1.125 0 0 1 23.124 4v16a1.125 1.125 0 0 1-2.25 0Zm-17.75-9.126h17.75V6.125H3.125v4.75Z"/>
</svg>
