<svg xmlns="http://www.w3.org/2000/svg" width="24" height="24" fill="none" viewBox="0 0 24 24">
  <path fill="#888" d="m17.134 13.875.114.006a1.125 1.125 0 0 1 0 2.238l-.114.006H6.867a1.125 1.125 0 0 1 0-2.25h10.267Zm-1.868-6 .116.006a1.125 1.125 0 0 1 0 2.238l-.116.006H8.733a1.125 1.125 0 0 1 0-2.25h6.533Z"/>
  <path fill="#888" d="M9.111 3.998c.882-2.835 4.896-2.835 5.778 0l4.94 15.877H21l.116.006a1.125 1.125 0 0 1 0 2.238l-.116.006H3a1.125 1.125 0 0 1 0-2.25h1.172l4.94-15.877Zm3.629.668c-.212-.681-1.129-.724-1.428-.128l-.052.128-4.731 15.21H17.47L12.74 4.665Z"/>
</svg>
