<svg xmlns="http://www.w3.org/2000/svg" width="24" height="24" fill="none" viewBox="0 0 24 24">
  <path fill="#888" d="M13.912 15.376a7.125 7.125 0 0 1 5.798 2.983l.133.185.061.097a1.124 1.124 0 0 1-1.82 1.302l-.072-.09-.132-.187a4.877 4.877 0 0 0-3.968-2.04h-3.825a4.874 4.874 0 0 0-3.788 1.807l-.179.233-.132.186-.071.09a1.125 1.125 0 0 1-1.76-1.398l.132-.185.26-.342a7.125 7.125 0 0 1 5.538-2.641h3.825Zm.214-5.626a2.126 2.126 0 1 0-4.252.001 2.126 2.126 0 0 0 4.252 0Zm2.25 0a4.375 4.375 0 1 1-8.75-.002 4.375 4.375 0 0 1 8.75.002Z"/>
  <path fill="#888" d="M20.875 12a8.875 8.875 0 1 0-17.75 0 8.875 8.875 0 0 0 17.75 0Zm2.25 0c0 6.144-4.98 11.124-11.124 11.125C5.856 23.125.875 18.145.875 12 .875 5.856 5.856.875 12.001.875c6.143 0 11.124 4.981 11.124 11.126Z"/>
</svg>
