<svg xmlns="http://www.w3.org/2000/svg" width="24" height="24" fill="none" viewBox="0 0 24 24">
  <path fill="#888" d="M20.875 12a8.875 8.875 0 1 0-17.75 0 8.875 8.875 0 0 0 17.75 0Zm2.25 0c0 6.144-4.98 11.124-11.124 11.125C5.856 23.125.875 18.145.875 12 .875 5.856 5.856.875 12.001.875c6.143 0 11.124 4.981 11.124 11.126Z"/>
  <path fill="#888" d="M8.9 17.676a1.125 1.125 0 0 1-1.8-1.352l1.8 1.352Zm3.1-3.801c2.005 0 3.783.965 4.899 2.45a1.125 1.125 0 1 1-1.799 1.351 3.868 3.868 0 0 0-3.1-1.551 3.87 3.87 0 0 0-3.1 1.551L8 17l-.9-.676a6.119 6.119 0 0 1 4.9-2.449Zm3-4.748a.62.62 0 0 0-.126.373l.014.126a.62.62 0 0 0 .113.246v-.745Zm1 .745a.62.62 0 0 0 .112-.246l.014-.126-.014-.126A.62.62 0 0 0 16 9.127v.745Zm-6.888-.498A.62.62 0 0 0 9 9.129v.741a.619.619 0 0 0 .112-.244l.013-.126-.013-.126ZM8 9.129a.62.62 0 0 0-.125.37l.012.127A.62.62 0 0 0 8 9.87v-.74Zm2.126.37a1.625 1.625 0 0 1-3.242.167L6.875 9.5l.009-.166A1.625 1.625 0 0 1 8.5 7.875l.166.009c.82.083 1.46.775 1.46 1.616Zm6.999 0a1.625 1.625 0 0 1-3.242.168l-.007-.167.007-.166a1.626 1.626 0 0 1 3.242.166Z"/>
</svg>
