<svg xmlns="http://www.w3.org/2000/svg" width="24" height="24" fill="none" viewBox="0 0 24 24">
  <path fill="#888" d="M20.875 7c0-1.036-.84-1.875-1.875-1.875H5c-1.036 0-1.875.84-1.875 1.875v10c0 1.036.84 1.875 1.875 1.875h14c1.035 0 1.874-.84 1.875-1.875V7Zm2.25 10A4.125 4.125 0 0 1 19 21.125H5A4.125 4.125 0 0 1 .875 17V7A4.125 4.125 0 0 1 5 2.875h14A4.125 4.125 0 0 1 23.125 7v10Z"/>
  <path fill="#888" d="M11.124 16.5c0-.76-.614-1.375-1.374-1.376h-1.5c-.759 0-1.375.617-1.375 1.376a1.125 1.125 0 0 1-2.25 0 3.626 3.626 0 0 1 3.625-3.626h1.5a3.625 3.625 0 0 1 3.624 3.626 1.125 1.125 0 0 1-2.25 0ZM18 11.876l.115.005a1.126 1.126 0 0 1 0 2.239l-.114.006H15.5a1.125 1.125 0 0 1 0-2.25H18ZM9.75 9.375a.75.75 0 1 0-1.5 0 .75.75 0 0 0 1.5 0Zm8.25-1.5.115.006a1.125 1.125 0 0 1 0 2.238l-.114.006H15.5a1.125 1.125 0 0 1 0-2.25H18Zm-6 1.5a3 3 0 1 1-6 0 3 3 0 0 1 6 0Z"/>
</svg>
