<svg xmlns="http://www.w3.org/2000/svg" width="24" height="24" fill="none" viewBox="0 0 24 24">
  <path fill="#888" d="M22 19.875a1.125 1.125 0 0 1 0 2.25h-6a1.125 1.125 0 0 1 0-2.25h6Zm-9.143-6a6.26 6.26 0 0 1 4.744 2.17l.222.273.066.096a1.125 1.125 0 0 1-1.772 1.366l-.075-.088-.144-.175a4.007 4.007 0 0 0-3.04-1.392H7.142a4.014 4.014 0 0 0-4.005 3.75H12l.114.006a1.125 1.125 0 0 1 0 2.238l-.114.006H2.857a1.982 1.982 0 0 1-1.982-1.982 6.268 6.268 0 0 1 6.268-6.268h5.714Zm.269-6.625a3.126 3.126 0 1 0-6.252.002 3.126 3.126 0 0 0 6.252-.002Zm2.25 0a5.376 5.376 0 1 1-10.75 0 5.376 5.376 0 0 1 10.75 0Z"/>
</svg>
