<svg xmlns="http://www.w3.org/2000/svg" width="24" height="24" fill="none" viewBox="0 0 24 24">
  <path fill="#888" d="M20.875 18a2.875 2.875 0 0 0-3.95-2.665l3.74 3.74c.134-.333.21-.695.21-1.075Zm-5.75 0a2.875 2.875 0 0 0 3.95 2.665l-3.74-3.74c-.135.332-.21.695-.21 1.075Zm8 0a5.124 5.124 0 1 1-10.249 0 5.124 5.124 0 0 1 10.249 0Zm-12.526-4.125.114.006a1.125 1.125 0 0 1 0 2.238l-.114.006H7.143a4.014 4.014 0 0 0-4.005 3.75h7.46l.115.006a1.125 1.125 0 0 1 0 2.238l-.114.006H2.857a1.982 1.982 0 0 1-1.982-1.982 6.268 6.268 0 0 1 6.268-6.268H10.6Zm2.527-6.625a3.126 3.126 0 1 0-6.252.002 3.126 3.126 0 0 0 6.252-.002Zm2.25 0a5.376 5.376 0 1 1-10.75 0 5.376 5.376 0 0 1 10.75 0Z"/>
</svg>
