<svg xmlns="http://www.w3.org/2000/svg" width="24" height="24" fill="none" viewBox="0 0 24 24">
  <path fill="#888" d="M17.875 21v-1.875H16a1.125 1.125 0 0 1 0-2.25h1.875V15a1.125 1.125 0 0 1 2.25 0v1.875H22a1.125 1.125 0 0 1 0 2.25h-1.875V21a1.125 1.125 0 0 1-2.25 0Zm-5.018-7.125c.098 0 .195.003.292.007l.287.02.114.016a1.125 1.125 0 0 1-.205 2.229l-.114-.004-.374-.018H7.143a4.014 4.014 0 0 0-4.005 3.75h10.22l.116.006a1.125 1.125 0 0 1 0 2.238l-.116.006H2.857a1.982 1.982 0 0 1-1.982-1.982 6.268 6.268 0 0 1 6.268-6.268h5.714Zm.269-6.625a3.126 3.126 0 1 0-6.252.002 3.126 3.126 0 0 0 6.252-.002Zm2.25 0a5.376 5.376 0 1 1-10.75 0 5.376 5.376 0 0 1 10.75 0Z"/>
</svg>
