<svg xmlns="http://www.w3.org/2000/svg" width="24" height="24" fill="none" viewBox="0 0 24 24">
  <path fill="#888" d="M17.875 9c0-1.036-.84-1.875-1.876-1.875H5c-1.036 0-1.875.84-1.875 1.875v6c0 1.035.84 1.875 1.875 1.875h11c1.035 0 1.875-.84 1.875-1.875V9Zm2.25 6a4.125 4.125 0 0 1-4.126 4.125H5A4.125 4.125 0 0 1 .875 15V9A4.125 4.125 0 0 1 5 4.875h11A4.125 4.125 0 0 1 20.124 9v6Z"/>
  <path fill="#888" d="M4.875 14v-4a1.125 1.125 0 0 1 2.25 0v4a1.125 1.125 0 0 1-2.25 0Zm16 0v-4a1.125 1.125 0 0 1 2.25 0v4a1.126 1.126 0 0 1-2.25 0Z"/>
</svg>
