<svg xmlns="http://www.w3.org/2000/svg" width="24" height="24" fill="none" viewBox="0 0 24 24">
  <path fill="#888" d="M2.78 11.06c0-4.533 3.715-8.185 8.268-8.185 4.126 0 7.56 2.997 8.17 6.932 2.27.804 3.906 2.947 3.907 5.487 0 3.232-2.648 5.831-5.886 5.831H6.286c-2.976 0-5.411-2.388-5.411-5.36 0-1.65.752-3.12 1.926-4.1a8.2 8.2 0 0 1-.022-.606Zm2.25 0c0 .321.026.637.075.944.073.446-.129.893-.512 1.134a3.097 3.097 0 0 0-1.468 2.626c0 1.705 1.403 3.111 3.161 3.111H17.24c2.02 0 3.636-1.616 3.636-3.581 0-1.724-1.243-3.178-2.914-3.51-.504-.1-.876-.53-.904-1.044-.167-3.117-2.782-5.615-6.009-5.615-3.336 0-6.019 2.67-6.019 5.934Z"/>
  <path fill="#888" d="M9.875 15.5v-3.284l-1.08 1.08a1.125 1.125 0 1 1-1.59-1.591l3-3 .085-.078a1.125 1.125 0 0 1 1.505.078l3 3 .078.085a1.125 1.125 0 0 1-1.583 1.583l-.085-.078-1.08-1.08V15.5a1.125 1.125 0 0 1-2.25 0Z"/>
</svg>
