<svg xmlns="http://www.w3.org/2000/svg" width="24" height="24" fill="none" viewBox="0 0 24 24">
  <path fill="#888" d="M20.875 15c0-1.036-.84-1.876-1.875-1.876H5c-1.035 0-1.875.84-1.875 1.875V17c0 1.036.84 1.875 1.875 1.875h14c1.035 0 1.874-.84 1.875-1.875v-2Zm0-8c0-1.036-.84-1.875-1.875-1.875H5c-1.036 0-1.875.84-1.875 1.875v2c0 1.035.84 1.874 1.875 1.874h14l.191-.008A1.876 1.876 0 0 0 20.875 9V7Zm2.25 2a4.11 4.11 0 0 1-1.3 3 4.11 4.11 0 0 1 1.3 3v2A4.125 4.125 0 0 1 19 21.125H5A4.125 4.125 0 0 1 .875 17v-2a4.11 4.11 0 0 1 1.3-3 4.11 4.11 0 0 1-1.3-3V7A4.125 4.125 0 0 1 5 2.875h14A4.125 4.125 0 0 1 23.125 7v2Z"/>
  <path fill="#888" d="m10 14.875.115.006a1.125 1.125 0 0 1 0 2.238l-.114.006H6a1.125 1.125 0 0 1 0-2.25h4Zm0-8 .115.006a1.126 1.126 0 0 1 0 2.239L10 9.125H6a1.125 1.125 0 0 1 0-2.25h4ZM19.376 16a1.376 1.376 0 0 1-2.743.14l-.008-.14.008-.14A1.376 1.376 0 0 1 18 14.623l.14.008c.694.07 1.235.656 1.235 1.368Zm0-8a1.375 1.375 0 0 1-2.743.141l-.008-.14.008-.141a1.375 1.375 0 0 1 2.743.14Z"/>
</svg>
