<svg xmlns="http://www.w3.org/2000/svg" width="24" height="24" fill="none" viewBox="0 0 24 24">
  <path fill="#888" d="M14 9.875a1.125 1.125 0 0 1 0 2.25h-4a1.125 1.125 0 0 1 0-2.25h4Zm5.375 1.124a1.375 1.375 0 0 1-2.743.141l-.007-.14.007-.141A1.375 1.375 0 0 1 18 9.625l.141.008c.693.07 1.233.655 1.234 1.367Zm-12 0a1.375 1.375 0 0 1-2.743.141L4.625 11l.007-.141A1.375 1.375 0 0 1 6 9.625l.141.008c.693.07 1.233.655 1.234 1.367Zm0-3.999a1.374 1.374 0 0 1-2.743.141l-.007-.14.007-.141A1.375 1.375 0 0 1 6 5.625l.141.007A1.376 1.376 0 0 1 7.375 7Zm4 0a1.375 1.375 0 0 1-2.742.141l-.008-.14.008-.141A1.375 1.375 0 0 1 10 5.625l.14.007c.694.07 1.235.656 1.235 1.368Zm4 0a1.375 1.375 0 0 1-2.743.141l-.008-.14.008-.141A1.375 1.375 0 0 1 14 5.625l.14.007c.694.07 1.236.657 1.236 1.368Zm4 0a1.374 1.374 0 0 1-2.743.141l-.007-.14.007-.141A1.375 1.375 0 0 1 18 5.625l.141.007A1.376 1.376 0 0 1 19.375 7Z"/>
  <path fill="#888" d="M13.438 19.023a1.125 1.125 0 1 1 1.124 1.948l-1.5.865a2.127 2.127 0 0 1-1.872.125l-.252-.125-1.5-.865-.096-.063a1.125 1.125 0 0 1 1.117-1.938l.103.053 1.437.827 1.438-.828ZM20.875 6c0-1.036-.84-1.875-1.875-1.875H5c-1.036 0-1.875.84-1.875 1.875v6c0 1.036.84 1.875 1.875 1.875h14c1.035 0 1.875-.84 1.875-1.875V6Zm2.25 6A4.125 4.125 0 0 1 19 16.125H5A4.125 4.125 0 0 1 .875 12V6A4.125 4.125 0 0 1 5 1.875h14A4.125 4.125 0 0 1 23.125 6v6Z"/>
</svg>
