<svg xmlns="http://www.w3.org/2000/svg" width="24" height="24" fill="none" viewBox="0 0 24 24">
  <path fill="#888" d="M2.37 5.3a1.126 1.126 0 0 1 1.824 1.313l-.25.422a6.734 6.734 0 0 0 0 6.437l.25.423.057.1a1.125 1.125 0 0 1-1.88 1.213l-.068-.094-.173-.28a8.982 8.982 0 0 1 .173-9.44l.068-.093Zm19.326 9.814a1.125 1.125 0 0 1-1.89-1.219l1.89 1.219ZM20.142 5.058a1.125 1.125 0 0 1 1.554.337 8.982 8.982 0 0 1 0 9.719l-1.89-1.219a6.732 6.732 0 0 0 0-7.282 1.126 1.126 0 0 1 .336-1.555ZM6.178 7.52a1.125 1.125 0 1 1 1.89 1.219 2.803 2.803 0 0 0 0 3.03 1.126 1.126 0 0 1-1.89 1.22 5.053 5.053 0 0 1 0-5.469Zm10.09-.337a1.125 1.125 0 0 1 1.488.243l.067.094.188.316a5.054 5.054 0 0 1-.188 5.152 1.126 1.126 0 0 1-1.892-1.218 2.804 2.804 0 0 0 .105-2.855l-.105-.176-.057-.1a1.126 1.126 0 0 1 .394-1.456ZM10.876 20v-7.95a2.122 2.122 0 0 1-.99-1.583l-.011-.217.012-.218A2.125 2.125 0 0 1 12 8.125l.216.01a2.126 2.126 0 0 1 1.907 2.115c0 .76-.4 1.424-.998 1.8V20a1.126 1.126 0 0 1-2.25 0Z"/>
</svg>
