<svg xmlns="http://www.w3.org/2000/svg" width="24" height="24" fill="none" viewBox="0 0 24 24">
  <path fill="#888" d="M2.875 19V5A4.125 4.125 0 0 1 7 .875h5.757a4.13 4.13 0 0 1 2.918 1.208l4.242 4.243a4.125 4.125 0 0 1 1.208 2.916V19A4.125 4.125 0 0 1 17 23.125H7A4.125 4.125 0 0 1 2.875 19Zm2.25 0c0 1.035.84 1.875 1.875 1.875h10c1.036 0 1.875-.84 1.875-1.875V9.242c0-.497-.197-.974-.549-1.326l-4.244-4.242a1.876 1.876 0 0 0-1.325-.549H7c-1.036 0-1.875.84-1.875 1.875v14Z"/>
  <path fill="#888" d="M13.125 17.375h2.25v-2.25h-2.25v2.25Zm-4.5 0h2.25v-6.75h-2.25v6.75Zm4.5-4.5h2.25v-2.25h-2.25v2.25Zm4.5 4.625a2.126 2.126 0 0 1-2.126 2.125H8.5A2.126 2.126 0 0 1 6.375 17.5v-7c0-1.173.952-2.125 2.125-2.125h7c1.173 0 2.125.952 2.125 2.126V17.5Z"/>
</svg>
