<svg xmlns="http://www.w3.org/2000/svg" width="24" height="24" fill="none" viewBox="0 0 24 24">
  <path fill="#888" d="M16.875 9.17V4A.875.875 0 0 0 16 3.125H8A.875.875 0 0 0 7.125 4v5.17a1.125 1.125 0 0 1-2.25 0V4A3.125 3.125 0 0 1 8 .875h8A3.125 3.125 0 0 1 19.125 4v5.17a1.125 1.125 0 0 1-2.25 0Zm-8-3.17V5a1.125 1.125 0 0 1 2.25 0v1a1.126 1.126 0 0 1-2.25 0Zm4 0V5a1.125 1.125 0 0 1 2.25 0v1a1.125 1.125 0 0 1-2.25 0Z"/>
  <path fill="#888" d="M18.875 12c0-1.035-.84-1.875-1.875-1.875H7c-1.036 0-1.875.84-1.875 1.875v7c0 1.036.84 1.875 1.875 1.875h10c1.036 0 1.875-.84 1.875-1.875v-7Zm2.25 7A4.126 4.126 0 0 1 17 23.125H7A4.125 4.125 0 0 1 2.875 19v-7A4.125 4.125 0 0 1 7 7.875h10A4.125 4.125 0 0 1 21.125 12v7Z"/>
</svg>
