<svg xmlns="http://www.w3.org/2000/svg" width="24" height="24" fill="none" viewBox="0 0 24 24">
  <path fill="#888" d="M15.233 8.66a11.076 11.076 0 0 1 4.728 2.992 1.126 1.126 0 0 1-1.636 1.544 8.838 8.838 0 0 0-3.77-2.39l.34-1.073.338-1.074Zm-1.413.733c.188-.592.82-.92 1.413-.734l-.679 2.146a1.126 1.126 0 0 1-.734-1.412Zm-3.692-5.396c4.384-.57 8.945.87 12.363 4.287l.328.337.075.088a1.126 1.126 0 0 1-1.63 1.535l-.083-.079-.28-.288c-2.921-2.923-6.787-4.13-10.483-3.65a1.126 1.126 0 0 1-.29-2.23Zm2.089 12.888a2.126 2.126 0 1 1-2.332 2.332l-.01-.216.01-.219A2.126 2.126 0 0 1 12 16.875l.217.01ZM1.704 2.205a1.126 1.126 0 0 1 1.506-.078l.085.078 17 17 .077.086a1.124 1.124 0 0 1-1.582 1.582l-.085-.078-6.054-6.053c-1.451-.206-2.982.28-4.118 1.484a1.126 1.126 0 0 1-1.638-1.544 7.057 7.057 0 0 1 3.624-2.071l-1.612-1.613a8.887 8.887 0 0 0-3.232 2.197 1.124 1.124 0 1 1-1.636-1.542c.942-1 2.014-1.788 3.163-2.36l-1.46-1.46a13.127 13.127 0 0 0-2.923 2.332l-.084.08a1.126 1.126 0 0 1-1.554-1.623l.485-.492a15.356 15.356 0 0 1 2.439-1.934l-2.401-2.4-.076-.086a1.125 1.125 0 0 1 .076-1.505Z"/>
</svg>
