<svg xmlns="http://www.w3.org/2000/svg" width="24" height="24" fill="none" viewBox="0 0 24 24">
  <path fill="#888" d="M19.875 6c0-1.036-.84-1.875-1.875-1.875H6c-1.036 0-1.875.84-1.875 1.875v12c0 1.035.84 1.875 1.875 1.875h12c1.035 0 1.875-.84 1.875-1.875V6Zm2.25 12A4.125 4.125 0 0 1 18 22.125H6A4.125 4.125 0 0 1 1.875 18V6A4.125 4.125 0 0 1 6 1.875h12A4.125 4.125 0 0 1 22.125 6v12Z"/>
  <path fill="#888" d="M15.624 15.739c0 1.345-1.69 1.847-2.452.858l-.139-.218-2.408-4.576v4.196a1.125 1.125 0 1 1-2.25 0V8.262c0-1.346 1.69-1.847 2.452-.858l.14.218 2.407 4.575V8a1.125 1.125 0 0 1 2.25 0v7.739Z"/>
</svg>
