<svg xmlns="http://www.w3.org/2000/svg" width="24" height="24" fill="none" viewBox="0 0 24 24">
  <path fill="#888" d="M19.875 6c0-1.036-.84-1.875-1.875-1.875H6c-1.036 0-1.875.84-1.875 1.875v12c0 1.035.84 1.875 1.875 1.875h12c1.035 0 1.875-.84 1.875-1.875V6Zm2.25 12A4.125 4.125 0 0 1 18 22.125H6A4.125 4.125 0 0 1 1.875 18V6A4.125 4.125 0 0 1 6 1.875h12A4.125 4.125 0 0 1 22.125 6v12Z"/>
  <path fill="#888" d="M13.375 10.5c0-.759-.616-1.375-1.376-1.375h-.874v5.75h.874c.76 0 1.376-.615 1.376-1.374v-3Zm2.25 3a3.625 3.625 0 0 1-3.626 3.625h-1.748c-.76 0-1.376-.615-1.376-1.374v-7.5c0-.76.616-1.376 1.376-1.376h1.748a3.626 3.626 0 0 1 3.626 3.626v3Z"/>
</svg>
