<svg xmlns="http://www.w3.org/2000/svg" width="24" height="24" fill="none" viewBox="0 0 24 24">
  <path fill="#888" d="M20.875 12a8.875 8.875 0 1 0-17.75 0 8.875 8.875 0 0 0 17.75 0Zm2.25 0c0 6.144-4.98 11.124-11.124 11.125C5.856 23.125.875 18.145.875 12 .875 5.856 5.856.875 12.001.875c6.143 0 11.124 4.981 11.124 11.126Z"/>
  <path fill="#888" d="M13.125 10.25a1.125 1.125 0 0 0-2.25 0v3.5c0 .44.255.817.624 1.002a1.12 1.12 0 0 1 .205-1.297 1.127 1.127 0 0 1 1.421-.142V10.25Zm2.25 3.5a3.36 3.36 0 0 1-.332 1.451l.002.003.078.086a1.125 1.125 0 0 1-1.583 1.583l-.085-.078-.003-.003a3.36 3.36 0 0 1-1.452.332 3.375 3.375 0 0 1-3.375-3.374v-3.5a3.375 3.375 0 1 1 6.75 0v3.5Z"/>
</svg>
