<svg xmlns="http://www.w3.org/2000/svg" width="24" height="24" fill="none" viewBox="0 0 24 24">
  <path fill="#888" d="M20.875 12a8.875 8.875 0 1 0-17.75 0 8.875 8.875 0 0 0 17.75 0Zm2.25 0c0 6.144-4.98 11.124-11.124 11.125C5.856 23.125.875 18.145.875 12 .875 5.856 5.856.875 12.001.875c6.143 0 11.124 4.981 11.124 11.126Z"/>
  <path fill="#888" d="M13.375 10.5c0-.759-.616-1.375-1.376-1.375h-.874v5.75h.874c.76 0 1.376-.615 1.376-1.374v-3Zm2.25 3a3.625 3.625 0 0 1-3.626 3.625h-1.748c-.76 0-1.376-.615-1.376-1.374v-7.5c0-.76.616-1.376 1.376-1.376h1.748a3.626 3.626 0 0 1 3.626 3.626v3Z"/>
</svg>
