<svg xmlns="http://www.w3.org/2000/svg" width="24" height="24" fill="none" viewBox="0 0 24 24">
  <path fill="#888" d="M20.875 12a8.875 8.875 0 1 0-17.75 0 8.875 8.875 0 0 0 17.75 0Zm2.25 0c0 6.144-4.98 11.124-11.124 11.125C5.856 23.125.875 18.145.875 12 .875 5.856 5.856.875 12.001.875c6.143 0 11.124 4.981 11.124 11.126Z"/>
  <path fill="#888" d="M13.222 13.988a1.126 1.126 0 0 1 2.097.805l-.096.257c-.54 1.262-1.872 2.075-3.223 2.075a3.366 3.366 0 0 1-3.375-3.376V10.25A3.383 3.383 0 0 1 12 6.875c1.35 0 2.684.813 3.223 2.074l.096.258.031.111a1.125 1.125 0 0 1-2.128.693l-.041-.107-.065-.148c-.188-.338-.627-.631-1.116-.631-.62 0-1.125.515-1.125 1.125v3.5c0 .628.496 1.124 1.125 1.124.56 0 1.052-.382 1.18-.777l.042-.109Z"/>
</svg>
