<svg xmlns="http://www.w3.org/2000/svg" width="24" height="24" fill="none" viewBox="0 0 24 24">
  <path fill="#888" d="M20.875 12a8.875 8.875 0 1 0-17.75 0 8.875 8.875 0 0 0 17.75 0Zm2.25 0c0 6.144-4.98 11.124-11.124 11.125C5.856 23.125.875 18.145.875 12 .875 5.856 5.856.875 12.001.875c6.143 0 11.124 4.981 11.124 11.126Z"/>
  <path fill="#888" d="M14.248 6.875c1.034 0 1.674 1.085 1.239 1.973l-.103.174-3.978 5.852h3.093l.116.006a1.125 1.125 0 0 1 0 2.239l-.116.006H9.752a1.375 1.375 0 0 1-1.137-2.148l3.98-5.852H9.5a1.125 1.125 0 0 1 0-2.25h4.748Z"/>
</svg>
