<svg xmlns="http://www.w3.org/2000/svg" width="24" height="24" fill="none" viewBox="0 0 24 24">
  <path fill="#888" d="M20.875 12a8.875 8.875 0 1 0-17.75 0 8.875 8.875 0 0 0 17.75 0Zm2.25 0c0 6.144-4.98 11.124-11.124 11.125C5.856 23.125.875 18.145.875 12 .875 5.856 5.856.875 12.001.875c6.143 0 11.124 4.981 11.124 11.126Z"/>
  <path fill="#888" d="M9.401 13.374a1.126 1.126 0 0 1 1.377.614l.041.109.065.146c.188.339.626.631 1.116.631.629 0 1.125-.496 1.125-1.125V8a1.125 1.125 0 0 1 2.25 0v5.75A3.366 3.366 0 0 1 12 17.124c-1.35 0-2.684-.813-3.223-2.075l-.096-.258-.031-.11a1.126 1.126 0 0 1 .751-1.308Z"/>
</svg>
