<svg xmlns="http://www.w3.org/2000/svg" width="24" height="24" fill="none" viewBox="0 0 24 24">
  <path fill="#888" d="M19.875 6c0-1.036-.84-1.875-1.875-1.875H6c-1.036 0-1.875.84-1.875 1.875v12c0 1.035.84 1.875 1.875 1.875h12c1.035 0 1.875-.84 1.875-1.875V6Zm2.25 12A4.125 4.125 0 0 1 18 22.125H6A4.125 4.125 0 0 1 1.875 18V6A4.125 4.125 0 0 1 6 1.875h12A4.125 4.125 0 0 1 22.125 6v12Z"/>
  <path fill="#888" d="M13.375 10.25c0-.621-.504-1.125-1.125-1.125h-1.125v2.25h1.125c.621 0 1.125-.504 1.125-1.125Zm2.25 0a3.375 3.375 0 0 1-3.375 3.375h-1.125v2.374a1.125 1.125 0 0 1-2.25 0V8.214c0-.74.6-1.339 1.339-1.339h2.036a3.375 3.375 0 0 1 3.375 3.375Z"/>
</svg>
