<svg width="416" height="120" viewBox="0 0 416 120" fill="none" xmlns="http://www.w3.org/2000/svg">
<g id="Vector">
<path d="M104 82.5548V37.6387H137.488V45.2594H113.356V55.3898H129.487V63.1328H113.356V82.5548H104Z" fill="#888888"/>
<path d="M150.709 82.5548V37.6331H159.109V82.5548H150.709ZM139.326 82.5548V75.7983H170.613V82.5548H139.326ZM143.648 45.2908V37.6331H154.909V45.2908H143.648Z" fill="#888888"/>
<path d="M200.385 82.5551L200.063 75.5864V58.7454C200.063 56.7666 199.374 55.218 197.998 54.0996C196.621 52.9811 194.729 52.4219 192.32 52.4219C189.954 52.4219 188.039 52.9381 186.577 53.9705C185.114 54.9599 184.276 56.3579 184.06 58.1646H175.479C175.694 55.6267 176.533 53.4543 177.995 51.6476C179.501 49.8409 181.501 48.4644 183.996 47.518C186.491 46.5286 189.373 46.0339 192.642 46.0339C195.955 46.0339 198.815 46.5501 201.224 47.5825C203.676 48.6149 205.569 50.1205 206.902 52.0993C208.236 54.035 208.903 56.4225 208.903 59.2616V82.5551H200.385ZM188.448 83.3294C186.082 83.3294 183.996 82.8777 182.189 81.9743C180.426 81.071 179.049 79.8235 178.06 78.2319C177.07 76.6403 176.576 74.7906 176.576 72.6827C176.576 69.0263 177.995 66.1872 180.834 64.1654C183.673 62.1007 187.631 61.0683 192.707 61.0683H201.031V67.3272H192.449C190.212 67.3272 188.448 67.7358 187.158 68.5532C185.867 69.3705 185.222 70.5749 185.222 72.1665C185.222 73.328 185.695 74.3174 186.641 75.1347C187.588 75.909 188.878 76.2961 190.513 76.2961C192.707 76.2961 194.664 75.7154 196.385 74.554C198.105 73.3925 199.525 71.8224 200.643 69.8436L201.611 75.9735C200.493 78.4255 198.815 80.2752 196.578 81.5227C194.341 82.7271 191.631 83.3294 188.448 83.3294Z" fill="#888888"/>
<path d="M243.32 82.5553V57.068C243.32 55.8635 243.148 54.9386 242.803 54.2934C242.459 53.6051 241.857 53.261 240.997 53.261C239.835 53.261 238.803 54.0568 237.9 55.6484C236.996 57.24 236.308 59.907 235.835 63.6495L235.19 58.6165C235.061 54.702 235.792 51.6263 237.383 49.3895C239.018 47.1526 241.104 46.0342 243.642 46.0342C245.922 46.0342 247.772 46.8945 249.191 48.6152C250.654 50.3358 251.385 52.8523 251.385 56.1646V82.5553H243.32ZM215.251 82.5553V46.8085H222.994L223.252 53.5191V82.5553H215.251ZM229.318 82.5553V57.068C229.318 55.7775 229.103 54.8311 228.673 54.2289C228.285 53.5836 227.683 53.261 226.866 53.261C225.575 53.261 224.521 54.1213 223.704 55.842C222.887 57.5626 222.242 60.1651 221.768 63.6495V58.2939C221.682 55.799 222.005 53.6266 222.736 51.7769C223.511 49.9272 224.521 48.5076 225.769 47.5183C227.016 46.5289 228.35 46.0342 229.769 46.0342C232.092 46.0342 233.921 46.959 235.254 48.8088C236.588 50.6155 237.254 53.0244 237.254 56.0356V82.5553H229.318Z" fill="#888888"/>
<path d="M269.671 82.5552V46.8083H278.511V82.5552H269.671ZM257.54 82.5552V75.3929H290.448V82.5552H257.54ZM262.122 53.9706V46.8083H274.123V53.9706H262.122ZM269.284 41.5818V33H278.834V41.5818H269.284Z" fill="#888888"/>
<path d="M321.252 82.5551V60.3585C321.252 58.2937 320.693 56.6375 319.574 55.3901C318.499 54.0996 317.058 53.4543 315.251 53.4543C313.186 53.4543 311.315 54.1856 309.637 55.6482C307.96 57.0677 306.39 59.4121 304.927 62.6814L303.637 54.5512C305.185 51.5831 307.142 49.4323 309.508 48.0987C311.874 46.7222 314.369 46.0339 316.993 46.0339C319.703 46.0339 322.026 46.6147 323.962 47.7761C325.941 48.9376 327.468 50.5507 328.543 52.6155C329.619 54.6373 330.156 57.0462 330.156 59.8423V82.5551H321.252ZM296.861 82.5551V46.8082H305.379L305.701 53.7124V82.5551H296.861Z" fill="#888888"/>
<path d="M362.573 51.003L362.766 46.8089H371.284V78.1035C371.284 83.5236 369.8 87.6532 366.831 90.4923C363.906 93.3744 359.39 94.8155 353.281 94.8155C349.969 94.8155 347.108 94.3853 344.699 93.525C342.29 92.7076 340.398 91.4387 339.021 89.718C337.688 88.0403 336.978 85.911 336.892 83.33H346.248C346.463 84.7926 347.173 85.868 348.377 86.5563C349.582 87.2445 351.388 87.5887 353.797 87.5887C356.723 87.5887 358.873 86.8359 360.25 85.3303C361.669 83.8247 362.379 81.7384 362.379 79.0714V76.0387C361.175 77.5873 359.669 78.7918 357.862 79.6521C356.099 80.5124 354.12 80.9426 351.926 80.9426C348.915 80.9426 346.248 80.1898 343.925 78.6842C341.602 77.1356 339.774 75.0493 338.44 72.4253C337.107 69.7583 336.44 66.8116 336.44 63.5854C336.44 59.929 337.128 56.8103 338.505 54.2293C339.925 51.6052 341.839 49.605 344.248 48.2284C346.7 46.8089 349.453 46.0991 352.507 46.0991C354.615 46.0991 356.529 46.5508 358.25 47.4541C360.013 48.3575 361.454 49.5404 362.573 51.003ZM354.12 74.103C356.056 74.103 357.755 73.5007 359.218 72.2963C360.723 71.0488 361.777 69.4141 362.379 67.3924V59.5848C361.777 57.563 360.723 55.9499 359.218 54.7455C357.755 53.541 356.056 52.9388 354.12 52.9388C352.399 52.9388 350.872 53.4119 349.539 54.3583C348.205 55.2617 347.151 56.5091 346.377 58.1008C345.646 59.6494 345.28 61.4346 345.28 63.4563C345.28 65.4351 345.646 67.2418 346.377 68.8764C347.151 70.468 348.205 71.737 349.539 72.6834C350.872 73.6298 352.399 74.103 354.12 74.103Z" fill="#888888"/>
<path d="M396.022 83.3294C392.237 83.3294 388.967 82.5766 386.214 81.071C383.504 79.5654 381.418 77.4361 379.955 74.683C378.536 71.8869 377.826 68.5532 377.826 64.6817C377.826 60.8102 378.536 57.4979 379.955 54.7448C381.418 51.9487 383.504 49.7979 386.214 48.2923C388.967 46.7867 392.237 46.0339 396.022 46.0339C401.7 46.0339 406.131 47.6901 409.314 51.0024C412.54 54.3146 414.154 58.8744 414.154 64.6817C414.154 68.5532 413.422 71.8869 411.96 74.683C410.54 77.4361 408.475 79.5654 405.765 81.071C403.055 82.5766 399.808 83.3294 396.022 83.3294ZM396.022 76.1026C398.904 76.1026 401.163 75.0917 402.797 73.0699C404.475 71.0051 405.314 68.209 405.314 64.6817C405.314 61.1113 404.475 58.3152 402.797 56.2934C401.163 54.2716 398.904 53.2607 396.022 53.2607C393.097 53.2607 390.796 54.2716 389.118 56.2934C387.483 58.3152 386.666 61.1113 386.666 64.6817C386.666 68.209 387.483 71.0051 389.118 73.0699C390.796 75.0917 393.097 76.1026 396.022 76.1026Z" fill="#888888"/>
</g>
<path id="Flamingo Logomark" fill-rule="evenodd" clip-rule="evenodd" d="M0.53153 77.9756C0.297569 78.095 0.0121601 77.9582 0.0038611 77.7002C-0.127478 73.6173 3.10677 62.2314 7.43273 59.0452C11.144 45.9806 41.548 24.0208 61.4385 48.2044C62.8332 49.7884 63.6934 52.0978 64.4182 54.0436C65.7284 57.5613 66.5961 59.8908 69.3787 54.5977C72.1452 49.335 66.9395 42.2381 61.368 34.6426C55.4625 26.5918 49.1461 17.9808 51.4772 10.4001C55.1279 -1.47146 71.6518 -4.33245 74.2092 7.89834C78.0896 10.7002 84.0891 17.0815 75.942 25.8554C75.7136 26.1014 75.2933 25.9453 75.2774 25.6132C75.084 21.5769 73.6168 16.1177 70.2311 14.5697C68.6857 13.8632 67.6977 13.6723 66.8075 13.5003C65.252 13.1998 63.9952 12.9569 60.586 10.1221C54.903 5.39658 54.903 20.1291 67.4056 32.3599C76.7826 41.533 86.1595 66.2324 63.6957 70.9981C54.5843 72.9311 47.7562 72.0015 40.9746 71.0782C40.7623 71.0493 40.5501 71.0204 40.3378 70.9916V89.3274L46.0415 91.8104C46.7584 92.1225 47.0809 92.944 46.7619 93.6453C46.4429 94.3466 45.6031 94.6621 44.8863 94.35L40.3378 92.37V118.61C40.3378 119.378 39.7017 120 38.9171 120C38.1324 120 37.4963 119.378 37.4963 118.61V91.133L22.1543 84.4542C21.728 84.2686 21.4221 83.8902 21.3357 83.4417C21.2494 82.9931 21.3936 82.5317 21.7216 82.2072L33.8196 70.2377C25.204 69.536 15.4863 70.3474 0.53153 77.9756ZM37.4362 70.613L25.1872 82.732L37.4963 88.0905V70.6204C37.4763 70.618 37.4563 70.6155 37.4362 70.613Z" fill="#888888"/>
</svg>
