<svg xmlns="http://www.w3.org/2000/svg" width="24" height="24" fill="none" viewBox="0 0 24 24">
  <path fill="#888" d="M14.809 1.45c2.553-.853 5.232-.887 6.93.81 1.697 1.698 1.663 4.377.811 6.93-.305.915-.73 1.857-1.26 2.809.53.952.955 1.895 1.26 2.81.852 2.553.887 5.232-.81 6.93-1.698 1.697-4.378 1.663-6.931.811a16.714 16.714 0 0 1-2.81-1.26c-.952.53-1.895.955-2.808 1.26-2.553.852-5.233.887-6.93-.81-1.698-1.698-1.664-4.378-.812-6.931.305-.914.729-1.858 1.258-2.81A16.713 16.713 0 0 1 1.45 9.19c-.852-2.554-.886-5.233.812-6.93C3.958.563 6.637.597 9.19 1.449c.913.305 1.857.73 2.808 1.258a16.744 16.744 0 0 1 2.81-1.258ZM4.11 14.195c-.208.453-.384.896-.528 1.326-.767 2.3-.501 3.856.268 4.626.77.77 2.327 1.036 4.628.268.43-.143.872-.32 1.324-.529a25.658 25.658 0 0 1-3.066-2.623 25.676 25.676 0 0 1-2.626-3.068Zm15.776-.001a25.65 25.65 0 0 1-2.623 3.069 25.65 25.65 0 0 1-3.07 2.623c.454.209.898.385 1.328.529 2.3.768 3.856.501 4.626-.268.77-.77 1.036-2.326.268-4.626-.144-.43-.32-.874-.529-1.327ZM12 5.329a22.804 22.804 0 0 0-3.671 2.999 22.804 22.804 0 0 0-2.999 3.67 22.805 22.805 0 0 0 2.999 3.673 22.803 22.803 0 0 0 3.67 2.997 22.79 22.79 0 0 0 3.673-2.995 22.8 22.8 0 0 0 2.997-3.674 22.8 22.8 0 0 0-2.995-3.671A22.805 22.805 0 0 0 12 5.329ZM8.48 3.583c-2.3-.768-3.858-.501-4.628.268-.77.77-1.035 2.327-.268 4.628.144.43.32.872.528 1.324a25.643 25.643 0 0 1 2.626-3.066 25.66 25.66 0 0 1 3.066-2.626 13.139 13.139 0 0 0-1.324-.528Zm11.669.268c-.77-.769-2.326-1.035-4.626-.268-.43.144-.873.32-1.326.528 1.047.759 2.08 1.64 3.068 2.626a25.69 25.69 0 0 1 2.623 3.066c.208-.452.386-.895.529-1.324.768-2.3.502-3.858-.268-4.628Z"/>
  <path fill="#888" d="M12.875 12a.876.876 0 1 0-1.751.002.876.876 0 0 0 1.751-.003Zm2.25 0a3.126 3.126 0 1 1-6.25 0 3.126 3.126 0 0 1 6.25 0Z"/>
</svg>
