<svg xmlns="http://www.w3.org/2000/svg" width="24" height="24" fill="none" viewBox="0 0 24 24">
  <path fill="#888" d="M18.875 5c0-1.035-.84-1.875-1.875-1.875H7c-1.036 0-1.875.84-1.875 1.875v15.748l6.2-4.647.156-.1a1.126 1.126 0 0 1 1.194.1l6.2 4.649V5Zm2.25 16c0 1.697-1.877 2.688-3.268 1.792l-.131-.092L12 18.405 6.274 22.7c-1.357 1.018-3.276.111-3.394-1.538L2.875 21V5A4.125 4.125 0 0 1 7 .875h10A4.125 4.125 0 0 1 21.125 5v16Z"/>
  <path fill="#888" d="M10.875 12.5v-1.875H9a1.125 1.125 0 0 1 0-2.25h1.875V6.5a1.125 1.125 0 0 1 2.25 0v1.875H15a1.125 1.125 0 0 1 0 2.25h-1.875V12.5a1.125 1.125 0 0 1-2.25 0Z"/>
</svg>
