<svg xmlns="http://www.w3.org/2000/svg" width="24" height="24" fill="none" viewBox="0 0 24 24">
  <path fill="#888" d="M18.875 13.34V5c0-1.036-.84-1.875-1.875-1.875H8.655a1.125 1.125 0 0 1 0-2.25H17A4.125 4.125 0 0 1 21.125 5v8.34a1.126 1.126 0 0 1-2.25 0ZM2.205 1.205a1.125 1.125 0 0 1 1.506-.078l.085.078 19 19 .076.085a1.125 1.125 0 0 1-1.582 1.582l-.085-.076-.171-.172c-.39 1.299-1.966 1.947-3.176 1.168l-.133-.092L12 18.405 6.276 22.7c-1.358 1.018-3.276.11-3.394-1.538L2.876 21V5l.01-.292c.025-.356.095-.7.205-1.026l-.886-.887-.078-.085a1.125 1.125 0 0 1 .078-1.505Zm2.92 19.544 6.2-4.648.157-.1a1.127 1.127 0 0 1 1.194.1l6.199 4.648v-1.284L5.125 5.716v15.032Z"/>
</svg>
