<svg xmlns="http://www.w3.org/2000/svg" width="24" height="24" fill="none" viewBox="0 0 24 24">
  <path fill="#888" d="M6.04 22.43a1.126 1.126 0 0 1-2.08-.86l2.08.86Zm14-.86a1.125 1.125 0 0 1-2.08.86l2.08-.86ZM9.22 8.875a1.125 1.125 0 0 1 2.03.963L6.04 22.43 5 22l-1.04-.43L9.17 8.98l.05-.104Zm4.14-.506a1.124 1.124 0 0 1 1.42.506l.049.104 5.21 12.591L19 22l-1.038.43-5.21-12.592-.04-.108a1.125 1.125 0 0 1 .649-1.36ZM10.875 4V2a1.125 1.125 0 1 1 2.25 0v2a1.125 1.125 0 0 1-2.25 0Z"/>
  <path fill="#888" d="M10.875 20.5v-.423a14.067 14.067 0 0 1-8.168-3.44l-.486-.445-.08-.084a1.125 1.125 0 0 1 1.55-1.614l.088.075.409.375a11.819 11.819 0 0 0 6.687 2.876v-.32a1.125 1.125 0 1 1 2.25 0v.32a11.827 11.827 0 0 0 7.096-3.251 1.125 1.125 0 0 1 1.558 1.623 14.079 14.079 0 0 1-8.654 3.885v.423a1.125 1.125 0 0 1-2.25 0Zm3-13.5a1.875 1.875 0 1 0-3.75 0 1.875 1.875 0 0 0 3.75 0Zm2.25 0a4.125 4.125 0 1 1-8.25 0 4.125 4.125 0 0 1 8.25 0Z"/>
</svg>
