<svg xmlns="http://www.w3.org/2000/svg" width="24" height="24" fill="none" viewBox="0 0 24 24">
  <path fill="#888" d="M2.875 14.904V2a1.125 1.125 0 0 1 2.25 0v12.904c0 .943.462 1.827 1.238 2.364l4.854 3.362a1.376 1.376 0 0 0 1.566 0l4.853-3.362a2.877 2.877 0 0 0 1.24-2.364V2a1.125 1.125 0 0 1 2.25 0v12.904a5.126 5.126 0 0 1-1.956 4.027l-.252.187-4.854 3.362a3.627 3.627 0 0 1-4.128 0l-4.853-3.362a5.127 5.127 0 0 1-2.208-4.214Z"/>
  <path fill="#888" d="m15 12.875.115.006a1.125 1.125 0 0 1 0 2.238l-.114.006H9a1.125 1.125 0 0 1 0-2.25h6Zm0-5 .115.006a1.126 1.126 0 0 1 0 2.239l-.114.006H9a1.125 1.125 0 0 1 0-2.25h6Zm7-7 .115.006a1.125 1.125 0 0 1 0 2.238L22 3.125H2a1.125 1.125 0 0 1 0-2.25h20Z"/>
</svg>
