<svg xmlns="http://www.w3.org/2000/svg" width="24" height="24" fill="none" viewBox="0 0 24 24">
  <path fill="#888" d="M18.875 6c0-1.035-.84-1.875-1.875-1.875H7c-1.036 0-1.875.84-1.875 1.875v13c0 1.036.84 1.875 1.875 1.875h10c1.036 0 1.875-.84 1.875-1.875V6Zm2.25 13A4.126 4.126 0 0 1 17 23.125H7A4.125 4.125 0 0 1 2.875 19V6A4.125 4.125 0 0 1 7 1.875h10A4.125 4.125 0 0 1 21.125 6v13Z"/>
  <path fill="#888" d="m13 12.875.115.006a1.125 1.125 0 0 1 0 2.238l-.116.006H8a1.125 1.125 0 0 1 0-2.25h5Zm3-4 .115.005a1.125 1.125 0 0 1 0 2.239l-.115.005H8a1.125 1.125 0 0 1 0-2.25h8ZM6.874 4V2a1.125 1.125 0 0 1 2.25 0v2a1.125 1.125 0 0 1-2.25 0Zm4 0V2a1.125 1.125 0 0 1 2.25 0v2a1.125 1.125 0 0 1-2.25 0Zm4 0V2a1.125 1.125 0 0 1 2.25 0v2a1.125 1.125 0 0 1-2.25 0Z"/>
</svg>
