<svg xmlns="http://www.w3.org/2000/svg" width="24" height="24" fill="none" viewBox="0 0 24 24">
  <path fill="#888" d="M19.875 6c0-1.036-.84-1.875-1.875-1.875H6c-1.036 0-1.875.84-1.875 1.875v12c0 1.035.84 1.875 1.875 1.875h12c1.035 0 1.875-.84 1.875-1.875V6Zm2.25 12A4.125 4.125 0 0 1 18 22.125H6A4.125 4.125 0 0 1 1.875 18V6A4.125 4.125 0 0 1 6 1.875h12A4.125 4.125 0 0 1 22.125 6v12Z"/>
  <path fill="#888" d="M15.125 10.874h1.25V9.625h-1.25v1.25Zm-7.5 0h1.25V9.625h-1.25v1.25Zm3.5 1.584a4.716 4.716 0 0 1-3.94 4.652l-.115.014a1.126 1.126 0 0 1-.255-2.234l.22-.046a2.467 2.467 0 0 0 1.749-1.72H7A1.625 1.625 0 0 1 5.375 11.5V9c0-.898.727-1.625 1.625-1.625h2.5c.897 0 1.624.727 1.624 1.625v3.458Zm7.5 0a4.716 4.716 0 0 1-3.94 4.652l-.115.014a1.126 1.126 0 0 1-.255-2.234l.22-.046a2.467 2.467 0 0 0 1.749-1.72H14.5a1.625 1.625 0 0 1-1.625-1.624V9c0-.898.727-1.625 1.624-1.625H17c.897 0 1.624.727 1.625 1.625v3.458Z"/>
</svg>
