<svg xmlns="http://www.w3.org/2000/svg" width="24" height="24" fill="none" viewBox="0 0 24 24">
  <path fill="#888" d="M19.875 4A.875.875 0 0 0 19 3.125h-2a.875.875 0 0 0-.875.875v1.875h3.75V4Zm-.939 14.727a5.126 5.126 0 0 1-1.873 0L18 20.29l.936-1.562Zm-2.811-2.83.28.187.184.113c.938.529 2.1.491 3.006-.113l.28-.187V8.125h-3.75v7.772Zm.75-2.898v-2.498a1.125 1.125 0 0 1 2.25 0v2.498a1.125 1.125 0 0 1-2.25 0Zm5.25 3.923c0 .567-.154 1.123-.445 1.609l-2.287 3.81a1.625 1.625 0 0 1-2.786 0l-2.287-3.81a3.127 3.127 0 0 1-.445-1.609V4A3.125 3.125 0 0 1 17 .875h2A3.125 3.125 0 0 1 22.125 4v12.922ZM9.875 4A.875.875 0 0 0 9 3.125H5A.875.875 0 0 0 4.125 4v1.875H6l.116.005a1.126 1.126 0 0 1 0 2.239L6 8.125H4.125v2.75H6l.116.006a1.125 1.125 0 0 1 0 2.239L6 13.126H4.125v2.749H6l.116.006a1.125 1.125 0 0 1 0 2.238L6 18.125H4.125V20c0 .483.391.874.875.875h4A.874.874 0 0 0 9.875 20V4Zm2.25 16A3.124 3.124 0 0 1 9 23.125H5A3.125 3.125 0 0 1 1.875 20V4A3.125 3.125 0 0 1 5 .875h4A3.125 3.125 0 0 1 12.124 4v16Z"/>
</svg>
