<svg xmlns="http://www.w3.org/2000/svg" width="24" height="24" fill="none" viewBox="0 0 24 24">
  <path fill="#888" d="M13.64 15.133a1.375 1.375 0 1 1-1.508 1.507l-.008-.14.008-.141a1.375 1.375 0 0 1 1.368-1.234l.14.008Zm-3-3a1.375 1.375 0 1 1-1.508 1.507l-.007-.14.007-.141a1.375 1.375 0 0 1 1.368-1.233l.14.007Zm5.86-3.258a1.125 1.125 0 0 1 0 2.25h-9a1.125 1.125 0 0 1 0-2.25h9Z"/>
  <path fill="#888" d="M15.375 4.125h-6.75V16.5a3.375 3.375 0 1 0 6.75 0V4.125Zm2.25 12.375a5.625 5.625 0 0 1-11.25 0V4.125H6a1.125 1.125 0 0 1 0-2.25h12a1.125 1.125 0 0 1 0 2.25h-.375V16.5Z"/>
</svg>
