<svg xmlns="http://www.w3.org/2000/svg" width="24" height="24" fill="none" viewBox="0 0 24 24">
  <path fill="#888" d="M14.576 4.815c0-.446.042-.884.123-1.308a4.878 4.878 0 0 0-2.42 6.75l-.998.522-.996.523A7.127 7.127 0 0 1 16.395.875a1.127 1.127 0 0 1 1.015 1.67 4.696 4.696 0 0 0 4.502 6.95 1.126 1.126 0 0 1 1.104 1.61 7.129 7.129 0 0 1-5.943 4.004 1.124 1.124 0 1 1-.146-2.244 4.854 4.854 0 0 0 2.99-1.295 6.944 6.944 0 0 1-5.341-6.755Zm-2.297 5.442a1.126 1.126 0 0 1-1.994 1.045l1.994-1.045Z"/>
  <path fill="#888" d="M18.875 18a2.877 2.877 0 0 0-2.158-2.785 1.125 1.125 0 0 1-.843-1.136A1.881 1.881 0 0 0 14 12.125c-.425 0-.814.14-1.128.377a1.125 1.125 0 0 1-1.538-.173 3.375 3.375 0 0 0-5.918 2.704c.084.532-.22 1.05-.727 1.234a2.377 2.377 0 0 0 .81 4.608H16l.295-.015a2.876 2.876 0 0 0 2.58-2.86Zm2.25 0a5.125 5.125 0 0 1-4.862 5.118l-.264.007H5.5a4.625 4.625 0 0 1-2.374-8.593V14.5a5.625 5.625 0 0 1 9.256-4.295 4.121 4.121 0 0 1 5.68 3.101A5.126 5.126 0 0 1 21.126 18Z"/>
</svg>
