<svg xmlns="http://www.w3.org/2000/svg" width="24" height="24" fill="none" viewBox="0 0 24 24">
  <path fill="#888" d="M20.875 9a4.875 4.875 0 1 0-9.65.987 1.126 1.126 0 0 1-2.205.453 7.125 7.125 0 1 1 9.505 5.224 1.125 1.125 0 0 1-.796-2.104A4.877 4.877 0 0 0 20.875 9Z"/>
  <path fill="#888" d="M18.875 18a2.877 2.877 0 0 0-2.158-2.785 1.125 1.125 0 0 1-.843-1.135l.001-.08a1.875 1.875 0 0 0-3.003-1.498 1.125 1.125 0 0 1-1.538-.173 3.375 3.375 0 0 0-5.918 2.704c.084.532-.22 1.05-.727 1.234a2.377 2.377 0 0 0 .81 4.608H16l.295-.015a2.876 2.876 0 0 0 2.58-2.86Zm2.25 0a5.125 5.125 0 0 1-4.862 5.118l-.264.007H5.5a4.625 4.625 0 0 1-2.374-8.593V14.5a5.625 5.625 0 0 1 9.256-4.295 4.121 4.121 0 0 1 5.68 3.101A5.126 5.126 0 0 1 21.126 18Z"/>
</svg>
