<svg xmlns="http://www.w3.org/2000/svg" width="24" height="24" fill="none" viewBox="0 0 24 24">
  <path fill="#888" d="M20.875 14.5a3.376 3.376 0 0 0-2.278-3.192 1.125 1.125 0 0 1-.746-1.234 2.125 2.125 0 0 0-3.195-2.147 1.124 1.124 0 0 1-1.425-.223 4.626 4.626 0 0 0-8.067 3.656c.06.457-.164.903-.565 1.128A2.875 2.875 0 0 0 6 17.875h11.5a3.375 3.375 0 0 0 3.375-3.376Zm2.25 0a5.625 5.625 0 0 1-5.625 5.625H6a5.125 5.125 0 0 1-3.12-9.19c-.001-.061-.005-.123-.005-.186A6.876 6.876 0 0 1 9.75 3.875a6.85 6.85 0 0 1 4.568 1.74 4.374 4.374 0 0 1 5.8 3.905 5.623 5.623 0 0 1 3.007 4.98Z"/>
</svg>
