<svg xmlns="http://www.w3.org/2000/svg" width="24" height="24" fill="none" viewBox="0 0 24 24">
  <path fill="#888" d="M17.691 18.884a1.766 1.766 0 0 1 1.95 0l.123.089.196.15c.46.333 1.129.696 1.868.746l.172.006.115.006a1.125 1.125 0 0 1 0 2.238l-.115.006-.314-.01c-1.306-.085-2.371-.687-3.02-1.153-.701.503-1.885 1.163-3.333 1.163-1.449 0-2.634-.66-3.334-1.163-.7.503-1.885 1.163-3.333 1.163-1.448 0-2.633-.66-3.333-1.163-.701.503-1.885 1.163-3.333 1.163a1.125 1.125 0 0 1 0-2.25c.923 0 1.755-.514 2.237-.902l.121-.09a1.766 1.766 0 0 1 1.95 0l.122.09.197.15c.495.359 1.233.752 2.04.752.922 0 1.755-.514 2.236-.902l.122-.09a1.766 1.766 0 0 1 1.95 0l.121.09.198.15c.494.359 1.232.752 2.039.752.923 0 1.755-.514 2.237-.902l.121-.09Zm0-4a1.767 1.767 0 0 1 1.95 0l.123.09.196.15c.46.332 1.129.695 1.868.745l.172.006.115.006a1.125 1.125 0 0 1 0 2.238l-.115.006-.314-.01c-1.305-.086-2.371-.686-3.02-1.152-.701.503-1.886 1.162-3.333 1.162-1.448 0-2.634-.66-3.334-1.162-.7.503-1.885 1.162-3.333 1.162-1.448 0-2.633-.66-3.333-1.162-.701.503-1.885 1.162-3.333 1.162a1.125 1.125 0 0 1 0-2.25c.923 0 1.755-.513 2.237-.901l.121-.09a1.767 1.767 0 0 1 1.95 0l.122.09.197.15c.495.357 1.233.75 2.04.75.922 0 1.755-.512 2.236-.9l.122-.09a1.767 1.767 0 0 1 1.95 0l.121.09.198.15c.494.357 1.232.75 2.039.75.922 0 1.755-.512 2.237-.9l.121-.09Zm-.738-11.297a1.125 1.125 0 0 1 2.093.825l-.533 1.354a8.24 8.24 0 0 1-4.214 4.459l.165 1.563.006.115a1.125 1.125 0 0 1-2.226.235l-.018-.115-.133-1.25-1.241.13.127 1.21.006.116a1.126 1.126 0 0 1-2.226.231l-.018-.114-.136-1.295a13.125 13.125 0 0 1-2.51-.264l-.506-.114-2.359-.58-.11-.034a1.126 1.126 0 0 1 .535-2.174l.114.022 2.359.582.419.094a10.877 10.877 0 0 0 3.309.162l2.351-.245a3.635 3.635 0 0 0 1.13-.309 5.99 5.99 0 0 0 3.083-3.25l.533-1.354ZM11.375 4.75a.626.626 0 1 0-1.252.001.626.626 0 0 0 1.252 0Zm2.25 0a2.875 2.875 0 1 1-5.75-.002 2.875 2.875 0 0 1 5.75.002Z"/>
</svg>
