<svg xmlns="http://www.w3.org/2000/svg" width="24" height="24" fill="none" viewBox="0 0 24 24">
  <path fill="#888" d="M2.874 2.874a6.825 6.825 0 0 1 8.574-.877l.553.36.552-.36.256-.161a6.825 6.825 0 0 1 8.317 1.038l.208.219a6.824 6.824 0 0 1 .83 8.099l-.16.256-.363.552.363.553.16.256a6.824 6.824 0 0 1-.83 8.1l-.208.217a6.825 6.825 0 0 1-8.317 1.037l-.256-.16-.553-.362-.552.363a6.825 6.825 0 0 1-9.451-9.451l.36-.553-.36-.552a6.825 6.825 0 0 1 .877-8.574Zm16.662 1.591a4.576 4.576 0 0 0-5.401-.795l-.347.206-.59.389a2.18 2.18 0 0 1-2.257.083l-.139-.083-.59-.389a4.574 4.574 0 0 0-6.336 6.336l.389.59.083.14a2.18 2.18 0 0 1 0 2.117l-.083.138-.389.59a4.576 4.576 0 0 0 6.336 6.336l.59-.388.14-.084a2.181 2.181 0 0 1 2.117 0l.138.084.59.388.348.206a4.575 4.575 0 0 0 5.4-.793l.273-.298a4.576 4.576 0 0 0 .522-5.103l-.207-.348-.388-.59a2.181 2.181 0 0 1 0-2.395l.388-.59.207-.346a4.576 4.576 0 0 0-.522-5.103l-.272-.298Z"/>
  <path fill="#888" d="M13.875 12a1.875 1.875 0 1 0-3.75 0 1.875 1.875 0 0 0 3.75 0Zm2.25 0a4.125 4.125 0 1 1-8.25 0 4.125 4.125 0 0 1 8.25 0Z"/>
</svg>
