<svg xmlns="http://www.w3.org/2000/svg" width="24" height="24" fill="none" viewBox="0 0 24 24">
  <path fill="#888" d="M7.789 2.6c2.088-1.173 6.66-2.985 13.397-.43.735.278 1.01.993.923 1.577-.085.57-.53 1.15-1.266 1.25-.656.089-1.224.205-1.7.322a9.767 9.767 0 0 1 2.59 7.64c-.33 3.343-2.276 6.253-4.656 7.902l-.48.313c-1.814 1.101-6.303 3.24-13.117.897l-.666-.242c-.735-.279-1.01-.994-.923-1.578.085-.57.53-1.15 1.266-1.25l.79-.125c.333-.061.636-.13.909-.197a9.768 9.768 0 0 1-2.588-7.64c.351-3.566 2.54-6.638 5.135-8.213L7.79 2.6Zm9.742.835c-4.355-.892-7.263.348-8.654 1.134l-.306.18C6.54 5.98 4.785 8.444 4.507 11.26a7.54 7.54 0 0 0 3.214 6.945h.002l.001.001.067.053a.883.883 0 0 1 .065.057c.022.022.042.045.063.068.068.075.13.159.177.255a1.153 1.153 0 0 1 .098.352c.005.04.01.078.01.116.001.04-.002.08-.005.119-.003.03-.004.06-.01.09a1.11 1.11 0 0 1-.056.212 1.12 1.12 0 0 1-.125.243 1.12 1.12 0 0 1-.2.215 1.19 1.19 0 0 1-.148.108.995.995 0 0 1-.084.047l-.001.002-.003-.005-.005.002.003.004c-.01.005-.029.01-.054.022a10.14 10.14 0 0 1-1.049.396c4.706.964 7.724-.56 8.962-1.311 2.03-1.232 3.786-3.696 4.064-6.511a7.537 7.537 0 0 0-2.817-6.65l-.399-.297-.001-.001a1.1 1.1 0 0 1-.135-.111 1.335 1.335 0 0 1-.063-.068 1.118 1.118 0 0 1-.174-.255 1.125 1.125 0 0 1-.088-.265c-.006-.027-.008-.055-.012-.083a1.11 1.11 0 0 1-.006-.238c.003-.03.005-.061.01-.092.008-.045.021-.088.034-.132.009-.029.017-.058.028-.086.032-.081.07-.16.122-.235a1.123 1.123 0 0 1 .299-.293c.012-.008.024-.018.038-.026a.903.903 0 0 1 .098-.051l.001-.002v.002h.003l-.001-.003.054-.025.035-.015c.157-.07.5-.214 1.012-.38Z"/>
  <path fill="#888" d="M14.874 12a2.875 2.875 0 1 0-5.75 0 2.875 2.875 0 0 0 5.75 0Zm2.25 0a5.124 5.124 0 1 1-10.248 0 5.124 5.124 0 0 1 10.248 0Z"/>
</svg>
