<svg xmlns="http://www.w3.org/2000/svg" width="24" height="24" fill="none" viewBox="0 0 24 24">
  <path fill="#888" d="M10.659 1.902c.346-1.37 2.335-1.37 2.682 0l.03.14.112.71.067.372a9.364 9.364 0 0 0 7.698 7.393l.709.114c1.508.242 1.556 2.351.142 2.71l-.142.03-.709.112a9.364 9.364 0 0 0-7.765 7.765l-.113.71c-.25 1.556-2.49 1.556-2.74 0l-.113-.71a9.364 9.364 0 0 0-7.393-7.698l-.373-.067-.709-.113c-1.556-.25-1.556-2.49 0-2.74l.71-.113.372-.068a9.364 9.364 0 0 0 7.393-7.697l.114-.71.028-.14ZM12 5.715A11.622 11.622 0 0 1 5.716 12 11.621 11.621 0 0 1 12 18.283a11.621 11.621 0 0 1 6.282-6.282A11.622 11.622 0 0 1 12 5.715Z"/>
</svg>
