<svg xmlns="http://www.w3.org/2000/svg" width="24" height="24" fill="none" viewBox="0 0 24 24">
  <path fill="#888" d="M14.874 12a2.875 2.875 0 1 0-5.75 0 2.875 2.875 0 0 0 5.75 0Zm2.25 0a5.124 5.124 0 0 1-10.249 0 5.126 5.126 0 0 1 10.25 0ZM11.1 18.827a1.125 1.125 0 0 1 1.864 1.255l-.25.413a.59.59 0 0 0-.08.174.38.38 0 0 0 0 .162c.01.05.031.093.08.175l.25.415.055.102a1.125 1.125 0 0 1-1.92 1.152l-.064-.097-.288-.479a3.088 3.088 0 0 1-.311-.786 2.627 2.627 0 0 1 0-1.127c.126-.57.503-1.104.6-1.264l.064-.095Zm-5.079.517a1.126 1.126 0 0 1-2.184-.545l2.184.545Zm11.011-3.13a1.125 1.125 0 0 1 1.33.709l.034.11.114.47a.572.572 0 0 0 .07.18.358.358 0 0 0 .112.114.589.589 0 0 0 .181.067l.47.116.11.034a1.125 1.125 0 0 1-.541 2.17l-.113-.021-.544-.135a3.086 3.086 0 0 1-.776-.337 2.627 2.627 0 0 1-.797-.797 3.084 3.084 0 0 1-.335-.775l-.134-.542-.022-.113a1.125 1.125 0 0 1 .841-1.25Zm-10.608 0a1.125 1.125 0 1 1 .543 2.182c-.355.089-.494.117-.578.148l-.072.035a.375.375 0 0 0-.113.113c-.056.087-.065.179-.183.652l-2.184-.545c.045-.182.157-.828.472-1.32a2.62 2.62 0 0 1 .796-.797c.492-.314 1.137-.423 1.319-.468Zm14.997-5.179a1.126 1.126 0 1 1 1.157 1.93c-.16.096-.696.475-1.265.6-.371.081-.756.08-1.127-.001-.57-.126-1.104-.503-1.264-.6a1.125 1.125 0 0 1 1.16-1.929c.416.25.487.31.587.331a.376.376 0 0 0 .162 0c.1-.022.172-.08.59-.33Zm-18.734-.599a2.625 2.625 0 0 1 1.126 0c.57.126 1.104.503 1.265.6a1.125 1.125 0 0 1-1.16 1.928c-.311-.187-.43-.267-.512-.304l-.076-.027a.376.376 0 0 0-.161 0c-.101.023-.172.08-.59.332l-.101.054a1.126 1.126 0 0 1-1.057-1.984l.48-.288c.224-.123.5-.248.786-.31Zm2.402-6.621.113.022.544.135c.245.072.529.18.774.337.32.205.593.476.797.797.314.491.424 1.136.47 1.318a1.125 1.125 0 1 1-2.183.543c-.089-.354-.116-.494-.147-.578l-.035-.072a.375.375 0 0 0-.114-.113.574.574 0 0 0-.18-.069l-.472-.114-.11-.034a1.126 1.126 0 0 1 .543-2.172Zm12.925.731a1.125 1.125 0 0 1 2.149.656l-.135.544c-.073.245-.18.529-.337.775a2.62 2.62 0 0 1-.797.796c-.49.314-1.135.424-1.317.47a1.125 1.125 0 1 1-.545-2.183c.472-.118.564-.127.65-.182a.377.377 0 0 0 .115-.114c.055-.087.065-.179.183-.652l.034-.11Zm-5.05.532a1.125 1.125 0 0 1-1.929-1.159l1.93 1.159Zm0-3.657c.097.161.476.696.6 1.266.082.371.081.756 0 1.127-.126.57-.503 1.103-.6 1.264l-.963-.58-.966-.579c.25-.417.31-.489.331-.589l.009-.08a.377.377 0 0 0-.009-.081c-.022-.1-.08-.172-.33-.59l1.928-1.158Zm-1.544-.386a1.126 1.126 0 0 1 1.544.386L11.035 2.58a1.126 1.126 0 0 1 .385-1.544Z"/>
</svg>
