<svg xmlns="http://www.w3.org/2000/svg" width="24" height="24" fill="none" viewBox="0 0 24 24">
  <path fill="#888" d="M15.876 17a3.876 3.876 0 0 0-7.751 0 1.125 1.125 0 0 1-2.25 0 6.125 6.125 0 0 1 12.25 0 1.125 1.125 0 0 1-2.25 0ZM22 19.875l.115.006a1.125 1.125 0 0 1 0 2.239l-.115.005H2a1.125 1.125 0 0 1 0-2.25h20Zm-18.5-4 .116.006a1.125 1.125 0 0 1 0 2.238l-.116.006H2a1.125 1.125 0 0 1 0-2.25h1.5Zm18.5 0 .115.006a1.125 1.125 0 0 1 0 2.238l-.115.006h-1.5a1.125 1.125 0 0 1 0-2.25H22ZM4.133 9.134a1.126 1.126 0 0 1 1.506-.078l.086.078 1.06 1.06.077.085a1.125 1.125 0 0 1-1.582 1.584l-.085-.078-1.062-1.06-.076-.085a1.125 1.125 0 0 1 .076-1.506Zm14.143 0a1.125 1.125 0 1 1 1.59 1.59l-1.06 1.061a1.125 1.125 0 0 1-1.59-1.59l1.06-1.061ZM10.876 2a1.125 1.125 0 0 1 2.25 0v3.784l1.08-1.08a1.125 1.125 0 0 1 1.59 1.59l-3 3a1.126 1.126 0 0 1-1.59 0l-3-3-.079-.084A1.126 1.126 0 0 1 9.71 4.628l.087.076 1.08 1.08V2Z"/>
</svg>
