<svg xmlns="http://www.w3.org/2000/svg" width="24" height="24" fill="none" viewBox="0 0 24 24">
  <path fill="#888" d="M17.691 16.888a1.767 1.767 0 0 1 1.95 0l.123.09.196.15c.46.332 1.129.695 1.868.746l.172.005.115.006a1.125 1.125 0 0 1 0 2.239l-.115.005-.314-.01c-1.305-.085-2.371-.685-3.02-1.151-.701.502-1.886 1.161-3.333 1.161-1.448 0-2.634-.659-3.334-1.161-.7.502-1.885 1.161-3.333 1.161-1.448 0-2.633-.659-3.333-1.161-.701.502-1.885 1.161-3.333 1.161a1.125 1.125 0 1 1 0-2.25c.923 0 1.755-.513 2.237-.9l.121-.091a1.767 1.767 0 0 1 1.95 0l.122.09.197.15c.495.358 1.233.751 2.04.751.922 0 1.755-.513 2.236-.9l.122-.091a1.767 1.767 0 0 1 1.95 0l.121.09.198.15c.494.358 1.232.751 2.039.751.922 0 1.755-.513 2.237-.9l.121-.091Zm0-6.36a1.766 1.766 0 0 1 1.95 0l.123.09.196.15c.46.333 1.129.696 1.868.746l.172.006.115.006a1.125 1.125 0 0 1 0 2.238L22 13.77l-.314-.01c-1.305-.086-2.371-.686-3.02-1.152-.701.503-1.886 1.162-3.333 1.162-1.448 0-2.634-.66-3.334-1.162-.7.503-1.885 1.162-3.333 1.162-1.448 0-2.633-.66-3.333-1.162-.701.503-1.886 1.162-3.333 1.162a1.125 1.125 0 0 1 0-2.25c.923 0 1.755-.515 2.237-.902l.121-.09a1.766 1.766 0 0 1 1.95 0l.122.09.197.15c.495.358 1.233.752 2.04.752.922 0 1.755-.515 2.236-.902l.122-.09a1.766 1.766 0 0 1 1.95 0l.121.09.198.15c.494.358 1.232.752 2.039.752.923 0 1.755-.515 2.237-.902l.121-.09Zm0-6.36a1.767 1.767 0 0 1 1.95 0l.123.09.196.15c.46.333 1.129.695 1.868.746L22 5.16l.115.005a1.125 1.125 0 0 1 0 2.239L22 7.41l-.314-.01c-1.305-.086-2.371-.686-3.02-1.152-.701.502-1.886 1.162-3.333 1.162-1.448 0-2.634-.66-3.334-1.162-.7.502-1.885 1.162-3.333 1.162-1.448 0-2.633-.66-3.333-1.162C4.632 6.75 3.448 7.41 2 7.41a1.125 1.125 0 1 1 0-2.25c.923 0 1.755-.514 2.237-.901l.121-.091a1.767 1.767 0 0 1 1.95 0l.122.09.197.15c.495.358 1.233.751 2.04.752.922 0 1.755-.514 2.236-.901l.122-.091a1.767 1.767 0 0 1 1.95 0l.121.09.198.15c.494.358 1.232.751 2.039.752.922 0 1.755-.514 2.237-.901l.121-.091Z"/>
</svg>
