<svg xmlns="http://www.w3.org/2000/svg" width="24" height="24" fill="none" viewBox="0 0 24 24">
  <path fill="#888" d="M19.875 9.5c0-.759-.616-1.375-1.375-1.375H17a1.125 1.125 0 0 1 0-2.25h1.5a3.626 3.626 0 0 1 0 7.25H3a1.125 1.125 0 0 1 0-2.25h15.5c.759 0 1.375-.615 1.375-1.375Z"/>
  <path fill="#888" d="M16.875 18.5c0-.76-.616-1.375-1.376-1.375H3a1.125 1.125 0 0 1 0-2.25h12.5a3.625 3.625 0 1 1 0 7.25H14a1.125 1.125 0 0 1 0-2.25h1.5c.759 0 1.375-.616 1.375-1.375Zm-5-13c0-.759-.616-1.375-1.375-1.375H9a1.125 1.125 0 0 1 0-2.25h1.5a3.626 3.626 0 0 1 0 7.25H3a1.125 1.125 0 0 1 0-2.25h7.5c.76 0 1.375-.615 1.376-1.375Z"/>
</svg>
