<svg xmlns="http://www.w3.org/2000/svg" width="24" height="24" fill="none" viewBox="0 0 24 24">
  <path fill="#888" d="M5.205 19.205a1.125 1.125 0 0 1 1.59 1.59l-2 2a1.125 1.125 0 1 1-1.59-1.59l2-2Zm12 0a1.124 1.124 0 0 1 1.504-.078l.087.078 2 2 .077.086a1.125 1.125 0 0 1-1.584 1.582l-.084-.078-2-2-.078-.085a1.125 1.125 0 0 1 .078-1.505Zm-13-18a1.125 1.125 0 1 1 1.59 1.59l-3 3a1.125 1.125 0 1 1-1.59-1.59l3-3Zm14 0a1.126 1.126 0 0 1 1.505-.078l.085.078 3 3 .077.085a1.125 1.125 0 0 1-1.581 1.583l-.087-.078-3-3-.076-.085a1.125 1.125 0 0 1 .076-1.505Z"/>
  <path fill="#888" d="M19.875 13a7.875 7.875 0 1 0-15.75 0 7.875 7.875 0 0 0 15.75 0Zm-6.189-4.125c.988 0 1.598 1.036 1.182 1.884l-.097.167-2.686 3.949h1.79l.116.006a1.125 1.125 0 0 1 0 2.238l-.116.006h-3.561a1.313 1.313 0 0 1-1.086-2.05l2.687-3.95h-1.79a1.125 1.125 0 1 1 0-2.25h3.561ZM22.125 13c0 5.592-4.533 10.125-10.125 10.125S1.875 18.592 1.875 13 6.408 2.875 12 2.875 22.125 7.408 22.125 13Z"/>
</svg>
