<svg xmlns="http://www.w3.org/2000/svg" width="24" height="24" fill="none" viewBox="0 0 24 24">
  <path fill="#888" d="M21 6.875a1.125 1.125 0 0 1 0 2.25H3a1.125 1.125 0 0 1 0-2.25h18Z"/>
  <path fill="#888" d="M19.875 6c0-.996-.778-1.81-1.76-1.87a1.124 1.124 0 0 1-2.233-.005H8.118a1.125 1.125 0 0 1-2.235.005A1.874 1.874 0 0 0 4.125 6v12c0 1.036.84 1.875 1.875 1.875h12c1.035 0 1.875-.84 1.875-1.875V6ZM15 13.374l.116.006a1.126 1.126 0 0 1 0 2.239l-.116.005H9a1.125 1.125 0 0 1 0-2.25h6ZM22.125 18A4.125 4.125 0 0 1 18 22.125H6A4.125 4.125 0 0 1 1.875 18V6a4.121 4.121 0 0 1 4.006-4.119 1.125 1.125 0 0 1 2.237-.006h7.764a1.125 1.125 0 0 1 2.235.006 4.121 4.121 0 0 1 4.008 4.12v12Z"/>
</svg>
