<svg xmlns="http://www.w3.org/2000/svg" width="24" height="24" fill="none" viewBox="0 0 24 24">
  <path fill="#888" d="M4.875 22v-3.343c0-1.36.54-2.663 1.501-3.624l2.415-2.414.11-.138a.875.875 0 0 0 0-.962l-.11-.138-2.415-2.414a5.126 5.126 0 0 1-1.501-3.624V2a1.125 1.125 0 0 1 2.25 0v3.343c0 .762.303 1.494.842 2.033l2.414 2.414a3.125 3.125 0 0 1 0 4.42l-2.414 2.413a2.879 2.879 0 0 0-.842 2.034V22a1.125 1.125 0 0 1-2.25 0Zm12 0v-3.343c0-.763-.303-1.494-.842-2.034l-2.414-2.414a3.125 3.125 0 0 1 0-4.419l2.414-2.414.192-.211c.419-.511.65-1.155.65-1.822V2a1.125 1.125 0 0 1 2.25 0v3.343c0 1.359-.54 2.663-1.502 3.624L15.21 11.38a.876.876 0 0 0 0 1.238l2.415 2.414a5.126 5.126 0 0 1 1.501 3.624V22a1.125 1.125 0 0 1-2.25 0Z"/>
  <path fill="#888" d="m19 20.875.115.005a1.125 1.125 0 0 1 0 2.239l-.115.006H5a1.125 1.125 0 0 1 0-2.25h14Zm0-20 .115.006a1.125 1.125 0 0 1 0 2.238L19 3.125H5a1.125 1.125 0 0 1 0-2.25h14Z"/>
</svg>
