<svg xmlns="http://www.w3.org/2000/svg" width="24" height="24" fill="none" viewBox="0 0 24 24">
  <path fill="#888" d="M19.705 5.705a1.125 1.125 0 0 1 1.59 1.59l-1.5 1.5a1.125 1.125 0 0 1-1.59-1.59l1.5-1.5ZM10.875 5V3.125H9a1.125 1.125 0 0 1 0-2.25h6l.116.006a1.125 1.125 0 0 1 0 2.238L15 3.125h-1.875V5a1.125 1.125 0 0 1-2.25 0Z"/>
  <path fill="#888" d="M19.375 13.5a7.375 7.375 0 1 0-14.751 0 7.375 7.375 0 0 0 14.75 0Zm-8.5 0v-4a1.125 1.125 0 0 1 2.25 0v4a1.126 1.126 0 0 1-2.25 0Zm10.75 0A9.624 9.624 0 0 1 12 23.126c-5.316 0-9.626-4.309-9.626-9.624 0-5.316 4.31-9.626 9.626-9.626 5.315 0 9.624 4.31 9.624 9.626Z"/>
</svg>
