<svg xmlns="http://www.w3.org/2000/svg" width="24" height="24" fill="none" viewBox="0 0 24 24">
  <path fill="#888" d="M19.875 6c0-1.036-.84-1.875-1.875-1.875H6c-1.036 0-1.875.84-1.875 1.875v12c0 1.035.84 1.875 1.875 1.875h12c1.035 0 1.875-.84 1.875-1.875V6Zm2.25 12A4.125 4.125 0 0 1 18 22.125H6A4.125 4.125 0 0 1 1.875 18V6A4.125 4.125 0 0 1 6 1.875h12A4.125 4.125 0 0 1 22.125 6v12Z"/>
  <path fill="#888" d="M8.205 8.205a1.125 1.125 0 0 1 1.505-.078l.085.078 4.08 4.08V9.5a1.125 1.125 0 0 1 2.25 0V15A1.125 1.125 0 0 1 15 16.125H9.5a1.125 1.125 0 0 1 0-2.25h2.784l-4.08-4.08-.077-.085a1.125 1.125 0 0 1 .078-1.505Z"/>
</svg>
