<svg width="24" height="24" viewBox="0 0 24 24" fill="none" xmlns="http://www.w3.org/2000/svg">
<path d="M16.1539 6.25489L16.2399 6.17721C16.6818 5.81696 17.3331 5.84306 17.7449 6.25489C18.1568 6.66672 18.1829 7.31805 17.8226 7.75991L17.7449 7.84588L7.84579 17.745C7.40645 18.1844 6.69414 18.1844 6.2548 17.745C5.81546 17.3057 5.81546 16.5934 6.2548 16.154L16.1539 6.25489Z" fill="#888888"/>
<path d="M7.33963 7.05004C7.33963 6.46752 7.7822 5.98791 8.34953 5.93034L8.46451 5.92516H16.9498C17.2482 5.92516 17.534 6.04392 17.7449 6.25489C17.9559 6.46587 18.0747 6.75168 18.0747 7.05004V15.5353C18.0747 16.1566 17.5711 16.6602 16.9498 16.6602C16.3285 16.6602 15.8249 16.1566 15.8249 15.5353V8.17492H8.46451L8.34953 8.16974C7.7822 8.11218 7.33963 7.63257 7.33963 7.05004Z" fill="#888888"/>
</svg>