<svg xmlns="http://www.w3.org/2000/svg" width="24" height="24" fill="none" viewBox="0 0 24 24">
  <path fill="#888" d="M19.875 6c0-1.036-.84-1.875-1.875-1.875H6c-1.036 0-1.875.84-1.875 1.875v12c0 1.035.84 1.875 1.875 1.875h12c1.035 0 1.875-.84 1.875-1.875V6Zm2.25 12A4.125 4.125 0 0 1 18 22.125H6A4.125 4.125 0 0 1 1.875 18V6A4.125 4.125 0 0 1 6 1.875h12A4.125 4.125 0 0 1 22.125 6v12Z"/>
  <path fill="#888" d="M12.704 6.704a1.125 1.125 0 0 1 1.59 1.591l-6.499 6.5a1.125 1.125 0 0 1-1.92-.796v-3.534a1.125 1.125 0 0 1 2.25 0v.819l4.58-4.58Zm3.171 6.831v-.82l-4.58 4.58a1.125 1.125 0 0 1-1.59-1.59l6.5-6.5a1.125 1.125 0 0 1 1.92.795v3.535a1.125 1.125 0 0 1-2.25 0Z"/>
</svg>
