<svg xmlns="http://www.w3.org/2000/svg" width="24" height="24" fill="none" viewBox="0 0 24 24">
  <path fill="#888" d="M19.875 6c0-1.036-.84-1.875-1.875-1.875H6c-1.036 0-1.875.84-1.875 1.875v12c0 1.035.84 1.875 1.875 1.875h12c1.035 0 1.875-.84 1.875-1.875V6Zm2.25 12A4.125 4.125 0 0 1 18 22.125H6A4.125 4.125 0 0 1 1.875 18V6A4.125 4.125 0 0 1 6 1.875h12A4.125 4.125 0 0 1 22.125 6v12Z"/>
  <path fill="#888" d="M17 12.874a1.125 1.125 0 0 1 .796 1.92l-2.5 2.501a1.125 1.125 0 0 1-1.591-1.59l.58-.58H8.5a1.125 1.125 0 0 1 0-2.25H17Zm-8.295-6.17a1.125 1.125 0 0 1 1.591 1.591l-.58.58H15.5l.114.006a1.126 1.126 0 0 1 0 2.239l-.114.005H7a1.126 1.126 0 0 1-.796-1.92l2.5-2.5Z"/>
</svg>
