<svg xmlns="http://www.w3.org/2000/svg" width="24" height="24" fill="none" viewBox="0 0 24 24">
  <path fill="#888" d="M4.125 19.876h15.75v-1.35H4.125v1.35Zm18 .124A2.126 2.126 0 0 1 20 22.126H4A2.126 2.126 0 0 1 1.875 20v-1.6c0-1.173.952-2.125 2.125-2.125h16c1.173 0 2.125.952 2.125 2.126V20Zm-18-7.325h11.75v-1.35H4.124v1.35Zm0-7.2h7.75v-1.35h-7.75v1.35Zm14 7.325A2.125 2.125 0 0 1 16 14.925H4A2.126 2.126 0 0 1 1.875 12.8v-1.6c0-1.173.952-2.125 2.125-2.125h12c1.174 0 2.125.952 2.125 2.125v1.6Zm-4-7.2A2.126 2.126 0 0 1 12 7.726H4A2.126 2.126 0 0 1 1.875 5.6V4c0-1.173.952-2.125 2.125-2.125h8c1.174 0 2.126.952 2.126 2.125v1.6Z"/>
</svg>
