<svg xmlns="http://www.w3.org/2000/svg" width="24" height="24" fill="none" viewBox="0 0 24 24">
  <path fill="#888" d="M11.325 19.875h1.35V4.125h-1.35v15.75Zm3.6.125a2.126 2.126 0 0 1-2.125 2.125h-1.6A2.126 2.126 0 0 1 9.075 20V4c0-1.173.952-2.125 2.125-2.125h1.6c1.174 0 2.125.952 2.125 2.125v16Zm3.599-.125h1.351v-7.75h-1.35v7.75Zm-14.399 0h1.35V8.125h-1.35v11.75Zm18 .125A2.125 2.125 0 0 1 20 22.125h-1.6A2.125 2.125 0 0 1 16.274 20v-8c0-1.174.953-2.124 2.126-2.125H20c1.173 0 2.125.951 2.125 2.124V20Zm-14.4 0A2.125 2.125 0 0 1 5.6 22.125H4A2.125 2.125 0 0 1 1.875 20V8c0-1.173.952-2.125 2.125-2.125h1.6c1.174 0 2.126.952 2.126 2.125v12Z"/>
</svg>
