<svg xmlns="http://www.w3.org/2000/svg" width="24" height="24" fill="none" viewBox="0 0 24 24">
  <path fill="#888" d="M18.525 19.875h1.35V4.125h-1.35v15.75Zm3.6.125c0 1.1-.836 2.006-1.908 2.115l-.217.01h-1.6A2.126 2.126 0 0 1 16.276 20V4c0-1.173.952-2.125 2.126-2.125H20c1.173 0 2.125.952 2.125 2.125v16Zm-10.8-.125h1.35V8.125h-1.35v11.75Zm-7.2 0h1.35v-7.75h-1.35v7.75Zm3.6.125c0 1.1-.837 2.006-1.908 2.114l-.217.01H4a2.125 2.125 0 0 1-2.125-2.123v-8.002c0-1.173.952-2.124 2.125-2.124h1.6c1.174 0 2.125.951 2.126 2.124V20Zm7.2 0a2.125 2.125 0 0 1-2.125 2.125h-1.6A2.125 2.125 0 0 1 9.075 20V8c0-1.173.952-2.125 2.125-2.125h1.6c1.173 0 2.125.952 2.125 2.125v12Z"/>
</svg>
