<svg xmlns="http://www.w3.org/2000/svg" width="24" height="24" fill="none" viewBox="0 0 24 24">
  <path fill="#888" d="M10.875 2a1.125 1.125 0 0 1 2.25 0v8.131l6.848-3.625.106-.048a1.124 1.124 0 0 1 .947 2.036l-7.155 3.786 5.925 5.924.076.087a1.124 1.124 0 0 1-1.582 1.582l-.085-.078-7-7a1.12 1.12 0 0 1-.33-.794V2Z"/>
  <path fill="#888" d="M20.875 12a8.875 8.875 0 1 0-17.75 0 8.875 8.875 0 0 0 17.75 0Zm2.25 0c0 6.144-4.98 11.124-11.124 11.125C5.856 23.125.875 18.145.875 12 .875 5.856 5.855.875 12 .875c6.144 0 11.125 4.981 11.125 11.126Z"/>
</svg>
