<svg xmlns="http://www.w3.org/2000/svg" width="24" height="24" fill="none" viewBox="0 0 24 24">
  <path fill="#888" d="M19.875 6c0-1.036-.84-1.875-1.875-1.875H6c-1.036 0-1.875.84-1.875 1.875v12c0 1.035.84 1.875 1.875 1.875h12c1.035 0 1.875-.84 1.875-1.875V6Zm2.25 12A4.125 4.125 0 0 1 18 22.125H6A4.125 4.125 0 0 1 1.875 18V6A4.125 4.125 0 0 1 6 1.875h12A4.125 4.125 0 0 1 22.125 6v12Z"/>
  <path fill="#888" d="M15.705 8.705a1.125 1.125 0 1 1 1.59 1.59l-2.698 2.699a2.125 2.125 0 0 1-2.436.405l-.16-.086-1.078-.646-2.628 2.628a1.125 1.125 0 1 1-1.59-1.59l2.698-2.698.133-.123a2.126 2.126 0 0 1 2.303-.284l.16.088 1.076.644 2.63-2.627Z"/>
</svg>
