<svg xmlns="http://www.w3.org/2000/svg" width="24" height="24" fill="none" viewBox="0 0 24 24">
  <path fill="#888" d="m20.72 13.875.114.006a1.125 1.125 0 0 1 0 2.238l-.114.006H3.28a1.125 1.125 0 1 1 0-2.25h17.44Zm-3.498-6 .114.006a1.125 1.125 0 0 1 0 2.238l-.114.006H6.779a1.125 1.125 0 0 1 0-2.25h10.443Z"/>
  <path fill="#888" d="M8.436 3.923c1.591-2.73 5.536-2.73 7.128 0l6.993 11.995c1.603 2.75-.38 6.203-3.564 6.203H5.007c-3.184 0-5.168-3.453-3.564-6.203L8.436 3.923Zm5.184 1.133c-.678-1.163-2.297-1.236-3.092-.218l-.148.218L3.386 17.05c-.728 1.25.174 2.82 1.62 2.82h13.987c1.447 0 2.349-1.57 1.62-2.82L13.62 5.056Z"/>
</svg>
