<svg xmlns="http://www.w3.org/2000/svg" width="24" height="24" fill="none" viewBox="0 0 24 24">
  <path fill="#888" d="M19.875 6c0-1.036-.84-1.875-1.875-1.875H6c-1.036 0-1.875.84-1.875 1.875v12c0 1.035.84 1.875 1.875 1.875h12c1.035 0 1.875-.84 1.875-1.875V6Zm2.25 12A4.125 4.125 0 0 1 18 22.125H6A4.125 4.125 0 0 1 1.875 18V6A4.125 4.125 0 0 1 6 1.875h12A4.125 4.125 0 0 1 22.125 6v12Z"/>
  <path fill="#888" d="M6.875 17v-1a1.125 1.125 0 0 1 2.25 0v1a1.125 1.125 0 0 1-2.25 0Zm4 0v-2.5a1.125 1.125 0 0 1 2.25 0V17a1.125 1.125 0 0 1-2.25 0Zm4 0v-4a1.125 1.125 0 0 1 2.25 0v4a1.126 1.126 0 0 1-2.25 0Zm.83-10.795a1.125 1.125 0 1 1 1.59 1.59l-2.698 2.699a2.125 2.125 0 0 1-2.436.405l-.16-.086-1.078-.646-2.628 2.628a1.125 1.125 0 1 1-1.59-1.59l2.698-2.698.133-.123A2.126 2.126 0 0 1 11.84 8.1l.16.088 1.076.645 2.63-2.628Z"/>
</svg>
