<svg xmlns="http://www.w3.org/2000/svg" width="24" height="24" fill="none" viewBox="0 0 24 24">
  <path fill="#888" d="M10.875 22v-1.398l-2.751 1.834a1.126 1.126 0 0 1-1.248-1.872l3.999-2.666V16a1.125 1.125 0 0 1 2.25 0v1.898l3.999 2.666.092.07a1.125 1.125 0 0 1-1.24 1.861l-.1-.059-2.751-1.834V22a1.125 1.125 0 0 1-2.25 0Z"/>
  <path fill="#888" d="M19.375 3.125H4.625v9.874c0 1.036.84 1.875 1.875 1.875h11a1.875 1.875 0 0 0 1.875-1.875V3.125Zm2.25 9.874a4.125 4.125 0 0 1-4.125 4.126h-11a4.125 4.125 0 0 1-4.125-4.126V3.125H2a1.125 1.125 0 0 1 0-2.25h20l.115.006a1.125 1.125 0 0 1 0 2.238L22 3.125h-.375v9.874Z"/>
</svg>
