<svg xmlns="http://www.w3.org/2000/svg" width="24" height="24" fill="none" viewBox="0 0 24 24">
  <path fill="#888" d="M20.875 12a5.875 5.875 0 0 0-10.85-3.125h5.684l.116.005a1.125 1.125 0 0 1 0 2.239l-.115.005H9.19a5.93 5.93 0 0 0 0 1.751h6.52l.115.006a1.124 1.124 0 0 1 0 2.238l-.115.006h-5.684a5.874 5.874 0 0 0 10.849-3.124Zm2.25 0a8.125 8.125 0 1 1-16.25-.002 8.125 8.125 0 0 1 16.25.003Z"/>
  <path fill="#888" d="M14.874 12a5.875 5.875 0 1 0-11.75 0 5.875 5.875 0 0 0 11.75 0Zm2.25 0a8.125 8.125 0 1 1-16.249-.002 8.125 8.125 0 0 1 16.25.003Z"/>
</svg>
