<svg xmlns="http://www.w3.org/2000/svg" width="24" height="24" fill="none" viewBox="0 0 24 24">
  <path fill="#888" d="M20.875 10V6c0-1.036-.84-1.875-1.875-1.875H5c-1.036 0-1.875.84-1.875 1.875v4c0 1.036.84 1.876 1.875 1.876h.5l.115.005a1.125 1.125 0 0 1 0 2.239l-.115.006H5A4.125 4.125 0 0 1 .875 10V6A4.125 4.125 0 0 1 5 1.875h14A4.125 4.125 0 0 1 23.125 6v4A4.125 4.125 0 0 1 19 14.127h-.5a1.125 1.125 0 0 1 0-2.25h.5c1.035 0 1.874-.84 1.875-1.875Z"/>
  <path fill="#888" d="M17.375 8.125h-6.75v11.75h4.876c1.035 0 1.874-.84 1.874-1.875V8.125Zm-4 8.875v-1.5a1.125 1.125 0 0 1 2.25 0V17a1.125 1.125 0 0 1-2.25 0Zm-6.75 1c0 .993.773 1.805 1.75 1.869V8.125h-1.75V18Zm13 0a4.125 4.125 0 0 1-4.124 4.125H8.5A4.125 4.125 0 0 1 4.375 18V7c0-.621.504-1.125 1.125-1.125h13A1.126 1.126 0 0 1 19.625 7v11Z"/>
</svg>
