<svg xmlns="http://www.w3.org/2000/svg" width="24" height="24" fill="none" viewBox="0 0 24 24">
  <path fill="#888" d="M3.375 9a1.125 1.125 0 0 1 2.25 0v7.375h1.75V9a1.125 1.125 0 0 1 2.25 0v7.375h2.523l.115.006a1.125 1.125 0 0 1 0 2.239l-.115.005H5c-.718 0-1.307.55-1.37 1.25H11l.114.006a1.126 1.126 0 0 1 0 2.238l-.114.006H2.5A1.125 1.125 0 0 1 1.375 21v-1c0-1.417.815-2.642 2-3.238V9Z"/>
  <path fill="#888" d="M21.204 13.204a1.125 1.125 0 0 1 1.59 1.591l-6.998 7a1.125 1.125 0 0 1-1.59-1.59l6.998-7ZM21 20.127a.62.62 0 0 0-.125.372l.013.126a.614.614 0 0 0 .112.246v-.744Zm1 .744a.619.619 0 0 0 .112-.246l.014-.126-.014-.124a.62.62 0 0 0-.112-.248v.744Zm-7-6.744a.62.62 0 0 0-.126.372l.014.126a.603.603 0 0 0 .113.246v-.744Zm1 .744a.619.619 0 0 0 .112-.246l.014-.126-.014-.124a.62.62 0 0 0-.112-.248v.744Zm4.875-7.368a.874.874 0 0 0-.403-.737l-.113-.061-7.59-3.415a1.877 1.877 0 0 0-1.539 0L3.64 6.705a.875.875 0 0 0-.515.798v.372h17.75v-.372Zm2.25 12.996a1.625 1.625 0 0 1-3.242.167l-.008-.167.008-.165a1.626 1.626 0 0 1 1.617-1.46l.166.01a1.624 1.624 0 0 1 1.459 1.615Zm-6-6a1.625 1.625 0 0 1-3.242.167l-.007-.167.007-.165a1.626 1.626 0 0 1 1.617-1.46l.165.01c.82.082 1.46.774 1.46 1.615Zm6-5.499c0 .621-.504 1.125-1.125 1.125H2A1.125 1.125 0 0 1 .875 9V7.503c0-1.23.721-2.344 1.843-2.849l7.59-3.416a4.125 4.125 0 0 1 3.384 0l7.59 3.416.206.101a3.125 3.125 0 0 1 1.637 2.748V9Z"/>
</svg>
