<svg xmlns="http://www.w3.org/2000/svg" width="24" height="24" fill="none" viewBox="0 0 24 24">
  <path fill="#888" d="m9 11.874.115.006a1.126 1.126 0 0 1 0 2.239L9 14.124H6a1.125 1.125 0 0 1 0-2.25h3Zm13-4.999.115.006a1.125 1.125 0 0 1 0 2.238L22 9.125H2a1.125 1.125 0 0 1 0-2.25h20Z"/>
  <path fill="#888" d="M17.875 15a1.126 1.126 0 0 1 2.25 0v3.284l1.08-1.08a1.125 1.125 0 0 1 1.59 1.59l-3 3c-.44.44-1.152.44-1.59 0l-3-3-.077-.084a1.125 1.125 0 0 1 1.582-1.582l.085.076 1.08 1.08V15Zm3-2.65V7c0-1.036-.84-1.875-1.875-1.875H5c-1.036 0-1.875.84-1.875 1.875v10c0 1.036.84 1.875 1.875 1.875h7.535l.116.006a1.125 1.125 0 0 1 0 2.239l-.116.005H5A4.125 4.125 0 0 1 .875 17V7A4.125 4.125 0 0 1 5 2.875h14A4.125 4.125 0 0 1 23.125 7v5.35a1.125 1.125 0 0 1-2.25 0Z"/>
</svg>
