<svg xmlns="http://www.w3.org/2000/svg" width="24" height="24" fill="none" viewBox="0 0 24 24">
  <path fill="#888" d="m9 11.874.115.006a1.126 1.126 0 0 1 0 2.239L9 14.124H6a1.125 1.125 0 0 1 0-2.25h3Zm13-4.999.115.006a1.125 1.125 0 0 1 0 2.238L22 9.125H2a1.125 1.125 0 0 1 0-2.25h20Z"/>
  <path fill="#888" d="M20.875 7c0-1.036-.84-1.875-1.875-1.875H5c-1.036 0-1.875.84-1.875 1.875v10c0 1.036.84 1.875 1.875 1.875h14c1.035 0 1.874-.84 1.875-1.875V7Zm2.25 10A4.125 4.125 0 0 1 19 21.125H5A4.125 4.125 0 0 1 .875 17V7A4.125 4.125 0 0 1 5 2.875h14A4.125 4.125 0 0 1 23.125 7v10Z"/>
</svg>
