<svg xmlns="http://www.w3.org/2000/svg" width="24" height="24" fill="none" viewBox="0 0 24 24">
  <path fill="#888" d="M1.203 12.097a1.125 1.125 0 0 1 1.506-.08l.085.077 4.626 4.605.076.087a1.125 1.125 0 0 1-1.579 1.585l-.085-.077-4.626-4.607-.078-.085a1.125 1.125 0 0 1 .075-1.505Zm11.419 1.151a1.125 1.125 0 1 1-1.68-1.496l1.68 1.496Zm3.537-7.356a1.126 1.126 0 0 1 1.682 1.497l-5.22 5.859-.839-.748-.84-.748 5.217-5.86Z"/>
  <path fill="#888" d="M21.16 5.751a1.126 1.126 0 0 1 1.68 1.498l-9.648 10.835a1.626 1.626 0 0 1-2.232.186l-.128-.116-4.626-4.607-.078-.085a1.125 1.125 0 0 1 1.581-1.586l.085.078 4.157 4.138 9.208-10.34Z"/>
</svg>
