<svg xmlns="http://www.w3.org/2000/svg" width="24" height="24" fill="none" viewBox="0 0 24 24">
  <path fill="#888" d="M3.875 12C3.875 6.408 8.408 1.875 14 1.875c2.08 0 4.017.628 5.627 1.705a1.126 1.126 0 0 1-1.253 1.87 7.875 7.875 0 1 0 0 13.099 1.126 1.126 0 0 1 1.253 1.87A10.085 10.085 0 0 1 14 22.126C8.408 22.125 3.875 17.592 3.875 12Z"/>
  <path fill="#888" d="m14 12.876.115.005a1.125 1.125 0 0 1 0 2.239l-.116.006H3a1.125 1.125 0 0 1 0-2.25h11Zm0-4.001.115.006a1.125 1.125 0 0 1 0 2.238l-.116.006H3a1.125 1.125 0 0 1 0-2.25h11Z"/>
</svg>
