<svg xmlns="http://www.w3.org/2000/svg" width="24" height="24" fill="none" viewBox="0 0 24 24">
  <path fill="#888" d="M20.875 12a8.875 8.875 0 1 0-17.75 0 8.875 8.875 0 0 0 17.75 0Zm2.25 0c0 6.144-4.98 11.124-11.124 11.125C5.856 23.125.875 18.145.875 12 .875 5.856 5.856.875 12.001.875c6.143 0 11.124 4.981 11.124 11.126Z"/>
  <path fill="#888" d="M12.876 10.01V10a.883.883 0 0 0-.877-.875c-.448 0-.834.311-.93.606a1.125 1.125 0 0 1-2.138-.697C9.356 7.727 10.67 6.875 12 6.875A3.133 3.133 0 0 1 15.125 10v.01c0 1.398-.863 2.191-1.493 2.62a9.855 9.855 0 0 1-.529.327 1.125 1.125 0 0 1-2.23-.207v-.3c0-.497.28-.824.42-.964a2.4 2.4 0 0 1 .424-.322c.304-.189.404-.225.65-.393.369-.251.508-.454.508-.761Zm.499 5.99a1.376 1.376 0 0 1-2.742.14l-.007-.14.007-.141A1.374 1.374 0 0 1 12 14.626l.14.007c.694.07 1.235.655 1.235 1.367Z"/>
</svg>
