<svg xmlns="http://www.w3.org/2000/svg" width="24" height="24" fill="none" viewBox="0 0 24 24">
  <path fill="#888" d="M1.875 18v-2a1.125 1.125 0 0 1 2.25 0v2c0 1.035.84 1.875 1.875 1.875h2l.115.006a1.125 1.125 0 0 1 0 2.238L8 22.125H6A4.125 4.125 0 0 1 1.875 18Zm18 0v-2a1.125 1.125 0 0 1 2.25 0v2A4.125 4.125 0 0 1 18 22.125h-2a1.125 1.125 0 0 1 0-2.25h2c1.035 0 1.875-.84 1.875-1.875Zm-18-10V6A4.125 4.125 0 0 1 6 1.875h2l.115.006a1.125 1.125 0 0 1 0 2.238L8 4.125H6c-1.036 0-1.875.84-1.875 1.875v2a1.125 1.125 0 0 1-2.25 0Zm18 0V6c0-1.036-.84-1.875-1.875-1.875h-2a1.125 1.125 0 0 1 0-2.25h2A4.125 4.125 0 0 1 22.125 6v2a1.125 1.125 0 0 1-2.25 0Zm-6.999 2.01V10a.883.883 0 0 0-.877-.875c-.448 0-.834.311-.93.606a1.125 1.125 0 0 1-2.138-.697C9.356 7.727 10.67 6.875 12 6.875A3.133 3.133 0 0 1 15.125 10v.01c0 1.398-.863 2.191-1.493 2.62a9.855 9.855 0 0 1-.529.327 1.125 1.125 0 0 1-2.23-.207v-.3c0-.497.28-.824.42-.964a2.4 2.4 0 0 1 .424-.322c.304-.189.404-.225.65-.393.369-.251.508-.454.508-.761Zm.499 5.99a1.376 1.376 0 0 1-2.742.14l-.007-.14.007-.141A1.374 1.374 0 0 1 12 14.626l.14.007c.694.07 1.235.655 1.235 1.367Z"/>
</svg>
