<svg xmlns="http://www.w3.org/2000/svg" width="24" height="24" fill="none" viewBox="0 0 24 24">
  <path fill="#888" d="M19.875 7V5.727L15.75 9.851a1.125 1.125 0 0 1-1.59-1.59l4.13-4.133-1.293-.003-.114-.006a1.125 1.125 0 0 1 .12-2.244l4 .01c.069 0 .136.009.201.021l.015.001c.028.006.054.018.082.025.044.013.09.023.133.041.038.016.072.039.108.059.027.015.055.027.081.044l.017.013c.054.038.108.078.156.126.08.08.14.172.19.267.018.032.039.063.053.098.031.076.053.154.067.234.012.064.02.13.02.196V7a1.126 1.126 0 0 1-2.25 0Z"/>
  <path fill="#888" d="M15.874 14a5.875 5.875 0 1 0-11.75 0 5.875 5.875 0 0 0 11.75 0Zm2.25 0a8.125 8.125 0 1 1-16.25-.002 8.125 8.125 0 0 1 16.25.003Z"/>
</svg>
