<svg xmlns="http://www.w3.org/2000/svg" width="24" height="24" fill="none" viewBox="0 0 24 24">
  <path fill="#888" d="M7.875 17v-4a1.125 1.125 0 0 1 2.25 0v4a1.125 1.125 0 0 1-2.25 0Zm13 0v-4a1.125 1.125 0 0 1 2.25 0v4a1.125 1.125 0 0 1-2.25 0Zm0-8v-.5c0-.759-.616-1.375-1.375-1.375A3.626 3.626 0 0 1 15.874 3.5V3a1.125 1.125 0 0 1 2.25 0v.5c0 .759.617 1.375 1.376 1.375A3.626 3.626 0 0 1 23.125 8.5V9a1.125 1.125 0 0 1-2.25 0Z"/>
  <path fill="#888" d="M19 11.875c.62 0 1.125.504 1.125 1.125v4c0 .622-.504 1.125-1.125 1.125H3A2.126 2.126 0 0 1 .875 16v-2c0-1.173.952-2.125 2.125-2.125h16Zm-15.875 4h14.75v-1.75H3.125v1.75Z"/>
</svg>
