<svg xmlns="http://www.w3.org/2000/svg" width="24" height="24" fill="none" viewBox="0 0 24 24">
  <path fill="#888" d="M21.248 12.664a1.125 1.125 0 0 1 1.504 1.672L18.16 18.47l.689 2.406h3.15l.116.006a1.125 1.125 0 0 1 0 2.239l-.115.005H2a1.125 1.125 0 0 1 0-2.25h3.15l.502-1.75H4a1.125 1.125 0 0 1 0-2.25h12.568l4.68-4.211ZM7.492 20.875h9.017l-.5-1.75H7.992l-.5 1.75Z"/>
  <path fill="#888" d="M7.268 1.17a8.625 8.625 0 0 1 10.563 6.098 1.126 1.126 0 0 1-.795 1.378l-4.317 1.156-.03.01-.033.007-1.778.476.915 3.414.024.112a1.126 1.126 0 0 1-2.162.58l-.036-.11-.915-3.414-1.778.477a.16.16 0 0 1-.031.01c-.013.004-.026.005-.038.008l-4.31 1.156a1.127 1.127 0 0 1-1.377-.796A8.625 8.625 0 0 1 7.268 1.17ZM5.212 4.784a6.373 6.373 0 0 0-2.063 5.251l2.11-.565c-.287-1.426-.408-3.053-.047-4.686ZM7.957 3.74c-.843 1.625-.847 3.43-.52 5.148l3.542-.95c-.576-1.65-1.48-3.212-3.022-4.198Zm2.897-.468c1.13 1.234 1.84 2.703 2.304 4.082l2.11-.565a6.373 6.373 0 0 0-4.414-3.517Z"/>
</svg>
