<svg xmlns="http://www.w3.org/2000/svg" width="24" height="24" fill="none" viewBox="0 0 24 24">
  <path fill="#888" d="M4.875 22V6a1.125 1.125 0 0 1 2.25 0v16a1.125 1.125 0 0 1-2.25 0Zm12 0V6a1.125 1.125 0 0 1 2.25 0v16a1.125 1.125 0 0 1-2.25 0Z"/>
  <path fill="#888" d="M20.875 9c0-1.035-.84-1.875-1.875-1.875H5c-1.036 0-1.875.84-1.875 1.875v10c0 1.035.84 1.875 1.875 1.875h14c1.035 0 1.875-.84 1.875-1.875V9Zm-6-5A.875.875 0 0 0 14 3.125h-4A.875.875 0 0 0 9.125 4v.875h5.75V4Zm2.25.875H19A4.125 4.125 0 0 1 23.125 9v10A4.125 4.125 0 0 1 19 23.125H5A4.125 4.125 0 0 1 .875 19V9A4.125 4.125 0 0 1 5 4.875h1.875V4A3.125 3.125 0 0 1 10 .875h4A3.125 3.125 0 0 1 17.125 4v.875Z"/>
</svg>
