<svg xmlns="http://www.w3.org/2000/svg" width="24" height="24" fill="none" viewBox="0 0 24 24">
  <path fill="#888" d="M10.876 22v-1.45a8.625 8.625 0 0 1-7.426-7.425H2a1.125 1.125 0 0 1 0-2.25h1.45a8.625 8.625 0 0 1 7.425-7.425V2a1.125 1.125 0 0 1 2.25 0v1.45a8.625 8.625 0 0 1 7.424 7.425H22l.116.006a1.125 1.125 0 0 1 0 2.239l-.115.006h-1.45a8.624 8.624 0 0 1-7.425 7.423V22a1.125 1.125 0 0 1-2.25 0ZM12 5.625a6.375 6.375 0 1 0 0 12.75 6.375 6.375 0 0 0 0-12.75Z"/>
  <path fill="#888" d="M13.875 12a1.875 1.875 0 1 0-3.75 0 1.875 1.875 0 0 0 3.75 0Zm2.25 0a4.125 4.125 0 1 1-8.25 0 4.125 4.125 0 0 1 8.25 0Z"/>
</svg>
