<svg xmlns="http://www.w3.org/2000/svg" width="24" height="24" fill="none" viewBox="0 0 24 24">
  <path fill="#888" d="M17.685 1.875c.533 0 1.01-.002 1.385.032.306.028.731.089 1.11.331l.16.116.18.166c.397.408.615.962.6 1.538-.015.536-.287.967-.491 1.252-.11.153-.243.32-.393.5l-.489.57-1.992 2.31c-.126.145-.205.24-.26.31.055.07.134.165.26.31l1.992 2.31c.349.403.662.764.882 1.07.179.25.41.61.474 1.056l.017.196-.008.245a2.125 2.125 0 0 1-.772 1.459c-.415.34-.92.415-1.27.447-.375.034-.852.032-1.385.032H4a1.125 1.125 0 0 1 0-2.25h13.685c.451 0 .767-.005 1.003-.016a22.681 22.681 0 0 0-.643-.77l-1.994-2.308a9.528 9.528 0 0 1-.422-.511 2.301 2.301 0 0 1-.277-.473l-.07-.2a2.128 2.128 0 0 1 0-1.195l.07-.199c.08-.188.182-.344.277-.473.12-.161.273-.339.422-.511l1.994-2.309.464-.543c.07-.084.127-.16.179-.227a23.062 23.062 0 0 0-1.003-.015H4a1.125 1.125 0 0 1 0-2.25h13.685Z"/>
  <path fill="#888" d="M2.875 22V2a1.125 1.125 0 0 1 2.25 0v20a1.125 1.125 0 0 1-2.25 0Z"/>
</svg>
