<svg xmlns="http://www.w3.org/2000/svg" width="24" height="24" fill="none" viewBox="0 0 24 24">
  <path fill="#888" d="M4.205 4.205a1.125 1.125 0 0 1 1.505-.078l.085.078 14 14 .078.086a1.124 1.124 0 0 1-1.582 1.582l-.087-.078-14-14-.077-.085a1.125 1.125 0 0 1 .078-1.505Z"/>
  <path fill="#888" d="M20.875 12a8.875 8.875 0 1 0-17.75 0 8.875 8.875 0 0 0 17.75 0Zm2.25 0c0 6.144-4.98 11.124-11.124 11.125C5.856 23.125.875 18.145.875 12 .875 5.856 5.856.875 12.001.875c6.143 0 11.124 4.981 11.124 11.126Z"/>
</svg>
