<svg xmlns="http://www.w3.org/2000/svg" width="24" height="24" fill="none" viewBox="0 0 24 24">
  <path fill="#888" d="m9.121 17.907.004.114a1.126 1.126 0 0 1-2.23.186l-.017-.114-.5-6L7.5 12l1.122-.094.5 6Zm1.753.094v-6a1.125 1.125 0 0 1 2.25 0v6a1.125 1.125 0 0 1-2.25 0Zm5.72-7.123a1.126 1.126 0 0 1 1.027 1.215l-.5 6-.015.114a1.126 1.126 0 0 1-2.227-.3l.5-6c.051-.62.595-1.08 1.214-1.028Zm-9.187 0a1.126 1.126 0 0 1 1.214 1.029l-2.242.186a1.126 1.126 0 0 1 1.028-1.214Zm.621-9.445a1.124 1.124 0 0 1 1.944 1.134l-3.5 6a1.124 1.124 0 1 1-1.943-1.134l3.5-6Zm6.404-.404a1.126 1.126 0 0 1 1.477.308l.063.096 3.5 6 .052.103a1.125 1.125 0 0 1-1.933 1.128l-.063-.097-3.5-6-.053-.103a1.125 1.125 0 0 1 .457-1.435Z"/>
  <path fill="#888" d="M18.499 6.875a4.126 4.126 0 0 1 4.111 4.462l-.026.232-1.113 8a4.126 4.126 0 0 1-4.087 3.556H6.616a4.125 4.125 0 0 1-4.086-3.556l-1.114-8A4.125 4.125 0 0 1 5.5 6.875h12.998ZM5.5 9.125a1.874 1.874 0 0 0-1.856 2.133l1.113 8c.13.928.922 1.617 1.858 1.617h10.768c.935 0 1.728-.69 1.857-1.616l1.115-8 .018-.21a1.876 1.876 0 0 0-1.875-1.924H5.5Z"/>
</svg>
