<svg xmlns="http://www.w3.org/2000/svg" width="24" height="24" fill="none" viewBox="0 0 24 24">
  <path fill="#888" d="M22.135 2.882c.616.075 1.057.636.983 1.253l-.99 8.238a3.126 3.126 0 0 1-3.102 2.753H6.25a1.125 1.125 0 0 1 0-2.25h12.776a.876.876 0 0 0 .869-.771l.987-8.24a1.127 1.127 0 0 1 1.253-.983Z"/>
  <path fill="#888" d="M18.5 21.128a.62.62 0 0 0-.125.372l.012.126a.62.62 0 0 0 .113.245v-.743Zm1 .743a.62.62 0 0 0 .112-.245l.013-.126-.013-.126a.62.62 0 0 0-.111-.246v.743Zm-10.888-.497a.62.62 0 0 0-.112-.247v.745a.62.62 0 0 0 .112-.246l.013-.126-.013-.126ZM7.5 21.127a.621.621 0 0 0-.125.373l.013.126a.62.62 0 0 0 .112.246v-.745ZM2.34.875a3.125 3.125 0 0 1 3.072 2.549l2.235 11.922c.167.887.94 1.53 1.843 1.53H20l.116.005a1.125 1.125 0 0 1 0 2.239l-.116.005H9.49a4.126 4.126 0 0 1-4.055-3.364L3.2 3.838a.875.875 0 0 0-.86-.713H2a1.125 1.125 0 0 1 0-2.25h.34ZM12.375 6.5v-3a1.125 1.125 0 0 1 2.25 0v3a1.125 1.125 0 0 1-2.25 0Zm-2.75 15a1.624 1.624 0 0 1-3.242.166l-.008-.166.008-.166A1.625 1.625 0 0 1 8 19.875l.166.008c.82.083 1.459.775 1.459 1.617Zm11 0a1.625 1.625 0 0 1-3.241.166l-.009-.166.009-.166A1.624 1.624 0 0 1 19 19.875l.166.008c.82.083 1.46.776 1.46 1.617Zm-5.75-11a1.374 1.374 0 0 1-2.743.141l-.007-.14.007-.141a1.375 1.375 0 0 1 1.369-1.235l.14.007a1.376 1.376 0 0 1 1.233 1.369Z"/>
</svg>
