<svg xmlns="http://www.w3.org/2000/svg" width="24" height="24" fill="none" viewBox="0 0 24 24">
  <path fill="#888" d="M20.874 3.125H14.88l-1.23 4.913a.876.876 0 0 0 .85 1.087H18a1.125 1.125 0 0 1 1.038 1.556l-.514 1.244c-.28.676-.04 1.442.543 1.848l1.721-3.599.065-.183a.883.883 0 0 0 .02-.195v-6.67Zm2.25 6.671c0 .35-.058.697-.172 1.026l-.132.322-1.833 3.833a2.013 2.013 0 0 1-2.694.944 3.786 3.786 0 0 1-1.958-4.546H14.5a3.125 3.125 0 0 1-3.032-3.882l1.25-5.008.052-.174A2.125 2.125 0 0 1 14.78.875H21c1.173 0 2.123.952 2.123 2.126v6.795ZM3.112 8.84A2.013 2.013 0 0 1 5.516 8l.19.08.327.177a3.787 3.787 0 0 1 1.632 4.368h1.834a3.125 3.125 0 0 1 3.032 3.882l-1.25 5.008a2.126 2.126 0 0 1-2.062 1.61H3A2.126 2.126 0 0 1 .875 21v-6.796c0-.466.105-.927.306-1.347l1.831-3.834.1-.183Zm.013 12.035h5.996l1.227-4.913.02-.102a.876.876 0 0 0-.87-.985H6a1.126 1.126 0 0 1-1.04-1.556l.515-1.243a1.538 1.538 0 0 0-.544-1.852L3.21 13.826a.878.878 0 0 0-.085.378v6.671Z"/>
</svg>
