<svg xmlns="http://www.w3.org/2000/svg" width="24" height="24" fill="none" viewBox="0 0 24 24">
  <path fill="#888" d="m5.125 20.25 1-.75a3.125 3.125 0 0 1 3.75 0l1.6 1.2a.876.876 0 0 0 1.05 0l1.6-1.2.213-.146a3.124 3.124 0 0 1 3.537.146l1 .749V3.125H5.125V20.25Zm16 .25c0 1.696-1.876 2.687-3.267 1.793l-.133-.093-1.2-.9a.876.876 0 0 0-1.05 0l-1.6 1.2a3.126 3.126 0 0 1-3.75 0l-1.6-1.2a.875.875 0 0 0-1.05 0l-1.2.9c-1.401 1.05-3.4.05-3.4-1.7V3.125H2a1.125 1.125 0 0 1 0-2.25h20l.115.006a1.125 1.125 0 0 1 0 2.238L22 3.125h-.875V20.5Z"/>
  <path fill="#888" d="M15.997 13.876a1.125 1.125 0 1 1 .005 2.25l-3.999.008a1.125 1.125 0 0 1-.005-2.25l3.999-.008Zm0-4.001a1.125 1.125 0 0 1 .005 2.25l-3.999.01-.115-.006a1.125 1.125 0 0 1 .11-2.244l3.999-.01Zm0-4a1.126 1.126 0 0 1 .005 2.25l-3.999.01-.115-.006a1.124 1.124 0 0 1 .11-2.244l3.999-.01Zm6.003-5a1.125 1.125 0 0 1 0 2.25H2a1.125 1.125 0 0 1 0-2.25h20ZM9.375 15.005a1.376 1.376 0 0 1-2.743.14l-.007-.14.007-.14A1.376 1.376 0 0 1 8 13.628l.14.008c.694.07 1.235.656 1.235 1.368Zm0-4a1.376 1.376 0 0 1-2.743.14l-.007-.14.007-.141A1.375 1.375 0 0 1 8 9.63l.14.008c.694.07 1.235.655 1.235 1.366Zm0-4a1.375 1.375 0 0 1-2.743.141l-.007-.14.007-.141A1.375 1.375 0 0 1 8 5.63l.14.007c.694.07 1.235.656 1.235 1.368Z"/>
</svg>
