<svg xmlns="http://www.w3.org/2000/svg" width="24" height="24" fill="none" viewBox="0 0 24 24">
  <path fill="#888" d="M12 1c1.306 0 2.414.835 2.826 2H18.5a1 1 0 1 1 0 2h-3.674A3.002 3.002 0 0 1 13 6.825V21h5.5a1 1 0 1 1 0 2h-13a1 1 0 1 1 0-2H11V6.825A3.002 3.002 0 0 1 9.174 5H5.5a1 1 0 0 1 0-2h3.674c.412-1.165 1.52-2 2.826-2Zm0 2a1 1 0 1 0 0 2 1 1 0 0 0 0-2Z"/>
  <path fill="#888" d="M3.674 7.568c.555-1.065 2.097-1.065 2.652 0l.053.11 2.54 5.928A1 1 0 0 1 9 14c0 1.735-1.309 4-4 4s-4-2.265-4-4a1 1 0 0 1 .081-.394l2.54-5.928.053-.11Zm14 0c.555-1.065 2.097-1.065 2.652 0l.053.11 2.54 5.928A.998.998 0 0 1 23 14c0 1.735-1.309 4-4 4s-4-2.265-4-4c0-.136.028-.27.081-.394l2.54-5.928.053-.11ZM3.009 14.183C3.093 15.066 3.777 16 5 16s1.906-.934 1.99-1.817L5 9.54l-1.991 4.644Zm14 0C17.093 15.066 17.777 16 19 16s1.906-.934 1.99-1.817L19 9.54l-1.991 4.644Z"/>
</svg>
