<svg xmlns="http://www.w3.org/2000/svg" width="24" height="24" fill="none" viewBox="0 0 24 24">
  <path fill="#888" d="M12 1c1.052 0 1.975.542 2.51 1.361l3.773-.838.1-.016a1 1 0 0 1 .334 1.97l-3.733.829A2.999 2.999 0 0 1 13 6.826V21h5.5a1 1 0 1 1 0 2h-13a1 1 0 1 1 0-2H11V6.825a3.003 3.003 0 0 1-1.512-1.187l-3.771.839a1 1 0 0 1-.434-1.954l3.732-.83A3.001 3.001 0 0 1 12 1Zm0 2a1 1 0 1 0 0 2 1 1 0 0 0 0-2Z"/>
  <path fill="#888" d="M3.674 8.568c.555-1.065 2.097-1.065 2.652 0l.053.11 2.54 5.928A1 1 0 0 1 9 15c0 1.735-1.309 4-4 4s-4-2.265-4-4a1 1 0 0 1 .081-.394l2.54-5.928.053-.11Zm-.665 6.615C3.093 16.066 3.777 17 5 17s1.906-.934 1.99-1.817L5 10.54l-1.991 4.644Zm14.665-9.615c.555-1.065 2.097-1.065 2.652 0l.053.11 2.54 5.928A.998.998 0 0 1 23 12c0 1.735-1.309 4-4 4s-4-2.265-4-4c0-.136.028-.27.081-.394l2.54-5.928.053-.11Zm-.665 6.615C17.093 13.066 17.777 14 19 14s1.906-.934 1.99-1.817L19 7.54l-1.991 4.644Z"/>
</svg>
