<svg xmlns="http://www.w3.org/2000/svg" width="24" height="24" fill="none" viewBox="0 0 24 24">
  <path fill="#888" d="M4.133 4.133c4.344-4.345 11.39-4.345 15.734 0 4.344 4.344 4.344 11.39 0 15.734-3.477 3.477-8.68 4.17-12.847 2.084l-3.17.762c-1.543.37-2.933-1.02-2.563-2.562l.76-3.173C-.037 12.812.657 7.609 4.133 4.133Zm14.143 1.592a8.875 8.875 0 0 0-12.55 0 8.878 8.878 0 0 0-1.5 10.562c.136.245.175.534.109.807l-.813 3.382 3.385-.811.207-.03c.207-.01.415.038.599.14a8.875 8.875 0 0 0 10.563-14.05Z"/>
  <path fill="#888" d="M10.876 12V8a1.125 1.125 0 0 1 2.25 0v4a1.126 1.126 0 0 1-2.25 0Zm2.499 3.99a1.374 1.374 0 0 1-2.743.14l-.007-.14.007-.14a1.375 1.375 0 0 1 1.369-1.235l.14.008c.693.07 1.234.656 1.234 1.368Z"/>
</svg>
