<svg xmlns="http://www.w3.org/2000/svg" width="24" height="24" fill="none" viewBox="0 0 24 24">
  <path fill="#888" d="M4.133 4.133c4.344-4.345 11.39-4.345 15.734 0 4.344 4.344 4.344 11.39 0 15.734-3.477 3.477-8.68 4.17-12.847 2.084l-3.17.762c-1.543.37-2.933-1.02-2.563-2.562l.76-3.173C-.037 12.812.657 7.609 4.133 4.133Zm14.143 1.592a8.875 8.875 0 0 0-12.55 0 8.878 8.878 0 0 0-1.5 10.562c.136.245.175.534.109.807l-.813 3.382 3.385-.811.207-.03c.207-.01.415.038.599.14a8.875 8.875 0 0 0 10.563-14.05Z"/>
  <path fill="#888" d="M9.503 17.506a1.125 1.125 0 0 1-1.006-2.012l1.006 2.012ZM10.876 7.5a1.125 1.125 0 0 1 2.25 0v.287H16l.115.006a1.125 1.125 0 0 1 0 2.238l-.115.006h-.47a11.618 11.618 0 0 1-1.779 3.763c.142.085.276.16.4.223a1.126 1.126 0 0 1-1.006 2.013 9.034 9.034 0 0 1-.873-.512c-.84.81-1.778 1.487-2.769 1.982L9.001 16.5l-.504-1.006a8.93 8.93 0 0 0 1.982-1.374 10.762 10.762 0 0 1-1.323-1.462l-.21-.3-.058-.097a1.126 1.126 0 0 1 1.862-1.242l.068.092.162.228c.278.377.621.747.987 1.092a9.526 9.526 0 0 0 1.217-2.394H8a1.125 1.125 0 0 1 0-2.25h2.876V7.5Z"/>
</svg>
