<svg xmlns="http://www.w3.org/2000/svg" width="24" height="24" fill="none" viewBox="0 0 24 24">
  <path fill="#888" d="M20.875 12.354V5c0-1.036-.84-1.875-1.875-1.875H5c-1.036 0-1.875.84-1.875 1.875v10c0 1.036.84 1.875 1.875 1.875h7l.115.006a1.126 1.126 0 0 1 0 2.239l-.114.005H5a4.125 4.125 0 0 1-4.125-4.124V5A4.125 4.125 0 0 1 5 .875h14A4.125 4.125 0 0 1 23.125 5v7.354a1.125 1.125 0 0 1-2.25 0Z"/>
  <path fill="#888" d="M17.875 15a1.125 1.125 0 0 1 2.25 0v3.285l1.08-1.08a1.125 1.125 0 1 1 1.59 1.59l-3 3a1.126 1.126 0 0 1-1.59 0l-3-3-.077-.086a1.124 1.124 0 0 1 1.582-1.582l.085.078 1.08 1.08V15Zm3-10c0-1.036-.84-1.875-1.875-1.875H5c-1.036 0-1.875.84-1.875 1.875v.318c0 .319.174.612.453.766l7.519 4.135c.562.31 1.245.31 1.807 0l7.518-4.135.1-.064a.874.874 0 0 0 .353-.702V5Zm2.25.318a3.125 3.125 0 0 1-1.436 2.63l-.183.108-7.518 4.135a4.125 4.125 0 0 1-3.74.119l-.235-.12-7.52-4.134A3.125 3.125 0 0 1 .876 5.318V5A4.125 4.125 0 0 1 5 .875h14A4.125 4.125 0 0 1 23.125 5v.318Z"/>
</svg>
