<svg xmlns="http://www.w3.org/2000/svg" width="24" height="24" fill="none" viewBox="0 0 24 24">
  <path fill="#888" d="M20.875 11.872V5c0-1.036-.84-1.875-1.875-1.875H5c-1.036 0-1.875.84-1.875 1.875v10c0 1.036.84 1.875 1.875 1.875h6.01l.114.006a1.126 1.126 0 0 1 0 2.239l-.114.005H5a4.125 4.125 0 0 1-4.125-4.124V5A4.125 4.125 0 0 1 5 .875h14A4.125 4.125 0 0 1 23.125 5v6.872a1.125 1.125 0 0 1-2.25 0Z"/>
  <path fill="#888" d="M20.875 18.5a2.374 2.374 0 0 0-3.058-2.275l2.956 2.956c.065-.216.102-.444.102-.681Zm0-13.5c0-1.036-.84-1.875-1.875-1.875H5c-1.036 0-1.875.84-1.875 1.875v.318c0 .319.174.612.453.766l7.519 4.135.215.101c.515.204 1.1.17 1.592-.1l7.518-4.136.1-.064a.874.874 0 0 0 .353-.702V5Zm-4.75 13.5a2.374 2.374 0 0 0 3.056 2.273l-2.956-2.956c-.065.217-.1.446-.1.683Zm7 0a4.624 4.624 0 1 1-9.249 0 4.624 4.624 0 0 1 9.249 0Zm0-13.182c0 1.14-.62 2.189-1.62 2.738l-7.517 4.135a4.126 4.126 0 0 1-3.975 0l-7.52-4.135A3.125 3.125 0 0 1 .876 5.318V5A4.125 4.125 0 0 1 5 .875h14A4.125 4.125 0 0 1 23.125 5v.318Z"/>
</svg>
