<svg xmlns="http://www.w3.org/2000/svg" width="24" height="24" fill="none" viewBox="0 0 24 24">
  <path fill="#888" d="M20.875 10c0-1.035-.84-1.875-1.875-1.875H9c-1.035 0-1.875.84-1.875 1.876V18c0 1.035.84 1.875 1.875 1.875h10c1.035 0 1.875-.84 1.875-1.875v-8Zm-20 9v-9A8.126 8.126 0 0 1 9 1.876h9l.115.006a1.125 1.125 0 0 1 0 2.238L18 4.125H9a5.876 5.876 0 0 0-5.876 5.876v9a1.125 1.125 0 0 1-2.25 0Zm22.25-1A4.125 4.125 0 0 1 19 22.125H9A4.125 4.125 0 0 1 4.875 18v-8A4.125 4.125 0 0 1 9 5.876h10a4.125 4.125 0 0 1 4.125 4.126V18Z"/>
  <path fill="#888" d="M20.875 9.92c0-.99-.804-1.795-1.795-1.795H8.92c-.99 0-1.795.804-1.795 1.796 0 .283.146.547.387.697l5.494 3.434c.608.38 1.38.38 1.988 0l5.495-3.434.085-.061a.822.822 0 0 0 .301-.636Zm2.25 0c0 .994-.48 1.92-1.28 2.495l-.164.11-5.495 3.435a4.125 4.125 0 0 1-4.117.147l-.255-.147-5.495-3.435a3.072 3.072 0 0 1-1.444-2.604 4.046 4.046 0 0 1 4.046-4.046H19.08a4.046 4.046 0 0 1 4.046 4.046Z"/>
</svg>
