<svg xmlns="http://www.w3.org/2000/svg" width="24" height="24" fill="none" viewBox="0 0 24 24">
  <path fill="#888" d="M20.875 12.502V5c0-1.036-.84-1.875-1.875-1.875H5c-1.036 0-1.875.84-1.875 1.875v10c0 1.036.84 1.875 1.875 1.875h6.63l.114.006a1.126 1.126 0 0 1 0 2.239l-.114.005H5a4.125 4.125 0 0 1-4.125-4.124V5A4.125 4.125 0 0 1 5 .875h14A4.125 4.125 0 0 1 23.125 5v7.502a1.125 1.125 0 0 1-2.25 0Z"/>
  <path fill="#888" d="M21.204 15.705a1.125 1.125 0 1 1 1.59 1.59l-4.5 4.5a1.126 1.126 0 0 1-1.59 0l-2-2-.077-.085a1.126 1.126 0 0 1 1.583-1.582l.085.076 1.204 1.204 3.705-3.703ZM20.874 5A1.874 1.874 0 0 0 19 3.125H5c-1.036 0-1.875.84-1.875 1.875v.318c0 .319.174.612.453.766l7.519 4.135c.562.31 1.245.31 1.807 0l7.518-4.135.1-.064a.874.874 0 0 0 .353-.702V5Zm2.25.318a3.125 3.125 0 0 1-1.435 2.63l-.183.108-7.518 4.135a4.125 4.125 0 0 1-3.74.119l-.235-.12-7.52-4.134A3.125 3.125 0 0 1 .876 5.318V5A4.125 4.125 0 0 1 5 .875h14A4.125 4.125 0 0 1 23.125 5v.318Z"/>
</svg>
