<svg xmlns="http://www.w3.org/2000/svg" width="24" height="24" fill="none" viewBox="0 0 24 24">
  <path fill="#888" d="M20.875 15v-.845c0-.465-.066-.927-.197-1.371l-.152-.44-2.816-7.04a1.877 1.877 0 0 0-1.741-1.179H8.03c-.767 0-1.456.467-1.74 1.18l-2.817 7.04a4.88 4.88 0 0 0-.349 1.81V15a1.125 1.125 0 0 1-2.25 0v-.845c0-.906.173-1.804.51-2.646l2.817-7.041.127-.287A4.125 4.125 0 0 1 8.03 1.875h7.938a4.126 4.126 0 0 1 3.83 2.593l2.816 7.041c.336.842.51 1.74.51 2.646V15a1.125 1.125 0 0 1-2.25 0Z"/>
  <path fill="#888" d="M20.875 15a.875.875 0 0 0-.875-.876h-2.121l-.598 2.391a2.126 2.126 0 0 1-2.062 1.61H8.78a2.125 2.125 0 0 1-2.01-1.436l-.051-.174-.598-2.39H4a.875.875 0 0 0-.875.875v3c0 1.036.84 1.875 1.875 1.875h14c1.035 0 1.874-.84 1.875-1.875v-3Zm-4.876-6.125.116.005a1.125 1.125 0 0 1 0 2.239l-.115.005H8a1.125 1.125 0 0 1 0-2.25h8Zm-1.5-3.5.116.006a1.125 1.125 0 0 1 0 2.238l-.116.006H9.5a1.125 1.125 0 0 1 0-2.25h5ZM23.125 18A4.125 4.125 0 0 1 19 22.125H5A4.125 4.125 0 0 1 .875 18v-3A3.125 3.125 0 0 1 4 11.874h2.219c.914 0 1.72.584 2.011 1.436l.051.174.598 2.391h6.243l.598-2.39.051-.175a2.125 2.125 0 0 1 2.01-1.436H20c1.726 0 3.125 1.4 3.125 3.126v3Z"/>
</svg>
