<svg xmlns="http://www.w3.org/2000/svg" width="24" height="24" fill="none" viewBox="0 0 24 24">
  <path fill="#888" d="M20.875 6c0-1.036-.84-1.875-1.875-1.875H5c-1.036 0-1.875.84-1.875 1.875v10c0 1.036.84 1.875 1.875 1.875h2c.62 0 1.125.504 1.125 1.125v1.77l3.534-2.25a4.125 4.125 0 0 1 2.215-.645H19c1.035 0 1.874-.84 1.875-1.875V6Zm2.25 10A4.125 4.125 0 0 1 19 20.125h-5.126c-.268 0-.531.056-.773.166l-.233.128L9.14 22.79c-1.414.9-3.266-.115-3.266-1.791v-.873H5A4.125 4.125 0 0 1 .875 16V6A4.125 4.125 0 0 1 5 1.875h14A4.125 4.125 0 0 1 23.125 6v10Z"/>
  <path fill="#888" d="M15.705 7.205a1.125 1.125 0 1 1 1.59 1.59l-6 6c-.439.44-1.151.44-1.59 0l-3-3-.078-.085a1.125 1.125 0 0 1 1.583-1.583l.085.078 2.205 2.204 5.205-5.204Z"/>
</svg>
