<svg xmlns="http://www.w3.org/2000/svg" width="24" height="24" fill="none" viewBox="0 0 24 24">
  <path fill="#888" d="M.875 16V6A4.125 4.125 0 0 1 5 1.875h8.175l.116.006a1.125 1.125 0 0 1 0 2.238l-.116.006H5c-1.036 0-1.875.84-1.875 1.875v10c0 1.036.84 1.875 1.875 1.875h2c.62 0 1.125.504 1.125 1.125v1.77l3.534-2.25a4.125 4.125 0 0 1 2.215-.645H19c1.035 0 1.874-.84 1.875-1.875v-5.482a1.125 1.125 0 0 1 2.25 0V16A4.125 4.125 0 0 1 19 20.125h-5.126c-.268 0-.531.056-.773.166l-.233.128L9.14 22.79c-1.414.9-3.266-.115-3.266-1.791v-.873H5A4.125 4.125 0 0 1 .875 16Z"/>
  <path fill="#888" d="M16 10.628a.62.62 0 0 0-.124.372l.011.126a.62.62 0 0 0 .113.245v-.743Zm1 .743a.62.62 0 0 0 0-.743v.743ZM12.625 11a.62.62 0 0 0-.124-.372v.743a.62.62 0 0 0 .124-.371Zm-1.125-.372a.62.62 0 0 0-.124.372l.011.126a.62.62 0 0 0 .113.245v-.743ZM8.125 11A.62.62 0 0 0 8 10.628v.743A.62.62 0 0 0 8.125 11ZM7 10.628a.62.62 0 0 0-.125.372l.012.126a.62.62 0 0 0 .113.245v-.743ZM20.875 4.5a1.376 1.376 0 1 0-2.752.001 1.376 1.376 0 0 0 2.752 0ZM9.125 11A1.625 1.625 0 1 1 7.5 9.375l.167.008A1.625 1.625 0 0 1 9.125 11Zm4.5 0A1.625 1.625 0 1 1 12 9.375l.167.008c.82.083 1.46.776 1.46 1.617Zm4.5 0A1.625 1.625 0 1 1 16.5 9.375l.166.008c.82.083 1.46.776 1.46 1.617Zm5-6.5a3.625 3.625 0 1 1-7.25-.001 3.625 3.625 0 0 1 7.25.001Z"/>
</svg>
