<svg xmlns="http://www.w3.org/2000/svg" width="24" height="24" fill="none" viewBox="0 0 24 24">
  <path fill="#888" d="M.875 12C.875 5.857 5.856.876 12.001.876c.5 0 .992.032 1.476.097l.48.074.113.027a1.126 1.126 0 0 1-.392 2.203l-.115-.013-.382-.06a8.876 8.876 0 1 0 7.557 7.233l1.108-.196 1.107-.198a11.2 11.2 0 0 1 .172 1.959c0 6.143-4.98 11.123-11.124 11.124C5.856 23.125.875 18.145.875 12Zm20.774-2.868a1.124 1.124 0 0 1 1.304.91l-2.215.394c-.108-.612.3-1.195.911-1.304Z"/>
  <path fill="#888" d="M7.625 16v-5.007c-.193.057-.392.1-.598.118l-.293.013H6.5a1.125 1.125 0 0 1 0-2.25h.234l.162-.014a.875.875 0 0 0 .707-.752l.03-.247A1.126 1.126 0 0 1 9.876 8v8a1.125 1.125 0 0 1-2.25 0Zm7.75-2.5a1.125 1.125 0 0 0-2.25 0v.25a1.125 1.125 0 0 0 2.25 0v-.25Zm3-6.5V5.625H17a1.125 1.125 0 0 1 0-2.25h1.375V2a1.125 1.125 0 0 1 2.25 0v1.375H22a1.125 1.125 0 0 1 0 2.25h-1.375V7a1.125 1.125 0 0 1-2.25 0Zm-.75 6.75a3.375 3.375 0 0 1-6.75 0v-3.5a3.383 3.383 0 0 1 3.376-3.375c1.098 0 2.152.53 2.805 1.37l.126.172.058.099a1.124 1.124 0 0 1-1.851 1.256l-.07-.092-.092-.116a1.354 1.354 0 0 0-.976-.439c-.62 0-1.125.515-1.125 1.125v.07a3.375 3.375 0 0 1 4.5 3.18v.25Z"/>
</svg>
