<svg xmlns="http://www.w3.org/2000/svg" width="24" height="24" fill="none" viewBox="0 0 24 24">
  <path fill="#888" d="M19.875 6c0-1.036-.84-1.875-1.875-1.875H6c-1.036 0-1.875.84-1.875 1.875v12c0 1.035.84 1.875 1.875 1.875h12c1.035 0 1.875-.84 1.875-1.875V6Zm2.25 12A4.125 4.125 0 0 1 18 22.125H6A4.125 4.125 0 0 1 1.875 18V6A4.125 4.125 0 0 1 6 1.875h12A4.125 4.125 0 0 1 22.125 6v12Z"/>
  <path fill="#888" d="M16 16.129a.62.62 0 0 0-.124.37l.011.127c.019.09.06.172.113.244v-.741Zm1 .741a.618.618 0 0 0 .112-.245l.013-.125-.013-.127A.62.62 0 0 0 17 16.13v.741ZM7 7.13a.62.62 0 0 0-.125.37l.012.126A.62.62 0 0 0 7 7.87v-.74Zm1 .741a.619.619 0 0 0 .112-.245l.013-.125-.013-.126A.62.62 0 0 0 8 7.129v.741Zm10.125 8.63a1.625 1.625 0 0 1-3.242.167l-.008-.168.009-.165a1.625 1.625 0 0 1 1.616-1.459l.166.009c.82.083 1.46.774 1.46 1.616Zm-9-9a1.625 1.625 0 0 1-3.242.167L5.876 7.5l.009-.166A1.625 1.625 0 0 1 7.5 5.875l.167.009A1.624 1.624 0 0 1 9.125 7.5Z"/>
</svg>
