<svg xmlns="http://www.w3.org/2000/svg" width="24" height="24" fill="none" viewBox="0 0 24 24">
  <path fill="#888" d="M15.375 15.5A3.375 3.375 0 0 0 12 12.127h-.1a1.125 1.125 0 0 1 0-2.25h.2a2.376 2.376 0 1 0 0-4.75h-.2a2.373 2.373 0 0 0-2.147 1.357L7.72 5.518a4.625 4.625 0 0 1 4.18-2.643h.199A4.626 4.626 0 0 1 16.726 7.5a4.609 4.609 0 0 1-1.495 3.396A5.625 5.625 0 0 1 12 21.125c-2.288 0-4.52-1.388-5.41-3.464l-.16-.423-.03-.111a1.125 1.125 0 0 1 2.128-.693l.041.107.091.24c.513 1.183 1.878 2.095 3.34 2.095a3.375 3.375 0 0 0 3.375-3.376ZM9.753 6.484a1.125 1.125 0 0 1-2.032-.965l2.032.965Z"/>
</svg>
