<svg xmlns="http://www.w3.org/2000/svg" width="24" height="24" fill="none" viewBox="0 0 24 24">
  <path fill="#888" d="M19.875 6c0-1.036-.84-1.875-1.875-1.875H6c-1.036 0-1.875.84-1.875 1.875v12c0 1.035.84 1.875 1.875 1.875h12c1.035 0 1.875-.84 1.875-1.875V6Zm2.25 12A4.125 4.125 0 0 1 18 22.125H6A4.125 4.125 0 0 1 1.875 18V6A4.125 4.125 0 0 1 6 1.875h12A4.125 4.125 0 0 1 22.125 6v12Z"/>
  <path fill="#888" d="M13.125 13.5a1.125 1.125 0 0 0-2.25 0v.25a1.125 1.125 0 0 0 2.25 0v-.25Zm2.25.25a3.375 3.375 0 1 1-6.75 0v-3.5A3.383 3.383 0 0 1 12 6.875c1.172 0 2.294.603 2.931 1.542A1.124 1.124 0 0 1 13.07 9.68 1.34 1.34 0 0 0 12 9.125c-.62 0-1.125.515-1.125 1.125v.07a3.375 3.375 0 0 1 4.5 3.18v.25Z"/>
</svg>
