<svg xmlns="http://www.w3.org/2000/svg" width="24" height="24" fill="none" viewBox="0 0 24 24">
  <path fill="#888" d="M19.875 6c0-1.036-.84-1.875-1.875-1.875H6c-1.036 0-1.875.84-1.875 1.875v12c0 1.035.84 1.875 1.875 1.875h12c1.035 0 1.875-.84 1.875-1.875V6Zm2.25 12A4.125 4.125 0 0 1 18 22.125H6A4.125 4.125 0 0 1 1.875 18V6A4.125 4.125 0 0 1 6 1.875h12A4.125 4.125 0 0 1 22.125 6v12Z"/>
  <path fill="#888" d="M13.125 10.25a1.125 1.125 0 0 0-2.25 0v.25a1.125 1.125 0 0 0 2.25 0v-.25Zm-3.756 3.77a1.125 1.125 0 0 1 1.562.3l-1.862 1.264a1.126 1.126 0 0 1 .3-1.563Zm6.006-.27A3.383 3.383 0 0 1 12 17.124a3.587 3.587 0 0 1-2.931-1.541l.931-.632.93-.633c.218.32.642.555 1.07.555.62 0 1.125-.514 1.125-1.125v-.071a3.38 3.38 0 0 1-1.125.197A3.375 3.375 0 0 1 8.625 10.5v-.251a3.375 3.375 0 1 1 6.75 0v3.5Z"/>
</svg>
