<svg xmlns="http://www.w3.org/2000/svg" width="24" height="24" fill="none" viewBox="0 0 24 24">
  <path fill="#888" d="M19.875 6c0-1.036-.84-1.875-1.875-1.875H6c-1.036 0-1.875.84-1.875 1.875v12c0 1.035.84 1.875 1.875 1.875h12c1.035 0 1.875-.84 1.875-1.875V6Zm2.25 12A4.125 4.125 0 0 1 18 22.125H6A4.125 4.125 0 0 1 1.875 18V6A4.125 4.125 0 0 1 6 1.875h12A4.125 4.125 0 0 1 22.125 6v12Z"/>
  <path fill="#888" d="M9.401 13.374a1.126 1.126 0 0 1 1.377.614l.041.109.065.146c.188.339.626.631 1.116.631.629 0 1.125-.496 1.125-1.125v-.499c0-.61-.505-1.125-1.125-1.125-.662 0-1.103.309-1.748.631a1.125 1.125 0 0 1-1.624-1.08l.233-3.518v-.006l.016-.133c.11-.654.68-1.144 1.356-1.144h3.518l.114.006a1.125 1.125 0 0 1 0 2.238l-.114.006h-2.699l-.06.877A4.23 4.23 0 0 1 12 9.875c1.88 0 3.375 1.54 3.375 3.375v.5A3.366 3.366 0 0 1 12 17.124c-1.35 0-2.684-.813-3.223-2.075l-.096-.258-.031-.11a1.126 1.126 0 0 1 .751-1.308Z"/>
</svg>
