<svg xmlns="http://www.w3.org/2000/svg" width="24" height="24" fill="none" viewBox="0 0 24 24">
  <path fill="#888" d="M20.875 12a8.875 8.875 0 1 0-17.75 0 8.875 8.875 0 0 0 17.75 0Zm2.25 0c0 6.144-4.98 11.124-11.124 11.125C5.856 23.125.875 18.145.875 12 .875 5.856 5.856.875 12.001.875c6.143 0 11.124 4.981 11.124 11.126Z"/>
  <path fill="#888" d="M12.126 16v-.626H9.5a1.374 1.374 0 0 1-1.174-2.088l3.5-5.75.149-.204c.796-.916 2.4-.384 2.4.919v4.873h.376l.115.006a1.126 1.126 0 0 1 0 2.24l-.115.004h-.375V16a1.125 1.125 0 0 1-2.25 0Zm-1.068-2.876h1.068v-1.753l-1.068 1.753Z"/>
</svg>
