<svg xmlns="http://www.w3.org/2000/svg" width="24" height="24" fill="none" viewBox="0 0 24 24">
  <path fill="#888" d="M5.375 22v-1.5a1.126 1.126 0 0 1 2.25 0V22a1.125 1.125 0 0 1-2.25 0Zm11 0v-1.5a1.126 1.126 0 0 1 2.25 0V22a1.125 1.125 0 0 1-2.25 0Zm-13.5-10.5V4.4a3.526 3.526 0 0 1 6.593-1.737l.532.94 1.948.833a1.125 1.125 0 0 1 .122 2.008l-2.599 1.5a1.125 1.125 0 0 1-1.679-1.109l.254-2.115-.536-.948a1.275 1.275 0 0 0-2.385.629v7.098a1.125 1.125 0 0 1-2.25 0Z"/>
  <path fill="#888" d="m22 10.375.115.006a1.125 1.125 0 0 1 0 2.238l-.115.006h-.047l-.785 4.718a5.126 5.126 0 0 1-5.057 4.282H7.889a5.125 5.125 0 0 1-5.056-4.282l-.786-4.718H2a1.125 1.125 0 0 1 0-2.25h20ZM5.053 16.973a2.875 2.875 0 0 0 2.836 2.402h8.222a2.875 2.875 0 0 0 2.836-2.402l.725-4.348H4.328l.725 4.348Z"/>
</svg>
