<svg xmlns="http://www.w3.org/2000/svg" width="24" height="24" fill="none" viewBox="0 0 24 24">
  <path fill="#888" d="M4.977 13.375a1.126 1.126 0 0 1 1.774 1.382l-3.495 4.992a.719.719 0 0 0 .175 1l.128.07a.717.717 0 0 0 .872-.245l3.502-4.99.072-.09a1.125 1.125 0 0 1 1.77 1.382l-3.503 4.991a2.968 2.968 0 0 1-3.875.886l-.256-.16a2.97 2.97 0 0 1-.73-4.135l3.496-4.992.07-.09ZM15.89 4.53a1.375 1.375 0 1 1-1.507 1.509l-.008-.14.008-.141a1.374 1.374 0 0 1 1.366-1.235l.141.007Z"/>
  <path fill="#888" d="M12.956 1.995a3.23 3.23 0 0 1 4.295-.531l4.947 3.464a2.151 2.151 0 0 1 .756 2.597l-.09.186a64.126 64.126 0 0 1-3.735 6.08 62.977 62.977 0 0 1-3.596 4.628l-.836.961a2.149 2.149 0 0 1-2.844.324l-6.67-4.671a1.125 1.125 0 0 1-.276-1.567l7.846-11.208.203-.263Zm3.005 1.311a.98.98 0 0 0-1.235.091l-.129.15-7.203 10.287 5.681 3.979a61.658 61.658 0 0 0 4.212-5.313 61.762 61.762 0 0 0 3.553-5.777l-4.88-3.417Z"/>
</svg>
