<svg xmlns="http://www.w3.org/2000/svg" width="24" height="24" fill="none" viewBox="0 0 24 24">
  <path fill="#888" d="M19.876 7c0-1.733-1.201-2.875-2.376-2.875-1.175 0-2.375 1.142-2.375 2.875 0 1.734 1.2 2.874 2.375 2.875 1.175 0 2.375-1.141 2.376-2.875Zm2.25 0c0 2.293-1.413 4.406-3.501 4.974V21a1.125 1.125 0 0 1-2.25 0v-9.026c-2.088-.569-3.5-2.68-3.5-4.974 0-2.684 1.934-5.125 4.625-5.125 2.69 0 4.626 2.44 4.626 5.125ZM5.184 21v-8.957a4.125 4.125 0 0 1-3.297-4.3l.3-4.813a1.125 1.125 0 1 1 2.246.14l-.3 4.812a1.875 1.875 0 0 0 1.87 1.993h.614a1.875 1.875 0 0 0 1.87-1.993l-.3-4.812-.001-.115a1.126 1.126 0 0 1 2.234-.14l.013.115.3 4.813a4.125 4.125 0 0 1-3.299 4.3V21a1.125 1.125 0 0 1-2.25 0Zm0-13.5V3a1.126 1.126 0 0 1 2.25 0v4.5a1.125 1.125 0 0 1-2.25 0Z"/>
</svg>
