<svg xmlns="http://www.w3.org/2000/svg" width="24" height="24" fill="none" viewBox="0 0 24 24">
  <path fill="#888" d="M2.875 18V8.44a1.125 1.125 0 0 1 2.25 0V18c0 1.035.84 1.875 1.875 1.875h10c1.036 0 1.876-.84 1.876-1.875V8.44a1.125 1.125 0 1 1 2.25 0V18A4.125 4.125 0 0 1 17 22.125H7A4.125 4.125 0 0 1 2.874 18Z"/>
  <path fill="#888" d="M13.876 11.5a.375.375 0 0 0-.375-.374h-3a.375.375 0 0 0-.375.375v3c0 .207.168.375.375.375h3a.376.376 0 0 0 .375-.375v-3ZM9.749 2.549a4.126 4.126 0 0 1 4.789.205l8.155 6.36a1.126 1.126 0 0 1-1.385 1.774l-8.155-6.36a1.876 1.876 0 0 0-2.176-.094l-.13.094-8.155 6.36-.094.066a1.126 1.126 0 0 1-1.29-1.84l8.156-6.36.285-.205ZM16.126 14.5a2.626 2.626 0 0 1-2.625 2.625h-3A2.626 2.626 0 0 1 7.876 14.5v-3A2.625 2.625 0 0 1 10.5 8.876h3a2.625 2.625 0 0 1 2.625 2.625v3Z"/>
</svg>
