<svg xmlns="http://www.w3.org/2000/svg" width="24" height="24" fill="none" viewBox="0 0 24 24">
  <path fill="#888" d="m17.5 20.875.115.006a1.125 1.125 0 0 1 0 2.238l-.115.006h-12a1.125 1.125 0 0 1 0-2.25h12Zm-9.049-10.5c1.506 0 2.488.289 3.365.545.833.244 1.561.456 2.733.456a9.166 9.166 0 0 0 2.643-.374 1.124 1.124 0 0 1 .67 2.147c-.524.164-1.73.477-3.313.477-1.506 0-2.487-.29-3.364-.547-.833-.244-1.562-.454-2.734-.454a9.174 9.174 0 0 0-2.632.37 1.126 1.126 0 0 1-.665-2.15c.53-.164 1.73-.47 3.297-.47Z"/>
  <path fill="#888" d="M6.733 10.423c.008.115.001.231-.028.347l-.412 5.16a.876.876 0 0 0 .873.945h8.668c.51 0 .912-.436.872-.944l-.745-9.306H7.038l-.305 3.798Zm14.142 4.076v-6c0-1.035-.84-1.874-1.875-1.874h-.781l.73 9.126a3.125 3.125 0 0 1-3.115 3.374H7.166a3.126 3.126 0 0 1-3.115-3.374l.363-4.56C3.4 10.69 2.564 10.056 1.958 9.22 1.195 8.17.875 6.92.875 5.5c0-.62.504-1.124 1.125-1.124h3.333l.007-.014a7.853 7.853 0 0 1 1.115-1.406C7.487 1.922 9.134.875 11.499.875c2.366 0 4.014 1.047 5.047 2.08a7.837 7.837 0 0 1 1.113 1.406l.008.014h1.332A4.125 4.125 0 0 1 23.126 8.5v6a1.125 1.125 0 0 1-2.25 0ZM3.232 6.625c.107.51.294.924.546 1.272.208.286.48.555.835.809l.169-2.081h-1.55Zm8.267-3.5c-1.5 0-2.552.597-3.269 1.25h6.539c-.717-.653-1.768-1.25-3.27-1.25Z"/>
</svg>
