<svg xmlns="http://www.w3.org/2000/svg" width="24" height="24" fill="none" viewBox="0 0 24 24">
  <path fill="#888" d="M7.375 14v-1a1.125 1.125 0 0 1 2.25 0v1a1.125 1.125 0 0 1-2.25 0ZM19 8.874l.115.006a1.125 1.125 0 0 1 0 2.239l-.115.006H5a1.125 1.125 0 0 1 0-2.25h14ZM7.375 7V6a1.125 1.125 0 0 1 2.25 0v1a1.125 1.125 0 0 1-2.25 0Z"/>
  <path fill="#888" d="M17.875 5c0-1.036-.84-1.875-1.876-1.875H8c-1.036 0-1.875.84-1.875 1.875v14c0 1.035.84 1.875 1.875 1.875h8c1.035 0 1.875-.84 1.875-1.875V5Zm2.25 14a4.125 4.125 0 0 1-4.126 4.125H8A4.125 4.125 0 0 1 3.875 19V5A4.125 4.125 0 0 1 8 .875h8A4.125 4.125 0 0 1 20.124 5v14Z"/>
</svg>
