<svg xmlns="http://www.w3.org/2000/svg" width="24" height="24" fill="none" viewBox="0 0 24 24">
  <path fill="#888" d="M17.14 1.24a1.625 1.625 0 0 1 2.05 0l.123.112 3.336 3.334.111.123a1.627 1.627 0 0 1 0 2.052l-.111.123-1.669 1.667a3.981 3.981 0 0 1-4.72.679l-4.365 4.365a1.125 1.125 0 1 1-1.59-1.591l4.364-4.365a3.982 3.982 0 0 1 .68-4.72l1.668-1.667.123-.111Zm-.2 3.37a1.733 1.733 0 0 0 0 2.45l.13.12a1.735 1.735 0 0 0 2.32-.12l1.224-1.226-2.449-2.449L16.94 4.61Z"/>
  <path fill="#888" d="M5.71 8.631a2.126 2.126 0 0 1 2.683 0l.16.147 6.669 6.668c.83.83.83 2.176 0 3.006l-2.587 2.586a7.125 7.125 0 0 1-5.038 2.086H5A4.125 4.125 0 0 1 .875 19v-2.597c0-1.89.751-3.701 2.087-5.037L5.55 8.778l.161-.147ZM3.125 19c0 1.036.84 1.875 1.875 1.875h2.597a4.875 4.875 0 0 0 3.447-1.426l2.499-2.5-6.492-6.492-2.498 2.5a4.876 4.876 0 0 0-1.428 3.446V19Z"/>
</svg>
