<svg xmlns="http://www.w3.org/2000/svg" width="24" height="24" fill="none" viewBox="0 0 24 24">
  <path fill="#888" d="M13.925 1.497c.827-.7 2.01-.824 2.971-.29l1.012.562.337.195a11.125 11.125 0 0 1 3.986 4.126l.563 1.014.098.195c.446.988.24 2.16-.536 2.937l-4.729 4.727a3.124 3.124 0 0 1-2.862.847l-.205-.052-.683-.194a1.874 1.874 0 0 0-1.832.47l-6.348 6.274a2.833 2.833 0 0 1-3.779.181l-.214-.193a2.832 2.832 0 0 1-.011-3.993l6.273-6.347.166-.19c.3-.398.43-.902.357-1.397l-.052-.246-.195-.683a3.124 3.124 0 0 1 .795-3.067l4.727-4.728.161-.148Zm1.53 1.667-.1.071-4.727 4.729a.874.874 0 0 0-.223.858l.195.683.068.27a4.125 4.125 0 0 1-1.1 3.763l-6.274 6.347a.582.582 0 0 0 .001.82l.09.073a.58.58 0 0 0 .73-.071l6.348-6.274a4.125 4.125 0 0 1 4.032-1.033l.683.195.116.025a.874.874 0 0 0 .742-.248l4.729-4.727.072-.1a.377.377 0 0 0 .032-.232l-.041-.116-.564-1.014a8.874 8.874 0 0 0-2.917-3.127l-.53-.32-1.014-.564a.377.377 0 0 0-.348-.008Z"/>
  <path fill="#888" d="M16.705 7.704a1.125 1.125 0 0 1 1.591 1.591l-2.001 2.001a1.125 1.125 0 0 1-1.59-1.59l2-2.002Zm-2-2a1.125 1.125 0 0 1 1.59 1.591l-2 2a1.125 1.125 0 1 1-1.59-1.59l2-2Z"/>
</svg>
