<svg xmlns="http://www.w3.org/2000/svg" width="24" height="24" fill="none" viewBox="0 0 24 24">
  <path fill="#888" d="M4.875 22v-1.5a1.125 1.125 0 0 1 2.25 0V22a1.125 1.125 0 0 1-2.25 0Zm12 0v-1.5a1.125 1.125 0 0 1 2.25 0V22a1.125 1.125 0 0 1-2.25 0Zm-10.75-5.625h8.75v-6.75h-8.75v6.75Zm13.027-4.241c.32-.028.649.076.893.32.245.245.347.573.32.893.005.05.01.102.01.153 0 .052-.005.103-.01.153.027.32-.075.647-.32.892a1.116 1.116 0 0 1-.893.32c-.05.005-.101.01-.152.01a1.37 1.37 0 0 1-.154-.01 1.115 1.115 0 0 1-.89-.32 1.117 1.117 0 0 1-.322-.892l-.001-.012-.008-.14.008-.141.001-.013c-.027-.32.077-.648.321-.893a1.12 1.12 0 0 1 .89-.32 1.33 1.33 0 0 1 .155-.009l.14.007.012.002Zm0-4a1.11 1.11 0 0 1 1.213 1.212c.005.05.01.102.01.154 0 .052-.005.102-.01.152.028.32-.075.65-.32.894a1.117 1.117 0 0 1-.893.32c-.05.005-.101.01-.152.01-.052 0-.104-.005-.154-.01a1.117 1.117 0 0 1-.89-.32 1.119 1.119 0 0 1-.322-.894l-.001-.011-.008-.141.008-.14.001-.014a1.113 1.113 0 0 1 1.211-1.212 1.39 1.39 0 0 1 .155-.01l.14.008.012.001Zm-3.938-6.94a1.125 1.125 0 0 1 1.57 1.612l-3.588 3.5A1.122 1.122 0 0 1 12 6.543c-.366.143-.79.092-1.11-.163l-.087-.076-3.59-3.5-.078-.084a1.125 1.125 0 0 1 1.563-1.603l.086.076L12 4.328l3.215-3.134ZM17.124 17c0 .897-.726 1.625-1.624 1.625h-10A1.625 1.625 0 0 1 3.875 17V9c0-.897.727-1.625 1.625-1.626h10c.898 0 1.625.729 1.625 1.626v8Z"/>
  <path fill="#888" d="M20.875 8.5c0-1.036-.84-1.875-1.875-1.875H5c-1.036 0-1.875.84-1.875 1.875v9c0 1.035.84 1.875 1.875 1.875h14c1.035 0 1.875-.84 1.875-1.875v-9Zm2.25 9A4.125 4.125 0 0 1 19 21.625H5A4.125 4.125 0 0 1 .875 17.5v-9A4.125 4.125 0 0 1 5 4.375h14A4.125 4.125 0 0 1 23.125 8.5v9Z"/>
</svg>
