<svg xmlns="http://www.w3.org/2000/svg" width="24" height="24" fill="none" viewBox="0 0 24 24">
  <path fill="#888" d="M6.875 20a1.125 1.125 0 0 1 2.25 0 .875.875 0 0 0 1.75 0v-8a1.125 1.125 0 0 1 2.25 0v8a3.125 3.125 0 0 1-6.25 0Zm4-17V2a1.125 1.125 0 0 1 2.25 0v1a1.126 1.126 0 0 1-2.25 0Z"/>
  <path fill="#888" d="M12 1.875c5.592 0 10.125 4.533 10.125 10.125 0 .621-.504 1.125-1.125 1.125H3A1.125 1.125 0 0 1 1.875 12C1.875 6.408 6.408 1.875 12 1.875Zm0 2.25a7.875 7.875 0 0 0-7.793 6.75h15.586a7.874 7.874 0 0 0-7.792-6.75Z"/>
</svg>
