<svg xmlns="http://www.w3.org/2000/svg" width="24" height="24" fill="none" viewBox="0 0 24 24">
  <path fill="#888" d="M19.875 5c0-1.036-.84-1.875-1.875-1.875H6c-1.036 0-1.875.84-1.875 1.875v14c0 1.035.84 1.875 1.875 1.875h12c1.035 0 1.875-.84 1.875-1.875V5Zm2.25 14A4.125 4.125 0 0 1 18 23.125H6A4.125 4.125 0 0 1 1.875 19V5A4.125 4.125 0 0 1 6 .875h12A4.125 4.125 0 0 1 22.125 5v14Z"/>
  <path fill="#888" d="M12 6.375a6.626 6.626 0 1 1-.001 13.252 6.626 6.626 0 0 1 0-13.252Zm3.156 6.763c-.638-.059-1.275.069-1.756.349l-1.669.971c-.942.549-2.06.74-3.095.644a5.463 5.463 0 0 1-.511-.076 4.371 4.371 0 0 0 8.218-1.517 2.778 2.778 0 0 0-1.187-.37ZM12 8.625a4.374 4.374 0 0 0-4.343 3.864c.313.192.721.33 1.188.372.638.06 1.274-.068 1.755-.348l1.669-.972c.942-.548 2.06-.74 3.095-.644.17.016.34.043.511.075A4.372 4.372 0 0 0 12 8.625ZM6.641 4.132a1.375 1.375 0 1 1-1.509 1.51L5.125 5.5l.007-.14A1.375 1.375 0 0 1 6.5 4.125l.141.007Z"/>
</svg>
