<svg xmlns="http://www.w3.org/2000/svg" width="24" height="24" fill="none" viewBox="0 0 24 24">
  <path fill="#888" d="M12.68 1.573a1.125 1.125 0 0 1 1.948 1.125l-2.7 4.676h9.443a1.126 1.126 0 0 1 0 2.25H15.97l.146.255 4.573 7.92.053.103a1.127 1.127 0 0 1-1.94 1.12l-.06-.097-2.702-4.676-.26.455-4.46 7.723a1.126 1.126 0 0 1-1.948-1.125l2.7-4.677H2.629a1.125 1.125 0 0 1 0-2.25H8.03L3.31 6.199l-.052-.102a1.125 1.125 0 0 1 1.94-1.12l.06.097 2.7 4.676 4.723-8.176Zm-1.661 8.06a.876.876 0 0 0-.638.419l-.871 1.51-.051.104a.875.875 0 0 0 .05.77l.867 1.5.065.097c.165.214.42.342.693.342h1.732a.875.875 0 0 0 .693-.342l.064-.096.866-1.5a.875.875 0 0 0 .001-.875l-.325-.56-.542-.94-.064-.096a.875.875 0 0 0-.578-.333l-.115-.009h-1.732l-.115.01Z"/>
  <path fill="#888" d="M20.875 12a8.875 8.875 0 1 0-17.75 0 8.875 8.875 0 0 0 17.75 0Zm2.25 0c0 6.144-4.98 11.124-11.124 11.125C5.856 23.125.875 18.145.875 12 .875 5.856 5.856.875 12.001.875c6.143 0 11.124 4.981 11.124 11.126Z"/>
</svg>
