<svg xmlns="http://www.w3.org/2000/svg" width="24" height="24" fill="none" viewBox="0 0 24 24">
  <path fill="#888" d="M10.875 22V2a1.125 1.125 0 0 1 2.25 0v2.875h6.876l.114.006a1.125 1.125 0 0 1 0 2.239l-.114.005h-6.876v1.75H21.8l.116.005a1.125 1.125 0 0 1 0 2.239l-.116.005h-8.675v1.751H21.8l.116.006a1.125 1.125 0 0 1 0 2.238l-.116.006h-8.675v1.75h6.876l.114.006a1.125 1.125 0 0 1 0 2.239l-.114.005h-6.876V22a1.125 1.125 0 0 1-2.25 0Z"/>
  <path fill="#888" d="M20.875 12a8.875 8.875 0 1 0-17.75 0 8.875 8.875 0 0 0 17.75 0Zm2.25 0c0 6.144-4.981 11.124-11.125 11.125C5.856 23.125.875 18.145.875 12 .875 5.856 5.855.875 12 .875c6.144 0 11.125 4.981 11.125 11.126Z"/>
</svg>
