<svg xmlns="http://www.w3.org/2000/svg" width="24" height="24" fill="none" viewBox="0 0 24 24">
  <path fill="#888" d="M20.875 12a8.875 8.875 0 1 0-17.75 0 8.875 8.875 0 0 0 17.75 0Zm2.25 0c0 6.144-4.98 11.124-11.124 11.125C5.856 23.125.875 18.145.875 12 .875 5.856 5.856.875 12.001.875c6.143 0 11.124 4.981 11.124 11.126Z"/>
  <path fill="#888" d="M4.875 12a1.125 1.125 0 0 1 2.25 0c0 1.803.979 3.38 2.439 4.224a1.125 1.125 0 1 1-1.128 1.947A7.124 7.124 0 0 1 4.875 12Zm8 0a.875.875 0 1 0-1.75 0 .875.875 0 0 0 1.75 0Zm4 .197c0-1.69-.86-3.18-2.17-4.056l-.269-.167-.097-.063a1.126 1.126 0 0 1 1.122-1.938l.103.053.39.243a7.119 7.119 0 0 1 3.171 5.928 1.125 1.125 0 0 1-2.25 0ZM15.125 12a3.125 3.125 0 1 1-6.251 0 3.125 3.125 0 0 1 6.25 0Z"/>
</svg>
