<svg xmlns="http://www.w3.org/2000/svg" width="24" height="24" fill="none" viewBox="0 0 24 24">
  <path fill="#888" d="M12.66 11.265a2.126 2.126 0 0 1 2.681 0l.161.147 6.043 6.04.076.087a1.125 1.125 0 0 1-1.582 1.582l-.086-.076-5.954-5.955-2.997 2.999c-.83.83-2.174.83-3.004 0L7.5 15.59l-3.458 3.458a1.125 1.125 0 1 1-1.591-1.59l3.546-3.547.161-.146a2.127 2.127 0 0 1 2.684 0l.16.146.498.497 2.998-2.997.161-.147ZM9 6.875a2.126 2.126 0 1 1-2.114 2.342L6.875 9l.011-.218A2.125 2.125 0 0 1 9 6.875Z"/>
  <path fill="#888" d="M1.875 18V6A4.125 4.125 0 0 1 6 1.875h6.536l.116.006a1.125 1.125 0 0 1 0 2.239l-.116.005H6c-1.036 0-1.875.84-1.875 1.875v12c0 1.036.84 1.875 1.875 1.875h12c1.035 0 1.875-.84 1.875-1.875v-6.52a1.125 1.125 0 1 1 2.25 0V18A4.125 4.125 0 0 1 18 22.125H6A4.125 4.125 0 0 1 1.875 18Zm16-10V6.125H16a1.125 1.125 0 0 1 0-2.25h1.875V2a1.125 1.125 0 0 1 2.25 0v1.875H22l.115.006a1.125 1.125 0 0 1 0 2.238L22 6.125h-1.876V8a1.125 1.125 0 0 1-2.25 0Z"/>
</svg>
