<svg xmlns="http://www.w3.org/2000/svg" width="24" height="24" fill="none" viewBox="0 0 24 24">
  <path fill="#888" d="M19.875 15.344V6c0-1.035-.84-1.875-1.875-1.875H8.665a1.125 1.125 0 0 1 0-2.25H18A4.125 4.125 0 0 1 22.125 6v9.344a1.126 1.126 0 0 1-2.25 0ZM2.205 2.205a1.125 1.125 0 0 1 1.505-.078l.085.078 18 18 .078.085a1.126 1.126 0 0 1-1.584 1.583l-.085-.078-.194-.194a4.107 4.107 0 0 1-2.01.524H6A4.125 4.125 0 0 1 1.875 18V6c0-.73.191-1.416.524-2.011l-.194-.194-.078-.085a1.125 1.125 0 0 1 .078-1.505Zm8.797 13.883c-.83.83-2.174.83-3.004 0L7.5 15.59l-3.2 3.198A1.873 1.873 0 0 0 6 19.875h12c.09 0 .176-.01.262-.022l-5.512-5.512-1.748 1.747ZM9 8.875a.127.127 0 0 0-.088.037l.176.176a.125.125 0 0 0-.04-.204L9 8.875Zm-4.875 6.909 1.872-1.872.161-.147a2.127 2.127 0 0 1 2.684 0l.16.147.497.496 1.66-1.658-1.682-1.682a2.125 2.125 0 0 1-.477.058c-1.1 0-2.005-.837-2.114-1.91L6.874 9l.012-.217c.01-.089.024-.176.044-.262L4.145 5.736c-.012.087-.02.174-.02.264v9.784Z"/>
</svg>
