<svg xmlns="http://www.w3.org/2000/svg" width="24" height="24" fill="none" viewBox="0 0 24 24">
  <path fill="#888" d="m21 20.875.116.006a1.125 1.125 0 0 1 0 2.239l-.116.005h-9a1.125 1.125 0 0 1 0-2.25h9Zm-8.783-5.99a2.126 2.126 0 1 1-2.33 2.333L9.874 17l.011-.217A2.125 2.125 0 0 1 12 14.875l.217.01Zm-5-4.999A2.125 2.125 0 1 1 7 9.875l.217.011Zm10 0a2.125 2.125 0 1 1-2.331 2.33l-.01-.216.01-.217A2.126 2.126 0 0 1 17 9.875l.218.011ZM12 4.875a2.126 2.126 0 1 1-2.114 2.342L9.875 7l.011-.218A2.125 2.125 0 0 1 12 4.875Z"/>
  <path fill="#888" d="M20.875 12a8.875 8.875 0 1 0-17.75 0 8.875 8.875 0 0 0 17.75 0Zm2.25 0c0 6.144-4.98 11.124-11.124 11.125C5.856 23.125.875 18.145.875 12 .875 5.856 5.856.875 12.001.875c6.143 0 11.124 4.981 11.124 11.126Z"/>
</svg>
