<svg xmlns="http://www.w3.org/2000/svg" width="24" height="24" fill="none" viewBox="0 0 24 24">
  <path fill="#888" d="M10.875 17.5V5a3.125 3.125 0 0 1 3.983-3.004l3 .857.247.082a3.125 3.125 0 0 1 2.02 2.922V6.7a3.126 3.126 0 0 1-3.984 3.004l-3.016-.862V17.5a1.125 1.125 0 0 1-2.25 0Zm2.25-11 3.634 1.039a.876.876 0 0 0 1.116-.841v-.84a.877.877 0 0 0-.635-.842l-3-.857A.875.875 0 0 0 13.125 5v1.5Z"/>
  <path fill="#888" d="M10.875 17.5a2.375 2.375 0 1 0-4.75.001 2.375 2.375 0 0 0 4.75-.002Zm2.25 0a4.626 4.626 0 1 1-9.248 0 4.626 4.626 0 0 1 9.248 0Z"/>
</svg>
