<svg xmlns="http://www.w3.org/2000/svg" width="24" height="24" fill="none" viewBox="0 0 24 24">
  <path fill="#888" d="M19.875 6c0-1.036-.84-1.875-1.875-1.875H6c-1.036 0-1.875.84-1.875 1.875v12c0 1.035.84 1.875 1.875 1.875h12c1.035 0 1.875-.84 1.875-1.875V6Zm2.25 12A4.125 4.125 0 0 1 18 22.125H6A4.125 4.125 0 0 1 1.875 18V6A4.125 4.125 0 0 1 6 1.875h12A4.125 4.125 0 0 1 22.125 6v12Z"/>
  <path fill="#888" d="M7.875 16.5v-.375H7a1.125 1.125 0 0 1 0-2.25h.875V13.5a1.125 1.125 0 0 1 2.25 0v.375H17l.115.006a1.125 1.125 0 0 1 0 2.238l-.114.006h-6.877v.375a1.125 1.125 0 0 1-2.25 0Zm6-6v-.375H7a1.125 1.125 0 0 1 0-2.25h6.874V7.5a1.125 1.125 0 0 1 2.25 0v.375h.877l.114.006a1.125 1.125 0 0 1 0 2.238l-.114.006h-.877v.375a1.125 1.125 0 0 1-2.25 0Z"/>
</svg>
