<svg xmlns="http://www.w3.org/2000/svg" width="24" height="24" fill="none" viewBox="0 0 24 24">
  <path fill="#888" d="M20.875 7c0-1.036-.84-1.875-1.875-1.875H5c-1.036 0-1.875.84-1.875 1.875v10c0 1.036.84 1.875 1.875 1.875h14c1.035 0 1.874-.84 1.875-1.875V7Zm2.25 10A4.125 4.125 0 0 1 19 21.125H5A4.125 4.125 0 0 1 .875 17V7A4.125 4.125 0 0 1 5 2.875h14A4.125 4.125 0 0 1 23.125 7v10Z"/>
  <path fill="#888" d="M9.405 7.74a1.125 1.125 0 0 1 2.189.52l-1.77 7.425c-.443 1.86-3.022 1.918-3.599.174l-.048-.174L4.406 8.26l-.02-.113a1.125 1.125 0 0 1 2.176-.52l.032.111L8 13.632 9.405 7.74Zm7.97 2.51c0-.621-.503-1.125-1.125-1.125h-1.124v2.25h1.124c.622 0 1.125-.504 1.125-1.125Zm2.25 0a3.37 3.37 0 0 1-1.51 2.811l1.361 2.38.053.103a1.125 1.125 0 0 1-1.944 1.112l-.062-.098-1.675-2.933h-.723v2.374a1.125 1.125 0 0 1-2.25 0V8.25c0-.759.615-1.375 1.374-1.375h2.001a3.375 3.375 0 0 1 3.375 3.375Z"/>
</svg>
