<svg xmlns="http://www.w3.org/2000/svg" width="24" height="24" fill="none" viewBox="0 0 24 24">
  <path fill="#888" d="M14.124 20c0 1.932-2.368 2.862-3.682 1.446l-4.932-5.32H4A3.126 3.126 0 0 1 .875 13v-2A3.125 3.125 0 0 1 4 7.876h1.508l4.935-5.315.126-.126c1.334-1.23 3.555-.299 3.555 1.572V20ZM3.125 13c0 .483.391.875.875.876h1.564c.517 0 1.014.188 1.399.525l.158.154 4.753 5.126V4.325l-4.753 5.12c-.402.434-.966.68-1.557.68H4a.875.875 0 0 0-.875.875v2Zm14.75 2v-1.875H16a1.125 1.125 0 0 1 0-2.25h1.875V9a1.125 1.125 0 0 1 2.25 0v1.875H22a1.125 1.125 0 0 1 0 2.25h-1.875V15a1.125 1.125 0 0 1-2.25 0Z"/>
</svg>
