<svg width="24" height="24" viewBox="0 0 24 24" fill="none" xmlns="http://www.w3.org/2000/svg">
<path d="M15.9765 13.6294C15.9767 12.0563 16.753 10.6581 17.9482 9.8208C16.9958 9.0453 15.7094 8.90274 14.4985 9.4707L14.1792 9.6377C13.6034 9.97233 12.9935 10.2119 12.31 10.2119C11.7975 10.2118 11.3265 10.0776 10.8803 9.86914L10.4423 9.6377C8.6252 8.58153 6.50842 9.16807 5.62155 11.2549C4.90565 12.9394 4.99841 14.8325 5.67721 16.6924C6.24413 18.2457 6.90009 19.2803 8.04879 20.4248L8.15719 20.5244C8.71699 20.9902 9.52413 21.0161 10.3281 20.457C10.9154 20.0487 11.5668 19.7496 12.31 19.7495C13.0536 19.7495 13.7059 20.0485 14.2934 20.457C15.1511 21.0534 16.012 20.9835 16.5727 20.4248C17.4352 19.5654 18.0186 18.7675 18.4961 17.7661C16.9952 17.0042 15.9765 15.4307 15.9765 13.6294ZM18.2265 13.6294C18.2265 14.8049 19.0458 15.7537 20.0898 15.96C20.1884 15.9679 20.2882 15.9845 20.3857 16.02C20.9693 16.233 21.2694 16.8793 21.0566 17.4629L21.0522 17.4746C20.3764 19.3222 19.546 20.6381 18.1606 22.0186C16.6589 23.5148 14.5457 23.3741 13.0088 22.3057C12.6254 22.0391 12.4211 21.9995 12.31 21.9995C12.1988 21.9996 11.9956 22.0394 11.6128 22.3057C10.172 23.3075 8.22465 23.4939 6.74947 22.2808L6.4609 22.0186C5.07219 20.6349 4.23999 19.3167 3.56344 17.4629C2.74391 15.217 2.55577 12.7145 3.55026 10.3745C4.9943 6.97672 8.64787 5.99211 11.5732 7.69238L11.8339 7.83008C12.0642 7.93757 12.2079 7.96185 12.31 7.96192C12.4462 7.96192 12.6574 7.91961 13.0483 7.69238L13.3017 7.55322C15.944 6.17523 19.1244 6.91306 20.7138 9.6582C20.8918 9.96563 20.914 10.3396 20.7739 10.666C20.6338 10.9925 20.3474 11.2336 20.0019 11.3164C19.0001 11.5564 18.2268 12.4883 18.2265 13.6294Z" fill="#888888"/>
<path d="M12.1157 2.11572C13.0497 1.18169 14.3757 0.763348 15.8217 0.901368L16.1118 0.936524L16.292 0.97754C16.6969 1.10637 17.0012 1.45625 17.0639 1.88721C17.2905 3.44529 16.881 4.88846 15.8847 5.88477C14.8884 6.88106 13.4452 7.29044 11.8872 7.06397C11.3946 6.9922 11.0081 6.60446 10.9365 6.11182C10.7102 4.55397 11.1195 3.11189 12.1157 2.11572ZM14.8388 3.15869C14.3463 3.23676 13.9697 3.44339 13.7065 3.70654C13.4434 3.9697 13.2367 4.34639 13.1587 4.83887C13.6521 4.76104 14.0304 4.55747 14.2939 4.29395C14.5574 4.03042 14.761 3.65218 14.8388 3.15869Z" fill="#888888"/>
</svg>
