<svg xmlns="http://www.w3.org/2000/svg" width="24" height="24" fill="none" viewBox="0 0 24 24">
  <path fill="#FD4B2D" d="M13.632 7.256h-.7v2.057h.7V7.256Zm1.821-.086h-.7v1.608h.7V7.17Zm-10.9 2.349c-.46 0-.91.128-1.305.37-.395.243-.719.59-.937 1.006h1.188c.525-.466 1.288-.602 1.84 0h1.256c-.49-.682-1.228-1.376-2.042-1.376Zm1.695 2.618c-1.637 3.52-4.506.518-2.752-1.242H2.31c-.931 1.67.356 3.92 2.243 3.87 1.459 0 2.664-2.229 2.664-2.623 0-.173-.236-.707-.624-1.247H5.336c.417.389.78.955.912 1.242Z"/>
  <path fill="#FD4B2D" d="M22 7.231v9.296a3.283 3.283 0 0 1-.922 2.284 3.1 3.1 0 0 1-2.22.947h-1.333v-3.165h-6.367v3.165H9.825a3.1 3.1 0 0 1-2.22-.947 3.283 3.283 0 0 1-.921-2.284v-2.923h10.095V8.013h-4.875v3.14h-5.22V7.232a3.28 3.28 0 0 1 .147-.977l.02-.066.024-.066.027-.074.03-.073c.078-.19.173-.373.285-.545l.004-.005a2.483 2.483 0 0 1 .165-.23c.026-.033.062-.075.094-.112l.095-.105.004-.003a3.207 3.207 0 0 1 .427-.376c.035-.027.072-.052.11-.078l.126-.08a3.602 3.602 0 0 1 .336-.176 2.87 2.87 0 0 1 .585-.193c.14-.031.282-.053.425-.064l.063-.004h.03c.047-.002.095-.003.144-.003h9.033c.048 0 .096 0 .143.003h.03l.063.004a3.135 3.135 0 0 1 1.01.257l.084.039a2.988 2.988 0 0 1 .489.295 3.163 3.163 0 0 1 .525.484c.03.037.064.075.094.113.031.038.052.067.078.102l.088.127.004.005c.111.172.207.355.285.545l.03.073c.01.024.017.048.027.074l.023.066.021.066a3.273 3.273 0 0 1 .147.977Z"/>
  <path fill="#FD4B2D" d="M21.465 5.43H7.22c.287-.44.675-.8 1.129-1.05A3.07 3.07 0 0 1 9.824 4h9.036a3.07 3.07 0 0 1 1.476.38c.454.25.842.61 1.13 1.05Zm.513 1.43H6.703a3.254 3.254 0 0 1 .514-1.43h14.246c.281.427.458.918.515 1.43Z"/>
  <path fill="#FD4B2D" d="M22 7.23v1.06h-5.221v-.277h-4.875v.278H6.683V7.23c0-.124.006-.248.02-.371H21.98c.014.123.021.247.02.37Z"/>
  <path fill="#FD4B2D" d="M11.905 8.29H6.683v1.431h5.222v-1.43ZM22 8.29h-5.223v1.431h5.222v-1.43ZM11.905 9.722H6.683v1.43h5.222v-1.43Zm10.095 0h-5.223v1.43h5.222v-1.43Z"/>
</svg>
