<svg xmlns="http://www.w3.org/2000/svg" width="24" height="24" fill="none" viewBox="0 0 24 24">
  <path fill="#00BEF2" d="M11.912 2c.02 0 .042.026.074.074.026.043 2.258 2.72 4.961 5.947 2.703 3.228 4.908 5.884 4.898 5.9-.006.015-2.158 1.78-4.781 3.916a3113.072 3113.072 0 0 0-4.956 4.04c-.175.142-.186.148-.25.084-.036-.037-2.273-1.866-4.971-4.065-2.698-2.2-4.898-4.013-4.887-4.04.01-.026 2.226-2.67 4.935-5.883 2.708-3.212 4.924-5.867 4.934-5.91.01-.042.027-.063.043-.063Z"/>
  <path fill="#fff" d="M11.546 18.818c-.307-.111-.678-.43-.832-.726-.19-.366-.175-.938.037-1.394.165-.34.165-.35.059-.43a49.227 49.227 0 0 0-1.559-.863 581.4 581.4 0 0 1-1.537-.833c-.063-.037-.17 0-.36.122-.62.393-1.267.35-1.776-.122-.366-.339-.472-.577-.472-1.065 0-.472.096-.716.398-1.018.408-.408.954-.546 1.479-.37.286.095.291.095.472-.043.212-.16 1.913-1.712 2.735-2.491l.567-.54-.17-.356c-.345-.716-.17-1.51.435-1.988.328-.26.572-.339 1.044-.339 1.102 0 1.87 1.156 1.457 2.19-.11.285-.11.29-.005.466.09.153 1.622 2.003 2.433 2.947.143.164.302.296.355.296.053 0 .233-.052.403-.116a1.478 1.478 0 0 1 1.95.821c.212.504.027 1.182-.424 1.59-.318.287-.55.377-.975.377-.297 0-.408-.032-.72-.202-.234-.127-.414-.19-.488-.17-.127.033-2.083 1.374-2.518 1.723-.265.218-.286.297-.148.62.132.319.116.817-.032 1.13-.164.344-.573.689-.928.795-.36.1-.578.1-.88-.011Zm.09-5.841V9.956l-.17-.233c-.095-.128-.185-.234-.2-.234-.07 0-3.493 3.112-3.493 3.175 0 .016.053.175.116.345.064.175.111.424.106.567-.005.143-.005.302-.005.355.005.122 1.15.853 2.867 1.845.472.275.636.344.695.296.069-.058.085-.646.085-3.095Zm1.453 2.671c2.268-1.425 2.692-1.712 2.719-1.818a4.06 4.06 0 0 0 .042-.562l.016-.445-1.155-1.373c-1.24-1.468-1.696-1.966-1.802-1.966-.038 0-.223.106-.414.233l-.35.234.016 3.015c.016 2.704.037 3.16.138 3.16.01.005.371-.213.79-.478Z"/>
</svg>
