<svg width="24" height="24" viewBox="0 0 24 24" fill="none" xmlns="http://www.w3.org/2000/svg">
<path d="M11.9121 2C11.9332 2.00035 11.9547 2.02683 11.9863 2.07422C12.0195 2.12456 14.2482 4.79849 16.9473 8.02148C19.6503 11.2493 21.8553 13.905 21.8447 13.9209C21.8259 13.9478 19.6788 15.7086 17.0635 17.8379C14.4399 19.9738 12.2081 21.7912 12.1074 21.876C11.9326 22.019 11.922 22.0245 11.8584 21.9609C11.8131 21.9172 9.57954 20.091 6.88672 17.8955C4.18896 15.696 1.9894 13.8829 2 13.8564C2.02407 13.814 4.23447 11.1757 6.93457 7.97363C9.64305 4.76162 11.8585 2.10588 11.8691 2.06348C11.8797 2.02113 11.8962 2 11.9121 2ZM12.0654 6.3623C11.594 6.36235 11.35 6.44154 11.0215 6.70117C10.4172 7.1782 10.2424 7.97391 10.5869 8.68945L10.7568 9.04395L10.1895 9.58496C9.36786 10.3641 7.66611 11.9172 7.4541 12.0762C7.27424 12.2137 7.26845 12.2135 6.98242 12.1182C6.45781 11.9434 5.91193 12.0813 5.50391 12.4893C5.20183 12.7913 5.10647 13.0352 5.10645 13.5068C5.10645 13.9944 5.21249 14.2331 5.57812 14.5723C6.0869 15.0439 6.73344 15.0864 7.35352 14.6943C7.544 14.5726 7.65023 14.5355 7.71387 14.5723C7.76156 14.5988 8.45608 14.9751 9.25098 15.4043C10.0459 15.8336 10.7511 16.2261 10.8096 16.2686C10.9156 16.3481 10.9153 16.359 10.751 16.6982C10.5392 17.1539 10.5232 17.7262 10.7139 18.0918C10.8675 18.3885 11.2385 18.707 11.5459 18.8184C11.8479 18.9296 12.0655 18.9288 12.4258 18.8281C12.7809 18.7221 13.1892 18.3777 13.3535 18.0332C13.5018 17.7205 13.5182 17.2223 13.3857 16.9043C13.248 16.5811 13.2692 16.5015 13.5342 16.2842C13.9693 15.9341 15.9246 14.5933 16.0518 14.5615C16.126 14.5405 16.3061 14.6044 16.5391 14.7314C16.8517 14.901 16.9632 14.9326 17.2598 14.9326C17.6838 14.9326 17.9174 14.8428 18.2354 14.5566C18.6858 14.1486 18.871 13.4703 18.6592 12.9668C18.3306 12.1824 17.4987 11.8319 16.709 12.1445C16.5394 12.2081 16.3587 12.2617 16.3057 12.2617C16.2523 12.261 16.0939 12.1286 15.9512 11.9648C15.1405 11.0217 13.6095 9.17228 13.5186 9.01758C13.4125 8.84267 13.4121 8.837 13.5234 8.55078C13.9365 7.51731 13.1678 6.3623 12.0654 6.3623ZM12.9082 9.48438C13.0142 9.48438 13.4707 9.98204 14.7109 11.4502L15.8662 12.8232L15.8506 13.2686C15.8453 13.5174 15.8235 13.7661 15.8076 13.8301C15.7811 13.9361 15.3574 14.2227 13.0889 15.6484C12.6701 15.9135 12.3094 16.1303 12.2988 16.125C12.1983 16.1244 12.177 15.6679 12.1611 12.9668L12.1455 9.9502L12.4951 9.71777C12.6853 9.59097 12.8703 9.48504 12.9082 9.48438ZM11.2656 9.48926C11.282 9.49 11.3717 9.5959 11.4668 9.72266L11.6367 9.95605V12.9766C11.6367 15.4238 11.6206 16.0133 11.5518 16.0723C11.4935 16.12 11.3292 16.051 10.8574 15.7754C9.14012 14.7842 7.99553 14.0526 7.99023 13.9307C7.99023 13.8773 7.98984 13.7189 7.99512 13.5762C8.00042 13.4331 7.95228 13.1837 7.88867 13.0088C7.8251 12.8392 7.77246 12.68 7.77246 12.6641C7.7801 12.5937 11.1968 9.48926 11.2656 9.48926Z" fill="#888888"/>
</svg>
