<svg xmlns="http://www.w3.org/2000/svg" width="24" height="24" fill="none" viewBox="0 0 24 24">
  <path fill="#888" d="M18 8.875a5.125 5.125 0 0 1 5.125 5.126c0 .62-.504 1.125-1.125 1.125h-6.87A2.873 2.873 0 0 0 18 17.875a2.931 2.931 0 0 0 2.526-1.439 1.126 1.126 0 0 1 1.948 1.127A5.182 5.182 0 0 1 18 20.125a5.126 5.126 0 0 1-5.125-5.126v-.998A5.126 5.126 0 0 1 18 8.875Zm0 2.25a2.876 2.876 0 0 0-2.646 1.75h5.292A2.875 2.875 0 0 0 18 11.126Zm1.5-5.25.115.006a1.125 1.125 0 0 1 0 2.238l-.114.006h-3a1.125 1.125 0 0 1 0-2.25h3ZM9.875 15.5A2.375 2.375 0 0 0 7.5 13.126H3.125v4.749H7.5A2.375 2.375 0 0 0 9.875 15.5Zm0-7A2.375 2.375 0 0 0 7.5 6.125H3.125v4.75H7.5l.242-.013A2.375 2.375 0 0 0 9.875 8.5Zm2.25 0a4.61 4.61 0 0 1-1.608 3.499 4.611 4.611 0 0 1 1.608 3.501A4.625 4.625 0 0 1 7.5 20.125H3A2.125 2.125 0 0 1 .875 18V6c0-1.173.952-2.125 2.125-2.125h4.5A4.625 4.625 0 0 1 12.125 8.5Z"/>
</svg>
