<svg xmlns="http://www.w3.org/2000/svg" width="24" height="24" fill="none" viewBox="0 0 24 24">
  <path fill="#888" d="M14.875 12a2.876 2.876 0 1 0-5.752 0 2.876 2.876 0 0 0 5.752 0Zm2.25 0a5.1 5.1 0 0 1-.64 2.479c-.008.015-.013.033-.02.048l-4.221 7.972-.059.1a1.126 1.126 0 0 1-1.929-1.154l2.301-4.352a5.122 5.122 0 0 1-4.98-2.505l-.023-.036-4.502-8-.051-.104a1.124 1.124 0 0 1 1.95-1.097l.061.097 2.401 4.265a5.125 5.125 0 0 1 4.323-2.831l.263-.007h9.169l.116.005a1.126 1.126 0 0 1 0 2.239l-.116.006h-4.925A5.1 5.1 0 0 1 17.125 12Z"/>
  <path fill="#888" d="M20.875 12a8.875 8.875 0 1 0-17.75 0 8.875 8.875 0 0 0 17.75 0Zm2.25 0c0 6.144-4.98 11.124-11.124 11.125C5.856 23.125.875 18.145.875 12 .875 5.856 5.856.875 12.001.875c6.143 0 11.124 4.981 11.124 11.126Z"/>
</svg>
