<svg width="24" height="24" viewBox="0 0 24 24" fill="none" xmlns="http://www.w3.org/2000/svg">
<path d="M13.875 19.0001C13.875 17.8537 13.7719 16.7313 13.5762 15.6412C10.9278 16.7753 8.59071 18.4974 6.72952 20.6451C6.32276 21.1145 5.61265 21.1658 5.1431 20.7594C4.67355 20.3525 4.62195 19.641 5.02884 19.1715C7.19083 16.6766 9.92964 14.6934 13.0371 13.4278C12.7698 12.5614 12.441 11.7224 12.0572 10.9142C9.84993 11.6964 7.47453 12.1256 4.99954 12.1256C4.21275 12.1256 3.4356 12.0821 2.67044 11.9982L1.91019 11.9L1.79593 11.878C1.24336 11.7385 0.875063 11.2002 0.959505 10.6241C1.04401 10.0479 1.55159 9.63801 2.12113 9.66319L2.23538 9.67491L2.91654 9.76134C3.6002 9.83636 4.29518 9.87558 4.99954 9.8756C7.08114 9.8756 9.08323 9.53532 10.9556 8.91319C9.8761 7.2093 8.53144 5.68995 6.97855 4.41319L6.56693 4.0836L6.47904 4.00743C6.06663 3.614 6.01067 2.96444 6.36771 2.5045C6.72482 2.04464 7.36828 1.9374 7.85159 2.23936L7.94681 2.30528L8.40823 2.67442C10.2512 4.18979 11.8319 6.0129 13.0752 8.06358C15.0708 7.11746 16.875 5.83303 18.4117 4.28136C18.8488 3.83987 19.5625 3.83538 20.0039 4.27257C20.4451 4.70964 20.448 5.42194 20.0113 5.86339C18.3183 7.57298 16.3342 8.99534 14.1402 10.0499C14.5389 10.9011 14.8802 11.7839 15.1641 12.6925C17.0177 12.1607 18.9756 11.8751 21 11.8751C21.3353 11.8751 21.6689 11.8831 22.0005 11.8985C22.6212 11.9275 23.1018 12.4542 23.0728 13.0748C23.0437 13.6952 22.5168 14.1743 21.8965 14.1456C21.5997 14.1318 21.3004 14.1251 21 14.1251C19.1669 14.1251 17.395 14.3864 15.7193 14.8736C15.9836 16.2083 16.125 17.5878 16.125 19.0001C16.125 19.9272 16.0653 20.8414 15.9493 21.7379L15.9287 21.8507C15.7988 22.4057 15.267 22.7836 14.6895 22.7091C14.0733 22.6293 13.6385 22.064 13.7183 21.4479L13.7857 20.8443C13.8445 20.2378 13.875 19.6227 13.875 19.0001Z" fill="#888888"/>
<path d="M20.8745 12.0005C20.8745 7.09912 16.9018 3.12526 12.0005 3.125C7.09896 3.125 3.125 7.09896 3.125 12.0005C3.12526 16.9018 7.09912 20.8745 12.0005 20.8745C16.9016 20.8742 20.8742 16.9016 20.8745 12.0005ZM23.1245 12.0005C23.1242 18.1443 18.1443 23.1242 12.0005 23.1245C5.85648 23.1245 0.875264 18.1444 0.875 12.0005C0.875 5.85632 5.85632 0.875 12.0005 0.875C18.1444 0.875264 23.1245 5.85648 23.1245 12.0005Z" fill="#888888"/>
</svg>
