<svg xmlns="http://www.w3.org/2000/svg" width="24" height="24" fill="none" viewBox="0 0 24 24">
  <path fill="#888" d="M13.875 19c0-1.146-.103-2.269-.299-3.359a18.927 18.927 0 0 0-6.846 5.004 1.125 1.125 0 1 1-1.701-1.473 21.177 21.177 0 0 1 8.008-5.744 18.732 18.732 0 0 0-.98-2.514A21.09 21.09 0 0 1 5 12.126c-.787 0-1.564-.044-2.33-.128l-.76-.098-.114-.022a1.125 1.125 0 0 1 .325-2.215l.114.012.682.086a18.856 18.856 0 0 0 8.04-.848 18.976 18.976 0 0 0-3.978-4.5l-.412-.33-.088-.076A1.125 1.125 0 0 1 7.852 2.24l.095.066.461.37a21.228 21.228 0 0 1 4.667 5.389 18.936 18.936 0 0 0 5.337-3.783 1.126 1.126 0 1 1 1.6 1.582 21.184 21.184 0 0 1-5.872 4.187c.399.851.74 1.734 1.024 2.643A21.133 21.133 0 0 1 22 11.899a1.126 1.126 0 0 1-.104 2.247 18.888 18.888 0 0 0-6.177.728 21.225 21.225 0 0 1 .23 6.864l-.02.113a1.126 1.126 0 0 1-2.21-.403l.067-.604c.059-.606.089-1.221.089-1.844Z"/>
  <path fill="#888" d="M20.875 12a8.875 8.875 0 1 0-17.75 0 8.875 8.875 0 0 0 17.75 0Zm2.25 0c0 6.144-4.98 11.124-11.124 11.125C5.856 23.125.875 18.145.875 12 .875 5.856 5.856.875 12.001.875c6.143 0 11.124 4.981 11.124 11.126Z"/>
</svg>
