<svg xmlns="http://www.w3.org/2000/svg" width="24" height="24" fill="none" viewBox="0 0 24 24">
  <path fill="#888" d="M10.875 16.125H9A1.875 1.875 0 1 0 10.875 18v-1.875Zm6-4.125a1.875 1.875 0 1 0-3.75 0 1.875 1.875 0 0 0 3.75 0Zm2.25 0A4.125 4.125 0 0 1 15 16.125a4.1 4.1 0 0 1-1.875-.456V18A4.125 4.125 0 1 1 9 13.875h2.33a4.103 4.103 0 0 1 0-3.75H9a4.125 4.125 0 0 1 0-8.25h3c.621 0 1.125.504 1.125 1.125v5.33A4.103 4.103 0 0 1 15 7.874 4.125 4.125 0 0 1 19.125 12Zm-12-6c0 1.036.84 1.875 1.875 1.875h1.875v-3.75H9c-1.036 0-1.875.84-1.875 1.875Z"/>
  <path fill="#888" d="M16.875 6c0-1.036-.84-1.875-1.875-1.875h-1.875v3.75H15c1.036 0 1.875-.84 1.875-1.875Zm-9.75 6c0 1.036.84 1.875 1.875 1.875h1.875v-3.75H9c-1.036 0-1.875.84-1.875 1.875Zm12-6A4.125 4.125 0 0 1 15 10.125h-1.875V15c0 .621-.504 1.125-1.125 1.125H9a4.125 4.125 0 1 1 0-8.25h1.875V3l.006-.116A1.125 1.125 0 0 1 12 1.875h3A4.125 4.125 0 0 1 19.125 6Z"/>
</svg>
