<svg width="24" height="24" viewBox="0 0 24 24" fill="none" xmlns="http://www.w3.org/2000/svg">
<path d="M4.51209 6.99996C5.89948 6.99996 7.02419 5.88068 7.02419 4.49998C7.02419 3.11928 5.89948 2 4.51209 2C3.1247 2 2 3.11928 2 4.49998C2 5.88068 3.1247 6.99996 4.51209 6.99996Z" fill="#2EC318"/>
<path d="M12.0483 6.99996C13.4356 6.99996 14.5603 5.88068 14.5603 4.49998C14.5603 3.11928 13.4356 2 12.0483 2C10.6608 2 9.53613 3.11928 9.53613 4.49998C9.53613 5.88068 10.6608 6.99996 12.0483 6.99996Z" fill="#36A8DE"/>
<path d="M19.5844 6.99996C20.9718 6.99996 22.0964 5.88068 22.0964 4.49998C22.0964 3.11928 20.9718 2 19.5844 2C18.197 2 17.0723 3.11928 17.0723 4.49998C17.0723 5.88068 18.197 6.99996 19.5844 6.99996Z" fill="#F9667D"/>
<path d="M4.51209 14.5C5.89948 14.5 7.02419 13.3807 7.02419 12C7.02419 10.6193 5.89948 9.5 4.51209 9.5C3.1247 9.5 2 10.6193 2 12C2 13.3807 3.1247 14.5 4.51209 14.5Z" fill="#C561D7"/>
<path d="M12.0483 14.5C13.4356 14.5 14.5603 13.3807 14.5603 12C14.5603 10.6193 13.4356 9.5 12.0483 9.5C10.6608 9.5 9.53613 10.6193 9.53613 12C9.53613 13.3807 10.6608 14.5 12.0483 14.5Z" fill="#FF9B57"/>
<path d="M4.51209 22C5.89948 22 7.02419 20.8808 7.02419 19.5C7.02419 18.1194 5.89948 17.0001 4.51209 17.0001C3.1247 17.0001 2 18.1194 2 19.5C2 20.8808 3.1247 22 4.51209 22Z" fill="#00EBBC"/>
</svg>
