<svg xmlns="http://www.w3.org/2000/svg" width="24" height="24" fill="none" viewBox="0 0 24 24">
  <path fill="#888" d="M4.875 14.378V14a1.125 1.125 0 0 1 2.25 0v.378c0 .1.04.195.11.265l3.64 3.64v-3.282a1.125 1.125 0 0 1 2.25 0v6a1.125 1.125 0 0 1-1.92.795l-5.561-5.56a2.628 2.628 0 0 1-.769-1.858Z"/>
  <path fill="#888" d="M7.125 13.875h8.16l-3.75-3.75h-4.41v3.75Zm5.34-6h4.41v-3.75h-8.16l3.75 3.75Zm6.66.125A2.126 2.126 0 0 1 17 10.125h-2.284l4.08 4.08a1.125 1.125 0 0 1-.796 1.92H7A2.125 2.125 0 0 1 4.875 14v-4c0-1.173.952-2.125 2.125-2.125h2.284l-4.08-4.08A1.126 1.126 0 0 1 6 1.875h11c1.173 0 2.125.952 2.125 2.125v4Z"/>
</svg>
