<svg width="24" height="24" viewBox="0 0 24 24" fill="none" xmlns="http://www.w3.org/2000/svg">
<path d="M11.9837 2C12.1929 2 12.3754 2.14308 12.4265 2.34615C12.5826 2.96727 12.7882 3.57486 13.0415 4.16308C13.7037 5.70154 14.6123 7.048 15.7658 8.20154C16.92 9.35539 18.2662 10.264 19.8043 10.9262C20.3927 11.1794 21.0003 11.3851 21.6215 11.5412C21.8246 11.5923 21.9674 11.7745 21.9674 11.9837C21.9674 12.1929 21.8246 12.3754 21.6212 12.4265C21.0001 12.5826 20.3925 12.7882 19.8043 13.0415C18.2658 13.7037 16.9197 14.6123 15.7658 15.7658C14.6123 16.92 13.7037 18.2662 13.0415 19.8043C12.7882 20.3926 12.5824 21.0003 12.4262 21.6215C12.4014 21.7202 12.3445 21.8078 12.2643 21.8705C12.1842 21.9331 12.0854 21.9672 11.9837 21.9674C11.7745 21.9674 11.5923 21.8246 11.5412 21.6212C11.385 21.0001 11.1792 20.3925 10.9258 19.8043C10.264 18.2658 9.35569 16.9197 8.20154 15.7658C7.04769 14.6123 5.70154 13.7037 4.16308 13.0415C3.57484 12.7882 2.96726 12.5824 2.34615 12.4262C2.24747 12.4015 2.15984 12.3446 2.09714 12.2645C2.03444 12.1844 2.00025 12.0857 2 11.984C2 11.7748 2.14308 11.5926 2.34615 11.5415C2.96728 11.3853 3.57487 11.1796 4.16308 10.9262C5.70154 10.2643 7.048 9.35569 8.20154 8.20185C9.35539 7.04831 10.264 5.70185 10.9262 4.16338C11.1794 3.57514 11.3851 2.96756 11.5412 2.34646C11.5658 2.24767 11.6227 2.15993 11.7029 2.09717C11.7831 2.0344 11.8819 2.0002 11.9837 2Z" fill="#888888"/>
</svg>
