<svg width="24" height="24" viewBox="0 0 24 24" fill="none" xmlns="http://www.w3.org/2000/svg">
<path d="M21.2237 12.2222C21.2237 11.4 21.1583 10.8 21.0167 10.1778H11.8081V13.8889H17.2133C17.1044 14.8111 16.5159 16.2 15.2082 17.1333L15.1898 17.2575L18.1014 19.5573L18.3031 19.5778C20.1557 17.8333 21.2237 15.2666 21.2237 12.2222Z" fill="#888888"/>
<path d="M11.8077 22C14.4558 22 16.6789 21.1111 18.3027 19.5778L15.2077 17.1333C14.3795 17.7222 13.2679 18.1333 11.8077 18.1333C9.21404 18.1333 7.01272 16.3889 6.22801 13.9778L6.11299 13.9877L3.08549 16.3766L3.0459 16.4889C4.65874 19.7555 7.97166 22 11.8077 22Z" fill="#888888"/>
<path d="M6.22827 13.9778C6.02122 13.3556 5.90139 12.6889 5.90139 12C5.90139 11.3111 6.02122 10.6445 6.21738 10.0222L6.21189 9.88973L3.14645 7.46246L3.04616 7.5111C2.38142 8.86668 2 10.3889 2 12C2 13.6111 2.38142 15.1333 3.04616 16.4889L6.22827 13.9778Z" fill="#888888"/>
<path d="M11.8077 5.86664C13.6494 5.86664 14.8917 6.67775 15.6001 7.35557L18.3681 4.6C16.6681 2.98889 14.4558 2 11.8077 2C7.97166 2 4.65874 4.24443 3.0459 7.51107L6.21712 10.0222C7.01272 7.61111 9.21404 5.86664 11.8077 5.86664Z" fill="#888888"/>
</svg>
