<svg width="24" height="24" viewBox="0 0 24 24" fill="none" xmlns="http://www.w3.org/2000/svg">
<path d="M20.8745 12.0005C20.8745 7.09912 16.9018 3.12526 12.0005 3.125C7.09896 3.125 3.125 7.09896 3.125 12.0005C3.12526 16.9018 7.09912 20.8745 12.0005 20.8745C16.9016 20.8742 20.8742 16.9016 20.8745 12.0005ZM23.1245 12.0005C23.1242 18.1443 18.1443 23.1242 12.0005 23.1245C5.85648 23.1245 0.875264 18.1444 0.875 12.0005C0.875 5.85632 5.85632 0.875 12.0005 0.875C18.1444 0.875264 23.1245 5.85648 23.1245 12.0005Z" fill="#888888"/>
<path d="M17.0005 10.8745C17.6214 10.8748 18.1252 11.3786 18.1255 11.9995C18.1255 15.3822 15.3822 18.1255 11.9995 18.1255C8.61699 18.1252 5.875 15.3821 5.875 11.9995C5.87526 8.61716 8.61716 5.87526 11.9995 5.875C13.5848 5.875 15.0318 6.47817 16.1187 7.46582L16.3311 7.66943L16.4087 7.75439C16.7689 8.19627 16.7429 8.84844 16.3311 9.26025C15.9192 9.67197 15.267 9.69809 14.8252 9.33789L14.7402 9.26025L14.4648 9.00977C13.7945 8.45622 12.9362 8.125 11.9995 8.125C9.8598 8.12526 8.12526 9.8598 8.125 11.9995C8.125 14.1394 9.85964 15.8752 11.9995 15.8755C13.7484 15.8755 15.2265 14.7161 15.7085 13.1245H11.9995C11.3784 13.1242 10.8745 12.6207 10.8745 11.9995C10.8748 11.3786 11.3786 10.8748 11.9995 10.8745H17.0005Z" fill="#888888"/>
</svg>
