<svg width="24" height="24" viewBox="0 0 24 24" fill="none" xmlns="http://www.w3.org/2000/svg">
<path d="M16.5884 8.58528V6.20365C16.9015 6.05655 17.1665 5.82309 17.3527 5.53043C17.5389 5.23778 17.6386 4.89797 17.6402 4.55057V4.49592C17.6402 3.48301 16.8235 2.66188 15.8162 2.66188H15.7617C14.7543 2.66188 13.9376 3.48301 13.9376 4.49592V4.55057C13.9392 4.89797 14.0389 5.23778 14.2251 5.53043C14.4113 5.82309 14.6763 6.05655 14.9894 6.20365V8.58528C14.0897 8.7238 13.2424 9.09888 12.5333 9.67253L6.03704 4.58495C6.08336 4.41682 6.10752 4.24393 6.11025 4.07038C6.11104 3.66164 5.99126 3.26184 5.76604 2.92156C5.54082 2.58128 5.22028 2.3158 4.84498 2.15871C4.46968 2.00161 4.05648 1.95996 3.65763 2.03902C3.25878 2.11808 2.89221 2.3143 2.60429 2.60285C2.31637 2.89141 2.12003 3.25934 2.04011 3.66011C1.96019 4.06087 2.00027 4.47647 2.15529 4.85433C2.31032 5.23218 2.57331 5.55533 2.91101 5.78288C3.24872 6.01043 3.64595 6.13217 4.05247 6.1327C4.40811 6.13101 4.75708 6.03555 5.06454 5.85584L11.4615 10.8608C10.2855 12.6472 10.3169 14.9753 11.5408 16.729L9.59514 18.6858C9.43779 18.6352 9.27402 18.6084 9.10889 18.6061C8.1771 18.6069 7.42224 19.3667 7.42248 20.3036C7.42272 21.2404 8.17806 21.9998 9.10977 22C10.0416 22.0002 10.7972 21.2413 10.798 20.3044C10.7958 20.1384 10.7691 19.9736 10.7187 19.8156L12.6435 17.8796C14.3633 19.2108 16.7253 19.3254 18.5647 18.1671C20.4041 17.0086 21.3323 14.8217 20.8916 12.685C20.4509 10.5481 18.7343 8.91283 16.5884 8.58528ZM15.7906 16.4183C15.435 16.4279 15.0811 16.3658 14.7498 16.2356C14.4185 16.1054 14.1165 15.9098 13.8616 15.6603C13.6067 15.4109 13.4041 15.1126 13.2658 14.7831C13.1274 14.4536 13.0562 14.0995 13.0562 13.7419C13.0562 13.3842 13.1274 13.0302 13.2658 12.7007C13.4041 12.3712 13.6067 12.0729 13.8616 11.8234C14.1165 11.5739 14.4185 11.3783 14.7498 11.2481C15.0811 11.118 15.435 11.0558 15.7906 11.0655C17.2236 11.1159 18.3595 12.2982 18.3603 13.7399C18.361 15.1815 17.2262 16.365 15.7933 16.4169" fill="#888888"/>
</svg>
