<svg width="24" height="24" viewBox="0 0 24 24" fill="none" xmlns="http://www.w3.org/2000/svg">
<path d="M20.5215 2.04004C21.3379 2.04004 21.9999 2.67923 22 3.4668V20.5332C22 21.3211 21.3379 21.96 20.5215 21.96H3.47852C2.6625 21.96 2 21.3209 2 20.5332V3.4668L2.00781 3.32129C2.08345 2.60199 2.71336 2.04004 3.47852 2.04004H20.5215ZM15.4248 9.53223C13.8371 9.53223 13.1253 10.4017 12.7275 11.0127V9.74219H9.73438C9.77322 10.5788 9.73481 18.6204 9.73438 18.71H12.7266V13.7031C12.7266 13.4355 12.7462 13.1668 12.8252 12.9756C13.0414 12.4398 13.5344 11.8848 14.3613 11.8848C15.4439 11.8848 15.8769 12.7075 15.877 13.9131V18.71H18.8701V13.5684C18.8701 10.814 17.3937 9.53234 15.4248 9.53223ZM5.08496 18.71H8.07812V9.74219H5.08496V18.71ZM6.60156 5.41895C5.57752 5.41912 4.90921 6.08876 4.90918 6.96875C4.90918 7.82935 5.55806 8.51757 6.5625 8.51758H6.58203V8.51855C7.62547 8.51855 8.27539 7.82936 8.27539 6.96875C8.2558 6.0886 7.62511 5.41895 6.60156 5.41895Z" fill="#888888"/>
</svg>
