<svg xmlns="http://www.w3.org/2000/svg" width="24" height="24" fill="none" viewBox="0 0 24 24">
  <path fill="#000" d="M21.556 11.51a4.96 4.96 0 0 1 .33 3.107 4.964 4.964 0 0 1-.577 1.476 4.99 4.99 0 0 1-1.422 1.568 5.109 5.109 0 0 1-1.953.848c-.165.504-.41.982-.727 1.41a5.094 5.094 0 0 1-2.561 1.834 5.17 5.17 0 0 1-1.585.247 5.246 5.246 0 0 1-1.067-.106 5.173 5.173 0 0 1-1.946-.86 4.998 4.998 0 0 1-.79-.712 5.184 5.184 0 0 1-3.155-.325 5.083 5.083 0 0 1-2.352-2.095 4.933 4.933 0 0 1-.433-4.087 5.004 5.004 0 0 1-1.205-4.433 4.965 4.965 0 0 1 .577-1.475 5.01 5.01 0 0 1 2.352-2.095c.33-.144.672-.25 1.023-.32a5.004 5.004 0 0 1 1.86-2.531A5.166 5.166 0 0 1 10.937 2a5.105 5.105 0 0 1 3.015.962c.29.21.556.448.793.713a5.185 5.185 0 0 1 3.15.325 5.124 5.124 0 0 1 2.352 2.093 4.99 4.99 0 0 1 .664 1.998 4.94 4.94 0 0 1-.23 2.093c.36.394.655.84.874 1.325Zm-7.04 8.898a3.794 3.794 0 0 0 2.055-2.03c.19-.455.29-.942.29-1.434v-4.648a.21.21 0 0 1-.004-.015.05.05 0 0 0-.007-.012.037.037 0 0 0-.01-.01.033.033 0 0 0-.013-.009l-1.705-.971v5.615a.655.655 0 0 1-.332.567l-4.038 2.298c-.034.021-.091.05-.12.067.166.14.348.263.538.371.192.108.391.2.598.275a3.86 3.86 0 0 0 1.293.223 3.82 3.82 0 0 0 1.454-.287Zm-9.618-3.156a3.794 3.794 0 0 0 2.308 1.745 3.849 3.849 0 0 0 2.882-.373l4.083-2.324.01-.01a.027.027 0 0 0 .007-.013.05.05 0 0 0 .006-.013v-1.959l-4.928 2.812a.751.751 0 0 1-.158.066.691.691 0 0 1-.506-.066l-4.038-2.301a4.342 4.342 0 0 1-.118-.071 3.713 3.713 0 0 0 .002 1.296 3.754 3.754 0 0 0 .45 1.215v-.004Zm-1.06-8.69a3.697 3.697 0 0 0 .277 4.156c.303.389.682.716 1.113.962l4.08 2.326.015.004h.015c.006 0 .01-.001.015-.004A.057.057 0 0 0 9.365 16l1.712-.976-4.928-2.805a.67.67 0 0 1-.309-.398.561.561 0 0 1-.02-.17V6.92a3.874 3.874 0 0 0-.599.275 3.857 3.857 0 0 0-1.004.836 3.62 3.62 0 0 0-.376.531h-.004Zm14.016 3.217a.671.671 0 0 1 .245.24c.028.05.05.104.066.158a.662.662 0 0 1 .019.171v4.733a3.782 3.782 0 0 0 1.707-1.244 3.707 3.707 0 0 0 .349-4.006 3.754 3.754 0 0 0-1.469-1.51l-4.08-2.327a.207.207 0 0 0-.015-.004h-.015a.193.193 0 0 1-.015.004.053.053 0 0 0-.012.006l-1.704.972 4.928 2.807h-.004Zm1.701-2.522h-.002v.002l.002-.002Zm-.002-.002c.123-.7.04-1.421-.239-2.078a3.759 3.759 0 0 0-1.331-1.63 3.847 3.847 0 0 0-4.072-.173L9.83 7.698a.037.037 0 0 0-.011.01l-.009.013a.198.198 0 0 0-.006.03v1.942l4.928-2.808a.72.72 0 0 1 .16-.066.686.686 0 0 1 .503.066l4.039 2.301c.036.021.088.05.118.07ZM8.875 7.105a.663.663 0 0 1 .194-.463.6.6 0 0 1 .138-.103l4.038-2.298c.038-.023.091-.053.12-.067a3.833 3.833 0 0 0-4.043-.515A3.783 3.783 0 0 0 7.73 5.043a3.718 3.718 0 0 0-.592 2.011v4.648l.004.015a.054.054 0 0 0 .006.012.052.052 0 0 0 .023.02l1.706.972V7.104Zm.926 6.141 2.195 1.25 2.196-1.25v-2.499l-2.194-1.25-2.195 1.25-.002 2.5Z"/>
</svg>
