<svg width="24" height="24" viewBox="0 0 24 24" fill="none" xmlns="http://www.w3.org/2000/svg">
<path d="M21.5564 11.5102C21.7762 11.9938 21.9156 12.5106 21.9727 13.0379C22.0276 13.5652 22.0002 14.0988 21.886 14.6177C21.774 15.1367 21.5796 15.6348 21.3091 16.0933C21.1316 16.3997 20.9224 16.6873 20.6815 16.952C20.4427 17.2146 20.1765 17.4522 19.887 17.6606C19.5953 17.8691 19.2847 18.0441 18.955 18.1879C18.6275 18.3297 18.2852 18.438 17.9344 18.5089C17.7695 19.0133 17.5244 19.4906 17.2074 19.9199C16.8926 20.3492 16.5101 20.7265 16.0748 21.037C15.6394 21.3497 15.1576 21.5914 14.6462 21.754C14.1348 21.9186 13.6002 21.9999 13.0613 21.9999C12.7042 22.002 12.345 21.9645 11.9942 21.8936C11.6455 21.8207 11.3032 21.7102 10.9756 21.5664C10.6481 21.4226 10.3374 21.2434 10.0479 21.0349C9.76052 20.8265 9.49426 20.5868 9.25758 20.3221C8.72928 20.4347 8.1883 20.4618 7.65366 20.4076C7.11902 20.3513 6.59495 20.2138 6.10258 19.997C5.61231 19.7823 5.15798 19.4906 4.75858 19.1342C4.35919 18.7778 4.01896 18.3609 3.75059 17.9024C3.57097 17.596 3.42304 17.273 3.31104 16.9374C3.19904 16.6019 3.12508 16.2559 3.08704 15.9037C3.04901 15.5535 3.05112 15.1992 3.08916 14.847C3.1272 14.4969 3.20538 14.1509 3.31738 13.8153C2.95814 13.4214 2.66229 12.9733 2.44252 12.4898C2.22486 12.0042 2.08328 11.4894 2.02833 10.9621C1.97128 10.4348 2.00086 9.90123 2.11286 9.38227C2.22486 8.86331 2.41927 8.36519 2.68976 7.90667C2.86727 7.60029 3.07648 7.31059 3.31527 7.04798C3.55406 6.78537 3.82244 6.54778 4.11194 6.33936C4.40145 6.13094 4.71421 5.95378 5.04175 5.81206C5.37141 5.66825 5.71375 5.56196 6.06454 5.4911C6.22937 4.98464 6.4745 4.50944 6.78936 4.0801C7.10634 3.65076 7.48883 3.27352 7.92415 2.9609C8.35947 2.65035 8.84128 2.40859 9.35267 2.24394C9.86407 2.08137 10.3987 1.998 10.9376 2.00009C11.2947 1.998 11.6539 2.03343 12.0047 2.10638C12.3555 2.17933 12.6979 2.2877 13.0254 2.43151C13.353 2.57741 13.6636 2.75456 13.9531 2.96298C14.2426 3.17348 14.5089 3.41108 14.7456 3.67577C15.2717 3.56531 15.8127 3.53821 16.3474 3.5924C16.882 3.64659 17.404 3.78623 17.8963 4.0009C18.3866 4.21766 18.8409 4.50736 19.2403 4.86376C19.6397 5.21807 19.9799 5.63282 20.2483 6.09342C20.4279 6.39772 20.5759 6.72076 20.6879 7.0584C20.7999 7.39396 20.8759 7.73993 20.9119 8.09216C20.9499 8.44438 20.9499 8.7987 20.9097 9.15092C20.8717 9.50315 20.7935 9.84913 20.6815 10.1847C21.0429 10.5786 21.3366 11.0246 21.5564 11.5102ZM14.5152 20.4076C14.9759 20.22 15.3943 19.9428 15.7472 19.5948C16.1001 19.2467 16.3812 18.834 16.5714 18.3776C16.7615 17.9233 16.8609 17.4356 16.8609 16.9437V12.296C16.8595 12.2918 16.858 12.2869 16.8566 12.2814C16.8552 12.2772 16.8531 12.273 16.8503 12.2689C16.8475 12.2647 16.844 12.2612 16.8397 12.2584C16.8355 12.2543 16.8313 12.2515 16.827 12.2501L15.1217 11.2789V16.8937C15.1217 16.9499 15.1132 17.0083 15.0985 17.0625C15.0837 17.1188 15.0625 17.1709 15.0329 17.2209C15.0034 17.2709 14.9695 17.3168 14.9273 17.3564C14.8862 17.3967 14.84 17.4318 14.7899 17.4606L10.7516 19.7594C10.7178 19.7803 10.6607 19.8094 10.6312 19.8261C10.7981 19.9658 10.9798 20.0887 11.17 20.1971C11.3623 20.3055 11.561 20.3972 11.7681 20.4722C11.9752 20.5452 12.1886 20.6014 12.4041 20.6389C12.6218 20.6765 12.8416 20.6952 13.0613 20.6952C13.56 20.6952 14.0545 20.5973 14.5152 20.4076ZM4.89805 17.2521C5.14952 17.6794 5.4813 18.0504 5.87646 18.3505C6.27375 18.6506 6.72386 18.8695 7.20566 18.9966C7.68747 19.1237 8.19041 19.1571 8.6849 19.0925C9.17939 19.0279 9.65486 18.8695 10.0881 18.6235L14.1708 16.2997L14.1813 16.2893C14.1841 16.2865 14.1863 16.2823 14.1877 16.2767C14.1905 16.2726 14.1926 16.2684 14.194 16.2642V14.3051L9.26603 17.1167C9.21532 17.1459 9.16249 17.1667 9.10754 17.1834C9.05049 17.198 8.99343 17.2042 8.93426 17.2042C8.8772 17.2042 8.82015 17.198 8.76309 17.1834C8.70815 17.1667 8.6532 17.1459 8.60249 17.1167L4.56417 14.8157C4.52824 14.7949 4.47541 14.7636 4.44583 14.7449C4.40779 14.9595 4.38877 15.1763 4.38877 15.3931C4.38877 15.6098 4.40991 15.8266 4.44794 16.0412C4.48598 16.2538 4.54515 16.4643 4.61911 16.6686C4.69519 16.8728 4.78817 17.0687 4.89805 17.2563V17.2521ZM3.83723 8.5611C3.58787 8.98836 3.42727 9.45938 3.36176 9.94708C3.29625 10.4348 3.33006 10.9287 3.45897 11.406C3.58787 11.8812 3.80976 12.3251 4.11406 12.717C4.41836 13.1067 4.79662 13.4339 5.22771 13.6799L9.3083 16.0058C9.31252 16.0072 9.31745 16.0086 9.32309 16.01H9.33788C9.34352 16.01 9.34845 16.0086 9.35267 16.0058C9.3569 16.0044 9.36113 16.0023 9.36535 15.9996L11.077 15.0242L6.14907 12.2188C6.10046 12.1897 6.05397 12.1542 6.01171 12.1146C5.97076 12.0741 5.93525 12.0286 5.90605 11.9792C5.87858 11.9291 5.85533 11.877 5.84054 11.8208C5.82575 11.7666 5.81729 11.7103 5.81941 11.6519V6.91876C5.61231 6.99379 5.41156 7.0855 5.22137 7.19387C5.03119 7.30434 4.85156 7.42939 4.68251 7.56903C4.51557 7.70867 4.35919 7.8629 4.2176 8.02963C4.07602 8.19428 3.95134 8.37352 3.84146 8.5611H3.83723ZM17.8541 11.7791C17.9048 11.8083 17.9513 11.8416 17.9935 11.8833C18.0337 11.9229 18.0696 11.9687 18.0992 12.0188C18.1267 12.0688 18.1499 12.123 18.1647 12.1772C18.1774 12.2334 18.1858 12.2897 18.1837 12.3481V17.0812C18.8621 16.8353 19.4538 16.4039 19.8912 15.837C20.3307 15.2701 20.5949 14.5927 20.6562 13.8841C20.7174 13.1755 20.5737 12.4627 20.2399 11.8312C19.906 11.1997 19.3967 10.6745 18.7712 10.3202L14.6906 7.9942C14.6864 7.99281 14.6814 7.99142 14.6758 7.99003H14.661C14.6568 7.99142 14.6519 7.99281 14.6462 7.9942C14.642 7.99559 14.6378 7.99767 14.6336 8.00045L12.9303 8.97168L17.8583 11.7791H17.8541ZM19.5552 9.25722H19.5531V9.2593L19.5552 9.25722ZM19.5531 9.25513C19.6756 8.55485 19.5932 7.83372 19.3143 7.1772C19.0375 6.52068 18.5747 5.95587 17.983 5.54737C17.3913 5.14095 16.6939 4.90752 15.9733 4.87626C15.2506 4.84708 14.5363 5.02007 13.9108 5.37438L9.83026 7.69825C9.82603 7.70103 9.82251 7.7045 9.81969 7.70867L9.81124 7.72117C9.80983 7.72534 9.80842 7.7302 9.80701 7.73576C9.8056 7.73993 9.8049 7.74479 9.8049 7.75035V9.69281L14.7329 6.88541C14.7836 6.85624 14.8385 6.83539 14.8935 6.81872C14.9505 6.80413 15.0076 6.79788 15.0646 6.79788C15.1238 6.79788 15.1809 6.80413 15.2379 6.81872C15.2929 6.83539 15.3457 6.85624 15.3964 6.88541L19.4347 9.18635C19.4707 9.2072 19.5235 9.23637 19.5531 9.25513ZM8.87509 7.10425C8.87509 7.04798 8.88354 6.99171 8.89834 6.93544C8.91313 6.88125 8.93426 6.82706 8.96384 6.77704C8.99343 6.7291 9.02724 6.68325 9.0695 6.64157C9.10965 6.60197 9.15615 6.56653 9.20686 6.53944L13.2452 4.24058C13.2832 4.21766 13.336 4.18848 13.3656 4.17389C12.812 3.71745 12.1358 3.42567 11.4194 3.33605C10.703 3.24434 9.97607 3.35689 9.32309 3.6591C8.668 3.9613 8.11434 4.44275 7.72762 5.043C7.34091 5.64533 7.13593 6.34144 7.13593 7.05423V11.702C7.13734 11.7075 7.13875 11.7124 7.14016 11.7166C7.14156 11.7207 7.14368 11.7249 7.14649 11.7291C7.14931 11.7332 7.15283 11.7374 7.15706 11.7416C7.15988 11.7443 7.1641 11.7471 7.16974 11.7499L8.87509 12.7211V7.10425ZM9.80067 13.2463L11.9963 14.4969L14.1919 13.2463V10.7474L11.9984 9.4969L9.80278 10.7474L9.80067 13.2463Z" fill="#888888"/>
</svg>
