<svg width="24" height="24" viewBox="0 0 24 24" fill="none" xmlns="http://www.w3.org/2000/svg">
<path d="M21.9896 2V7.02537L16.9946 12.0404V7.00447L21.9896 2.00008" fill="#888888"/>
<path d="M12 2V7.02537L16.995 12.0404V7.00447L12 2.00008" fill="#3A3A3A"/>
<path d="M22.0002 22.0701H16.995L12 17.0551H17.0156L22.0002 22.0701Z" fill="#888888"/>
<path d="M22.0002 12.04H16.995L12 17.0551H17.0156L22.0002 12.04Z" fill="#3A3A3A"/>
<path d="M2.01025 22.0804V17.0551L7.00523 12.04V17.0759L2.01025 22.0804Z" fill="#888888"/>
<path d="M12.0003 22.0804V17.0551L7.00537 12.04V17.0759L12.0003 22.0805" fill="#3A3A3A"/>
<path d="M2 2.01013H7.00526L12.0002 7.02517H6.98461L2 2.01013Z" fill="#888888"/>
<path d="M2 12.0401H7.00526L12.0002 7.02502H6.98461L2 12.0401Z" fill="#3A3A3A"/>
</svg>
