<svg xmlns="http://www.w3.org/2000/svg" width="24" height="24" fill="none" viewBox="0 0 24 24">
  <path fill="#A596FF" d="M21.99 2v5.025l-4.995 5.015V7.004L21.99 2"/>
  <path fill="#000" d="M12 2v5.025l4.995 5.015V7.004L12 2"/>
  <path fill="#A596FF" d="M22 22.07h-5.005L12 17.055h5.016L22 22.07Z"/>
  <path fill="#000" d="M22 12.04h-5.005L12 17.055h5.016L22 12.04Z"/>
  <path fill="#A596FF" d="M2.01 22.08v-5.025l4.995-5.015v5.036L2.01 22.08Z"/>
  <path fill="#000" d="M12 22.08v-5.025L7.005 12.04v5.036L12 22.08"/>
  <path fill="#A596FF" d="M2 2.01h5.005L12 7.025H6.985L2 2.01Z"/>
  <path fill="#000" d="M2 12.04h5.005L12 7.025H6.985L2 12.04Z"/>
</svg>
