<svg width="24" height="24" viewBox="0 0 24 24" fill="none" xmlns="http://www.w3.org/2000/svg">
<path d="M10.9971 10.4902C11.2546 9.98207 11.86 9.74095 12.4033 9.94971C12.9832 10.1727 13.2723 10.8244 13.0493 11.4043L11.167 16.2939C11.4364 16.3458 11.715 16.3745 12.0005 16.3745C14.4163 16.3742 16.3742 14.4163 16.3745 12.0005C16.3745 9.5844 14.4165 7.62526 12.0005 7.625C9.58424 7.625 7.625 9.58424 7.625 12.0005C7.62505 12.4225 7.68433 12.8292 7.79492 13.2134L7.95898 13.6997C8.11191 14.2492 7.82639 14.8354 7.28369 15.0474C6.74117 15.2591 6.1345 15.0215 5.87451 14.5142L5.82764 14.4087L5.72363 14.126C5.49729 13.4576 5.37505 12.7423 5.375 12.0005C5.375 8.3416 8.3416 5.375 12.0005 5.375C15.6592 5.37526 18.6245 8.34176 18.6245 12.0005C18.6242 15.659 15.659 18.6242 12.0005 18.6245C11.4323 18.6245 10.8802 18.5502 10.3525 18.415L9.12646 21.6055C8.90331 22.1847 8.25286 22.4739 7.67334 22.2515C7.09343 22.0284 6.80285 21.3768 7.02588 20.7969L10.9502 10.5957L10.9971 10.4902Z" fill="#888888"/>
<path d="M20.8745 12.0005C20.8745 7.09912 16.9018 3.12526 12.0005 3.125C7.09896 3.125 3.125 7.09896 3.125 12.0005C3.12526 16.9018 7.09912 20.8745 12.0005 20.8745C16.9016 20.8742 20.8742 16.9016 20.8745 12.0005ZM23.1245 12.0005C23.1242 18.1443 18.1443 23.1242 12.0005 23.1245C5.85648 23.1245 0.875264 18.1444 0.875 12.0005C0.875 5.85632 5.85632 0.875 12.0005 0.875C18.1444 0.875264 23.1245 5.85648 23.1245 12.0005Z" fill="#888888"/>
</svg>
