<svg width="24" height="24" viewBox="0 0 24 24" fill="none" xmlns="http://www.w3.org/2000/svg">
<path fill-rule="evenodd" clip-rule="evenodd" d="M10.274 19.7084C7.92927 19.7076 5.58448 19.7183 3.2399 19.703C2.05095 19.6953 1.83476 19.4165 2.1024 18.2611C3.00975 14.3423 3.94634 10.4302 4.83352 6.50702C5.07141 5.45481 5.58458 4.98974 6.71913 5.00017C11.4081 5.0434 16.0979 5.01404 20.7871 5.0188C21.9631 5.01991 22.1606 5.26986 21.8966 6.45499C21.0395 10.3025 20.177 14.149 19.2993 17.992C18.9708 19.4302 18.5924 19.7047 17.0696 19.708C14.8044 19.7128 12.5391 19.7092 10.274 19.7084Z" fill="#2671BE"/>
<path fill-rule="evenodd" clip-rule="evenodd" d="M12.2689 12.0287C12.1117 11.8454 11.9391 11.6345 11.7563 11.4328C10.7199 10.2889 9.69264 9.13643 8.63777 8.00961C8.15506 7.49393 8.00122 6.99313 8.58092 6.48413C9.1538 5.981 9.71669 6.02555 10.2422 6.6044C11.7057 8.21592 13.1675 9.82927 14.6553 11.4186C15.2107 12.0123 15.0813 12.4159 14.4695 12.8557C12.1213 14.5446 9.78627 16.2518 7.45381 17.9622C6.92954 18.3468 6.42971 18.4431 6.00619 17.8751C5.53896 17.2485 5.97124 16.8758 6.45589 16.5251C8.18919 15.2706 9.91913 14.0115 11.6416 12.7425C11.8816 12.5657 12.226 12.4626 12.2689 12.0287Z" fill="#FDFDFE"/>
<path fill-rule="evenodd" clip-rule="evenodd" d="M13.0112 18.0893C12.38 18.0893 11.7478 18.1109 11.118 18.0824C10.6155 18.0598 10.3131 17.7808 10.3194 17.2549C10.3255 16.7577 10.5778 16.3838 11.0798 16.3704C12.4594 16.3336 13.8411 16.3415 15.2213 16.3683C15.6599 16.3768 15.9837 16.6608 15.981 17.1149C15.9779 17.6359 15.702 18.0395 15.1405 18.0731C14.4331 18.1156 13.7212 18.0836 13.0113 18.0836L13.0112 18.0893Z" fill="#FCFDFD"/>
</svg>
