<svg width="24" height="24" viewBox="0 0 24 24" fill="none" xmlns="http://www.w3.org/2000/svg">
<path d="M6.71875 5C11.4077 5.04323 16.0979 5.0138 20.7871 5.01855C21.9631 5.01967 22.1605 5.26994 21.8965 6.45508C21.0394 10.3026 20.1765 14.1492 19.2988 17.9922C18.9704 19.4302 18.5921 19.7047 17.0693 19.708C14.8044 19.7128 12.5393 19.7088 10.2744 19.708C7.92984 19.7072 5.58471 19.7184 3.24023 19.7031C2.05129 19.6954 1.8349 19.4162 2.10254 18.2607C3.00986 14.3421 3.94683 10.4299 4.83398 6.50684C5.07188 5.45493 5.58457 4.98968 6.71875 5ZM10.2422 6.60449C9.71676 6.02586 9.15384 5.98138 8.58105 6.48438C8.00146 6.9933 8.15514 7.49417 8.6377 8.00977C9.69254 9.13656 10.7204 10.2897 11.7568 11.4336C11.9394 11.6351 12.1115 11.8462 12.2686 12.0293C12.2255 12.4629 11.8815 12.5665 11.6416 12.7432C9.91922 14.0121 8.18923 15.271 6.45605 16.5254C5.97154 16.876 5.53922 17.2488 6.00586 17.875C6.42935 18.4429 6.92987 18.3474 7.4541 17.9629C9.78652 16.2525 12.1215 14.5453 14.4697 12.8564C15.0815 12.4166 15.2106 12.0125 14.6553 11.4189C13.1676 9.82964 11.7057 8.21596 10.2422 6.60449ZM15.2217 16.3691C13.8416 16.3423 12.4597 16.3344 11.0801 16.3711C10.5783 16.3846 10.3256 16.7578 10.3193 17.2549C10.3131 17.7807 10.6157 18.0604 11.1182 18.083C11.7479 18.1114 12.3805 18.0898 13.0117 18.0898V18.084C13.7215 18.084 14.4333 18.1158 15.1406 18.0732C15.702 18.0396 15.9782 17.6361 15.9814 17.1152C15.9841 16.6613 15.6601 16.3778 15.2217 16.3691Z" fill="#888888"/>
</svg>
