<svg width="24" height="24" viewBox="0 0 24 24" fill="none" xmlns="http://www.w3.org/2000/svg">
<path d="M11.966 2C7.244 2 7.19327 3.83291 7.19327 4.21018C7.19327 4.78255 7.19327 6.5 7.19327 6.5H12.0569V7.18746C12.0569 7.18746 6.99291 7.18746 5.26146 7.18746C3.81618 7.18746 2 8.06618 2 11.9602C2 15.5371 3.41673 16.9204 4.84655 16.9204C5.27109 16.9204 6.54545 16.9204 6.54545 16.9204C6.54545 16.9204 6.54545 15.1449 6.54545 14.534C6.54545 13.5356 7.04018 11.6875 9.34655 11.6875C12.2393 11.6875 12.9776 11.6875 14.1704 11.6875C14.8798 11.6875 16.8805 11.3791 16.8805 9.06818C16.8805 6.62236 16.8805 5.81545 16.8805 4.66473C16.8807 4.09145 16.7827 2 11.966 2ZM9.28418 3.53982C9.76818 3.53982 10.1593 3.93073 10.1593 4.41491C10.1593 4.89873 9.76818 5.29 9.28418 5.29C8.80018 5.29 8.40909 4.89891 8.40909 4.41491C8.40909 3.93073 8.80018 3.53982 9.28418 3.53982Z" fill="#888888"/>
<path d="M12.0339 22C16.7537 22 16.8124 20.1326 16.8124 19.7898C16.8124 19.2175 16.8124 17.5 16.8124 17.5H11.943V16.8126C11.943 16.8126 17.0397 16.8126 18.7384 16.8126C20.1946 16.8126 21.9999 15.9118 21.9999 12.0398C21.9999 7.79947 20.0839 7.07965 19.1533 7.07965C18.7286 7.07965 17.4544 7.07965 17.4544 7.07965C17.4544 7.07965 17.4544 8.93711 17.4544 9.46601C17.4544 10.4644 16.9761 12.3126 14.6533 12.3126C11.7606 12.3126 11.1122 12.3126 9.82932 12.3126C9.12169 12.3126 7.11914 12.6573 7.11914 14.9318C7.11914 17.5637 7.11914 18.2527 7.11914 19.3353C7.11914 20.2862 7.70023 22 12.0339 22ZM14.7159 20.4602C14.2319 20.4602 13.8408 20.0691 13.8408 19.5851C13.8408 19.1011 14.2317 18.71 14.7159 18.71C15.1997 18.71 15.591 19.1011 15.591 19.5851C15.591 20.0691 15.1997 20.4602 14.7159 20.4602Z" fill="#888888"/>
</svg>
