<svg width="24" height="24" viewBox="0 0 24 24" fill="none" xmlns="http://www.w3.org/2000/svg">
<path d="M12 22C17.5228 22 22 17.5228 22 12C22 6.47715 17.5228 2 12 2C6.47715 2 2 6.47715 2 12C2 17.5228 6.47715 22 12 22Z" fill="#FF4500"/>
<path d="M18.6701 12C18.6721 12.137 18.6552 12.2737 18.6192 12.406C18.5831 12.5382 18.5287 12.665 18.4572 12.782C18.3859 12.899 18.2984 13.0055 18.1974 13.0982C18.0964 13.191 17.9829 13.269 17.8602 13.33C17.8629 13.3665 17.8652 13.4032 17.8664 13.44C17.8694 13.5133 17.8694 13.5867 17.8664 13.66C17.8652 13.6967 17.8629 13.7335 17.8602 13.77C17.8602 16.01 15.2501 17.83 12.0301 17.83C8.81015 17.83 6.20015 16.01 6.20015 13.77C6.1974 13.7335 6.19515 13.6967 6.1939 13.66C6.19089 13.5867 6.19089 13.5133 6.1939 13.44C6.19515 13.4032 6.1974 13.3665 6.20015 13.33C6.00784 13.2416 5.83703 13.1124 5.69955 12.9515C5.56206 12.7906 5.46119 12.6017 5.4039 12.398C5.34671 12.1941 5.33452 11.9803 5.3682 11.7713C5.40187 11.5622 5.48059 11.363 5.5989 11.1875C5.71711 11.0119 5.8721 10.8642 6.05311 10.7546C6.23412 10.6449 6.43682 10.576 6.64715 10.5525C6.8575 10.5289 7.07047 10.5513 7.27129 10.6183C7.47211 10.6852 7.65597 10.7949 7.81015 10.94C8.09636 10.746 8.39622 10.5729 8.7074 10.4222C9.01865 10.2717 9.3404 10.1437 9.67015 10.0397C9.9999 9.93573 10.3369 9.85598 10.6781 9.80073C11.0194 9.74548 11.3644 9.71523 11.7101 9.70998L12.4501 6.23998C12.4584 6.19973 12.4746 6.16173 12.4979 6.12773C12.5209 6.09398 12.5507 6.06498 12.5849 6.04273C12.6194 6.02048 12.6579 6.00523 12.6984 5.99773C12.7386 5.99048 12.7801 5.99123 12.8201 5.99998L15.2701 6.48998C15.5174 6.06523 16.0364 5.88323 16.4947 6.06023C16.9529 6.23723 17.2149 6.72098 17.1124 7.20148C17.0101 7.68198 16.5737 8.01698 16.0831 7.99173C15.5924 7.96648 15.1926 7.58848 15.1401 7.09998L13.0001 6.64998L12.3501 9.76998C12.6916 9.77723 13.0324 9.80923 13.3694 9.86548C14.0443 9.97797 14.6994 10.1873 15.3144 10.487C15.6216 10.6365 15.9176 10.8079 16.2001 11C16.4033 10.8049 16.6586 10.6729 16.9352 10.6197C17.2117 10.5664 17.4978 10.5943 17.7589 10.7C18.02 10.8056 18.245 10.9846 18.4066 11.2152C18.5684 11.4459 18.6599 11.7184 18.6701 12ZM8.74615 13.3827C8.79665 13.504 8.87015 13.6142 8.96315 13.707C9.0559 13.8 9.16615 13.8735 9.2874 13.924C9.40876 13.9742 9.53882 14 9.67015 14C10.0746 14 10.4391 13.7562 10.5942 13.3827C10.7489 13.009 10.6631 12.579 10.3771 12.293C10.0911 12.007 9.66115 11.9212 9.2874 12.076C8.9139 12.231 8.67015 12.5955 8.67015 13C8.67015 13.1312 8.6959 13.2612 8.74615 13.3827ZM14.4736 15.7832C14.5249 15.7332 14.5541 15.665 14.5552 15.5935C14.5562 15.5217 14.5284 15.4527 14.4784 15.4015C14.4284 15.3502 14.3602 15.321 14.2886 15.32C14.2169 15.319 14.1479 15.3467 14.0901 15.39C13.9398 15.4978 13.7805 15.5928 13.6142 15.6737C13.4477 15.7547 13.2748 15.8216 13.0971 15.8735C12.9196 15.9252 12.7379 15.962 12.5541 15.9832C12.3701 16.0045 12.1849 16.01 12.0001 16C11.8156 16.0082 11.6307 16.0007 11.4474 15.9777C11.2641 15.955 11.0831 15.9165 10.9064 15.8627C10.7294 15.8092 10.5576 15.7407 10.3924 15.6582C10.2271 15.5757 10.0691 15.4792 9.92015 15.37C9.8684 15.3275 9.80265 15.3057 9.73565 15.309C9.66865 15.3122 9.6054 15.3405 9.5579 15.3877C9.51065 15.4352 9.4824 15.4985 9.47915 15.5655C9.4759 15.6325 9.49765 15.6982 9.54015 15.75C9.7159 15.8825 9.90265 15.9995 10.0984 16.1C10.2941 16.2005 10.4984 16.2837 10.7084 16.3492C10.9184 16.4147 11.1336 16.462 11.3519 16.4907C11.5701 16.5192 11.7904 16.529 12.0101 16.52C12.2299 16.529 12.4502 16.5192 12.6684 16.4907C13.1055 16.4332 13.5295 16.3011 13.9219 16.1C14.1176 15.9995 14.3044 15.8825 14.4802 15.75L14.4736 15.7832ZM14.2901 14.08C14.4256 14.0815 14.5602 14.0552 14.6854 14.0032C14.8106 13.951 14.9239 13.874 15.0184 13.7767C15.1129 13.6795 15.1864 13.564 15.2349 13.4372C15.2834 13.3106 15.3056 13.1755 15.3001 13.04C15.3001 12.6355 15.0564 12.271 14.6829 12.116C14.3091 11.9612 13.8791 12.047 13.5932 12.333C13.3071 12.619 13.2214 13.049 13.3762 13.4227C13.5311 13.7962 13.8956 14.04 14.3001 14.04L14.2901 14.08Z" fill="white"/>
</svg>
