<svg xmlns="http://www.w3.org/2000/svg" width="24" height="24" fill="none" viewBox="0 0 24 24">
  <path fill="#888" d="M12 2c5.523 0 10 4.477 10 10s-4.477 10-10 10S2 17.523 2 12 6.477 2 12 2Zm4.495 4.06a1 1 0 0 0-1.225.43L12.82 6a.314.314 0 0 0-.322.128.309.309 0 0 0-.048.112l-.74 3.47a7.143 7.143 0 0 0-3.9 1.23 1.462 1.462 0 0 0-2.211.248A1.461 1.461 0 0 0 6.2 13.33a2.696 2.696 0 0 0-.006.33l.006.11c0 2.24 2.61 4.06 5.83 4.06s5.83-1.82 5.83-4.06a2.648 2.648 0 0 0 .006-.33 2.687 2.687 0 0 0-.006-.11 1.462 1.462 0 0 0 .81-1.33 1.46 1.46 0 0 0-2.47-1 7.118 7.118 0 0 0-3.85-1.23L13 6.65l2.14.45a1 1 0 1 0 1.355-1.04Zm-6.76 9.249a.27.27 0 0 1 .185.061 3.261 3.261 0 0 0 1.527.607c.184.023.369.031.553.023a3.283 3.283 0 0 0 2.09-.61.329.329 0 0 1 .2-.07.27.27 0 0 1 .184.463l.006-.033a3.843 3.843 0 0 1-2.14.77h-.66a3.82 3.82 0 0 1-2.14-.77.27.27 0 0 1 .195-.441Zm3.858-2.976a1 1 0 0 1 1.707.707.998.998 0 0 1-1.01 1.04l.01-.04a1 1 0 0 1-.707-1.707Zm-4.306-.257a1 1 0 1 1 .765 1.849 1 1 0 0 1-.765-1.849Z"/>
</svg>
