<svg width="24" height="24" viewBox="0 0 24 24" fill="none" xmlns="http://www.w3.org/2000/svg">
<path d="M12 2C17.5228 2 22 6.47715 22 12C22 17.5228 17.5228 22 12 22C6.47715 22 2 17.5228 2 12C2 6.47715 6.47715 2 12 2ZM16.4951 6.06055C16.0369 5.88355 15.5178 6.06548 15.2705 6.49023L12.8203 6C12.7803 5.99125 12.7385 5.9908 12.6982 5.99805C12.6578 6.00556 12.6194 6.02076 12.585 6.04297C12.5507 6.06521 12.521 6.0942 12.498 6.12793C12.4748 6.16192 12.4584 6.20001 12.4502 6.24023L11.71 9.70996C11.3643 9.71522 11.0189 9.74554 10.6777 9.80078C10.3366 9.85603 9.99954 9.93608 9.66992 10.04C9.34027 10.144 9.01819 10.2714 8.70703 10.4219C8.39594 10.5726 8.09669 10.7465 7.81055 10.9404C7.65641 10.7954 7.47225 10.6851 7.27148 10.6182C7.07076 10.5513 6.85772 10.5292 6.64746 10.5527C6.43713 10.5762 6.23375 10.6452 6.05273 10.7549C5.8719 10.8645 5.71675 11.0121 5.59863 11.1875C5.48037 11.363 5.40183 11.5625 5.36816 11.7715C5.33453 11.9804 5.34712 12.1947 5.4043 12.3984C5.46156 12.6018 5.56202 12.7905 5.69922 12.9512C5.8367 13.1121 6.00788 13.2417 6.2002 13.3301C6.19745 13.3666 6.19559 13.4037 6.19434 13.4404C6.19134 13.5136 6.19133 13.587 6.19434 13.6602C6.19558 13.6967 6.19747 13.7332 6.2002 13.7695C6.2002 16.0095 8.81027 17.8301 12.0303 17.8301C15.2502 17.83 17.8604 16.0095 17.8604 13.7695C17.8631 13.7332 17.865 13.6967 17.8662 13.6602C17.8692 13.587 17.8692 13.5136 17.8662 13.4404C17.865 13.4037 17.8631 13.3665 17.8604 13.3301C17.9829 13.2691 18.0964 13.1912 18.1973 13.0986C18.2982 13.0059 18.3858 12.8991 18.457 12.7822C18.5285 12.6653 18.5831 12.5384 18.6191 12.4062C18.6551 12.274 18.6719 12.137 18.6699 12C18.6597 11.7185 18.568 11.4455 18.4062 11.2148C18.2446 10.9844 18.0197 10.8058 17.7588 10.7002C17.4978 10.5945 17.212 10.5669 16.9355 10.6201C16.659 10.6733 16.4033 10.805 16.2002 11C15.9177 10.808 15.6216 10.6368 15.3145 10.4873C14.6994 10.1876 14.044 9.97773 13.3691 9.86523C13.0324 9.80904 12.6918 9.7768 12.3506 9.76953L13 6.65039L15.1406 7.09961C15.1931 7.58807 15.5923 7.96688 16.083 7.99219C16.5735 8.01744 17.0101 7.68167 17.1123 7.20117C17.2146 6.72094 16.953 6.23767 16.4951 6.06055ZM9.73535 15.3086C9.80232 15.3053 9.86818 15.3277 9.91992 15.3701C10.0689 15.4794 10.2273 15.5757 10.3926 15.6582C10.5577 15.7406 10.7294 15.8088 10.9062 15.8623C11.0829 15.916 11.264 15.9548 11.4473 15.9775C11.6305 16.0005 11.8155 16.0082 12 16C12.1846 16.01 12.3699 16.0046 12.5537 15.9834C12.7374 15.9622 12.9193 15.9247 13.0967 15.873C13.2743 15.8211 13.4479 15.7548 13.6143 15.6738C13.7806 15.5929 13.9395 15.4975 14.0898 15.3896C14.1476 15.3464 14.2173 15.3193 14.2891 15.3203C14.3604 15.3214 14.4286 15.3502 14.4785 15.4014C14.5285 15.4526 14.5557 15.522 14.5547 15.5938C14.5536 15.6651 14.5248 15.7333 14.4736 15.7832L14.4805 15.75C14.3048 15.8825 14.1176 15.9991 13.9219 16.0996C13.5295 16.3007 13.1051 16.4337 12.668 16.4912C12.559 16.5054 12.4495 16.5147 12.3398 16.5195H11.6807C11.5708 16.5147 11.4608 16.5055 11.3516 16.4912C11.1334 16.4625 10.9179 16.4151 10.708 16.3496C10.4981 16.2841 10.2943 16.2001 10.0986 16.0996C9.90288 15.9991 9.71579 15.8825 9.54004 15.75C9.49757 15.6983 9.47624 15.6324 9.47949 15.5654C9.48276 15.4985 9.51046 15.4352 9.55762 15.3877C9.60505 15.3405 9.66845 15.3119 9.73535 15.3086ZM13.5928 12.333C13.8787 12.047 14.3089 11.9616 14.6826 12.1162C15.0561 12.2712 15.2998 12.6355 15.2998 13.04C15.3053 13.1755 15.2839 13.3109 15.2354 13.4375C15.1869 13.5641 15.1129 13.6792 15.0186 13.7764C14.9241 13.8736 14.8107 13.9507 14.6855 14.0029C14.5603 14.0549 14.4255 14.0816 14.29 14.0801L14.2998 14.04C13.8955 14.0399 13.5309 13.7962 13.376 13.4229C13.2213 13.0492 13.3069 12.619 13.5928 12.333ZM9.28711 12.0762C9.66081 11.9214 10.091 12.0071 10.377 12.293C10.663 12.579 10.7485 13.0091 10.5938 13.3828C10.4387 13.7562 10.0744 14 9.66992 14C9.53867 14 9.4084 13.974 9.28711 13.9238C9.16598 13.8733 9.05556 13.8 8.96289 13.707C8.86995 13.6143 8.79657 13.504 8.74609 13.3828C8.69584 13.2613 8.66992 13.1312 8.66992 13C8.66992 12.5956 8.91378 12.2312 9.28711 12.0762Z" fill="#888888"/>
</svg>
