<svg xmlns="http://www.w3.org/2000/svg" width="24" height="24" fill="none" viewBox="0 0 24 24">
  <path fill="#888" d="M20.875 15a2.877 2.877 0 0 0-1.763-2.652 8.11 8.11 0 0 1-.324 1.973 1.125 1.125 0 1 1-2.156-.642 5.875 5.875 0 0 0 .183-2.52 5.876 5.876 0 0 0-6.69-4.968v11.684H18A2.875 2.875 0 0 0 20.875 15Zm2.25 0A5.125 5.125 0 0 1 18 20.126h-8A2.125 2.125 0 0 1 7.876 18V6.036c0-.91.606-1.835 1.646-2.026l.362-.059a8.127 8.127 0 0 1 8.978 5.996A5.128 5.128 0 0 1 23.125 15ZM.875 19v-7a1.125 1.125 0 0 1 2.25 0v7a1.125 1.125 0 0 1-2.25 0Zm3.5 0V8a1.125 1.125 0 0 1 2.25 0v11a1.125 1.125 0 0 1-2.25 0Z"/>
</svg>
