<svg xmlns="http://www.w3.org/2000/svg" width="24" height="24" fill="none" viewBox="0 0 24 24">
  <path fill="#888" d="M20.875 12a8.875 8.875 0 1 0-17.75 0 8.875 8.875 0 0 0 17.75 0Zm2.25 0c0 6.144-4.98 11.124-11.124 11.125C5.856 23.125.875 18.145.875 12 .875 5.856 5.856.875 12.001.875c6.143 0 11.124 4.981 11.124 11.126Z"/>
  <path fill="#888" d="M15.646 15a1.126 1.126 0 0 1-1.033 2l1.033-2Zm-4.644-1.124c1.671 0 3.251.405 4.643 1.125l-.517.998L14.613 17a7.837 7.837 0 0 0-3.611-.875c-.72 0-1.415.096-2.074.276l-.295-1.086-.296-1.085c.85-.231 1.744-.354 2.665-.354ZM8.928 16.4a1.125 1.125 0 0 1-.59-2.171l.59 2.17ZM11 10.374c2.23 0 4.321.604 6.118 1.656a1.124 1.124 0 0 1-1.137 1.94 9.827 9.827 0 0 0-4.98-1.346 9.86 9.86 0 0 0-3.143.512l-.11.03a1.126 1.126 0 0 1-.606-2.165l.459-.143a12.133 12.133 0 0 1 3.4-.484Zm.5-3.499c2.645 0 5.103.81 7.134 2.196a1.125 1.125 0 1 1-1.269 1.859A10.368 10.368 0 0 0 11.5 9.125c-1.456 0-2.848.273-4.118.732a1.124 1.124 0 1 1-.764-2.115 14.36 14.36 0 0 1 4.882-.867Z"/>
</svg>
