<svg xmlns="http://www.w3.org/2000/svg" width="24" height="24" fill="none" viewBox="0 0 24 24">
  <path fill="#888" d="M5.875 16a4.123 4.123 0 0 1 3-3.966v-.778A4.876 4.876 0 0 0 10 20.875a4.875 4.875 0 0 0 4.875-4.876V7.745a1.126 1.126 0 0 1 1.768-.923 5.836 5.836 0 0 0 2.232.94V7a5.129 5.129 0 0 1-3.874-3.875h-.876v12.874a4.125 4.125 0 1 1-8.25 0Zm11.25 0A7.125 7.125 0 1 1 10 8.874c.621 0 1.125.503 1.125 1.125v3c0 .62-.504 1.124-1.125 1.124A1.875 1.875 0 1 0 11.875 16V2l.006-.116A1.125 1.125 0 0 1 13 .875h3c.621 0 1.125.504 1.125 1.125A2.876 2.876 0 0 0 20 4.875c.622 0 1.125.504 1.125 1.125v3c0 .621-.504 1.125-1.125 1.126a8.108 8.108 0 0 1-2.875-.526V16Z"/>
</svg>
