<svg xmlns="http://www.w3.org/2000/svg" width="24" height="24" fill="none" viewBox="0 0 24 24">
  <path fill="#888" d="M9.753 12.656a1.125 1.125 0 1 1 1.59 1.591l-7.548 7.548a1.125 1.125 0 1 1-1.59-1.59l7.548-7.549ZM20.204 2.205a1.125 1.125 0 1 1 1.591 1.59l-7.548 7.549a1.125 1.125 0 1 1-1.59-1.591l7.547-7.548Z"/>
  <path fill="#888" d="m8 1.875.134.007c.31.038.593.203.778.459l13 18A1.127 1.127 0 0 1 21 22.125h-5c-.36 0-.7-.173-.912-.466l-13-18A1.127 1.127 0 0 1 3 1.875h5Zm8.575 18h2.223L7.425 4.125H5.202l11.373 15.75Z"/>
</svg>
