<svg width="24" height="24" viewBox="0 0 24 24" fill="none" xmlns="http://www.w3.org/2000/svg">
<path d="M20.8745 7C20.8745 5.96447 20.035 5.125 18.9995 5.125H5C3.96447 5.125 3.125 5.96447 3.125 7V17.0005C3.12526 18.0358 3.96463 18.8755 5 18.8755H18.9995C20.0349 18.8755 20.8742 18.0358 20.8745 17.0005V7ZM23.1245 17.0005C23.1242 19.2784 21.2775 21.1255 18.9995 21.1255H5C2.72199 21.1255 0.875264 19.2784 0.875 17.0005V7C0.875 4.72183 2.72183 2.875 5 2.875H18.9995C21.2777 2.875 23.1245 4.72183 23.1245 7V17.0005Z" fill="#888888"/>
<path d="M8.64404 8.89624C8.81344 7.70692 10.1202 7.02241 11.1943 7.5603L11.4214 7.6936L15.2637 10.3567C16.4109 11.1521 16.411 12.8484 15.2637 13.6438L11.4214 16.3069C10.2401 17.1253 8.625 16.2792 8.625 14.842V9.15845L8.64404 8.89624ZM10.875 13.947L13.6846 12.0002L10.875 10.052V13.947Z" fill="#888888"/>
</svg>
