<svg xmlns="http://www.w3.org/2000/svg" width="24" height="24" fill="none" viewBox="0 0 24 24">
  <path fill="#888" d="M3 19.866c.23 0 .442.07.62.188.042.028.08.06.117.094.074.065.143.136.198.218a1.12 1.12 0 0 1 0 1.258 1.124 1.124 0 0 1-1.733.166 1.122 1.122 0 0 1 .167-1.729A1.12 1.12 0 0 1 3 19.866Zm8.997 0c.227 0 .437.07.614.185a1.124 1.124 0 0 1 .185 1.739 1.122 1.122 0 0 1-1.597 0 1.122 1.122 0 0 1 .184-1.739 1.12 1.12 0 0 1 .614-.184Zm-4.495.003a1.126 1.126 0 0 1 0 2.25h-.006a1.125 1.125 0 0 1 0-2.25h.006Zm8.997 0a1.125 1.125 0 0 1 0 2.25h-.006a1.125 1.125 0 0 1 0-2.25h.006ZM1.875 16.5v-.006a1.125 1.125 0 0 1 2.25 0v.006a1.125 1.125 0 0 1-2.25 0Zm8.997 0v-.006a1.125 1.125 0 0 1 2.25 0v.006a1.125 1.125 0 0 1-2.25 0ZM3 10.869c.39 0 .733.199.935.5a1.117 1.117 0 0 1 .007 1.242 1.122 1.122 0 0 1-1.875.018 1.119 1.119 0 0 1 .138-1.43c.203-.203.485-.33.795-.33Zm8.997 0a1.125 1.125 0 0 1 .933 1.76 1.124 1.124 0 0 1-1.866 0 1.126 1.126 0 0 1 .933-1.76Zm-4.495.003.114.006a1.125 1.125 0 0 1 0 2.239l-.114.005h-.006a1.125 1.125 0 0 1 0-2.25h.006Zm8.997 0 .114.006a1.125 1.125 0 0 1 0 2.239l-.114.005h-.006a1.125 1.125 0 0 1 0-2.25h.006ZM1.875 7.502v-.006a1.125 1.125 0 0 1 2.25 0v.006a1.126 1.126 0 0 1-2.25 0Zm8.997 0v-.006a1.125 1.125 0 0 1 2.25 0v.006a1.125 1.125 0 0 1-2.25 0ZM3 1.872c.234 0 .452.073.632.195a1.125 1.125 0 0 1 .307 1.553.876.876 0 0 1-.094.117 1.119 1.119 0 0 1-1.778-.105 1.119 1.119 0 0 1 .138-1.43A1.12 1.12 0 0 1 3 1.872Zm8.997 0c.235 0 .452.073.632.195a1.125 1.125 0 0 1-.005 1.868 1.119 1.119 0 0 1-1.255 0 1.124 1.124 0 0 1-.003-1.868c.18-.122.397-.195.631-.195Zm-4.495.003a1.125 1.125 0 0 1 0 2.25h-.006a1.125 1.125 0 0 1 0-2.25h.006Zm8.997 0a1.125 1.125 0 0 1 0 2.25h-.006a1.126 1.126 0 0 1 0-2.25h.006ZM19.875 21V3a1.125 1.125 0 0 1 2.25 0v18a1.125 1.125 0 0 1-2.25 0Z"/>
</svg>
