<svg xmlns="http://www.w3.org/2000/svg" width="24" height="24" fill="none" viewBox="0 0 24 24">
  <path fill="#888" d="M3 19.866c.23 0 .442.07.62.188.042.028.08.06.117.094.074.065.143.136.198.218a1.12 1.12 0 0 1 0 1.258 1.124 1.124 0 0 1-1.733.166 1.122 1.122 0 0 1 .167-1.729A1.12 1.12 0 0 1 3 19.866Zm8.997 0c.227 0 .437.07.614.185a1.124 1.124 0 0 1 .185 1.739 1.122 1.122 0 0 1-1.597 0 1.122 1.122 0 0 1 .184-1.739 1.12 1.12 0 0 1 .614-.184Zm8.997 0c.234 0 .452.073.632.195a1.124 1.124 0 0 1 .167 1.729 1.124 1.124 0 0 1-1.733-.165 1.122 1.122 0 0 1-.002-1.259c.055-.082.125-.153.2-.218.037-.033.074-.067.115-.094a1.12 1.12 0 0 1 .621-.188Zm-13.492.003a1.126 1.126 0 0 1 0 2.25h-.006a1.125 1.125 0 0 1 0-2.25h.006Zm8.997 0 .114.006a1.126 1.126 0 0 1 0 2.238l-.114.006h-.006a1.125 1.125 0 0 1 0-2.25h.006ZM1.875 16.5v-.006a1.125 1.125 0 0 1 2.25 0v.006a1.125 1.125 0 0 1-2.25 0Zm8.997 0v-.006a1.125 1.125 0 0 1 2.25 0v.006a1.125 1.125 0 0 1-2.25 0Zm8.997 0v-.006a1.126 1.126 0 0 1 2.25 0v.006a1.125 1.125 0 0 1-2.25 0ZM1.875 7.502v-.006a1.125 1.125 0 0 1 2.25 0v.006a1.126 1.126 0 0 1-2.25 0Zm8.997 0v-.006a1.125 1.125 0 0 1 2.25 0v.006a1.125 1.125 0 0 1-2.25 0Zm8.997 0v-.006a1.125 1.125 0 0 1 2.25 0v.006a1.125 1.125 0 0 1-2.25 0ZM3 1.872c.234 0 .452.073.632.195a1.125 1.125 0 0 1 .307 1.553.876.876 0 0 1-.094.117 1.119 1.119 0 0 1-1.778-.105 1.119 1.119 0 0 1 .138-1.43A1.12 1.12 0 0 1 3 1.872Zm8.997 0c.235 0 .452.073.632.195a1.125 1.125 0 0 1-.005 1.868 1.119 1.119 0 0 1-1.255 0 1.124 1.124 0 0 1-.003-1.868c.18-.122.397-.195.631-.195Zm8.997 0c.311 0 .592.126.796.33a1.122 1.122 0 0 1 .137 1.43 1.125 1.125 0 0 1-1.561.303 1.129 1.129 0 0 1-.218-.198c-.033-.038-.066-.075-.094-.117a1.119 1.119 0 0 1 .309-1.553 1.12 1.12 0 0 1 .631-.195Zm-13.492.003a1.125 1.125 0 0 1 0 2.25h-.006a1.125 1.125 0 0 1 0-2.25h.006Zm8.997 0a1.125 1.125 0 0 1 0 2.25h-.006a1.126 1.126 0 0 1 0-2.25h.006Zm4.501 9a1.125 1.125 0 0 1 0 2.25H3a1.125 1.125 0 0 1 0-2.25h18Z"/>
</svg>
