<svg xmlns="http://www.w3.org/2000/svg" width="24" height="24" fill="none" viewBox="0 0 24 24">
  <path fill="#888" d="m8 2.875.115.006a1.126 1.126 0 0 1 0 2.238L8 5.125h-.875v5.75h9.75v-5.75H16a1.125 1.125 0 0 1 0-2.25h4l.115.006a1.125 1.125 0 0 1 0 2.238L20 5.125h-.877v13.75H20l.114.006a1.126 1.126 0 0 1 0 2.239l-.114.005h-4a1.125 1.125 0 0 1 0-2.25h.875v-5.75h-9.75v5.75H8l.115.006a1.126 1.126 0 0 1 0 2.239L8 21.125H4a1.125 1.125 0 0 1 0-2.25h.875V5.125H4a1.125 1.125 0 0 1 0-2.25h4Z"/>
</svg>
