<svg xmlns="http://www.w3.org/2000/svg" width="24" height="24" fill="none" viewBox="0 0 24 24">
  <path fill="#888" d="M21 16.875a1.125 1.125 0 1 1 0 2.25h-9a1.125 1.125 0 0 1 0-2.25h9Zm0-6a1.125 1.125 0 1 1 0 2.25h-9a1.125 1.125 0 0 1 0-2.25h9Zm0-6a1.125 1.125 0 1 1 0 2.25h-9a1.125 1.125 0 0 1 0-2.25h9ZM6.705 15.204a1.125 1.125 0 1 1 1.59 1.591l-3 3c-.439.44-1.151.44-1.59 0l-1.5-1.5-.078-.085a1.126 1.126 0 0 1 1.583-1.583l.085.078.705.704 2.205-2.204Zm0-6a1.125 1.125 0 1 1 1.59 1.591l-3 3c-.439.44-1.151.44-1.59 0l-1.5-1.5-.078-.085a1.126 1.126 0 0 1 1.583-1.583l.085.077.705.705 2.205-2.205Zm0-6a1.125 1.125 0 1 1 1.59 1.591l-3 3c-.439.44-1.151.44-1.59 0l-1.5-1.5-.078-.085A1.125 1.125 0 0 1 3.71 4.627l.085.078.705.704 2.205-2.204Z"/>
</svg>
