<svg xmlns="http://www.w3.org/2000/svg" width="24" height="24" fill="none" viewBox="0 0 24 24">
  <path fill="#888" d="M1.875 21V3a1.125 1.125 0 0 1 2.25 0v18a1.125 1.125 0 0 1-2.25 0Zm18 0V3a1.125 1.125 0 0 1 2.25 0v18a1.125 1.125 0 0 1-2.25 0ZM14.28 8.136a1.124 1.124 0 0 1 1.506.06l.079.083 2.499 3a1.127 1.127 0 0 1 0 1.442l-2.5 3a1.126 1.126 0 0 1-1.728-1.442l.961-1.154H8.902l.963 1.154.069.093a1.126 1.126 0 0 1-1.72 1.432l-.078-.083-2.5-3a1.126 1.126 0 0 1 0-1.442l2.5-3a1.125 1.125 0 0 1 1.729 1.442l-.963 1.154h6.195l-.96-1.154-.071-.093a1.126 1.126 0 0 1 .214-1.492Z"/>
</svg>
