<svg xmlns="http://www.w3.org/2000/svg" width="24" height="24" fill="none" viewBox="0 0 24 24">
  <path fill="#888" d="m12 17.875.115.005a1.125 1.125 0 0 1 0 2.239l-.116.006H4a1.125 1.125 0 0 1 0-2.25h8Zm8 0 .115.005a1.126 1.126 0 0 1 0 2.239l-.114.006H16a1.125 1.125 0 0 1 0-2.25h4Zm-14-7 .115.006a1.125 1.125 0 0 1 0 2.239L6 13.126H4a1.125 1.125 0 0 1 0-2.25h2Zm14 0 .115.006a1.126 1.126 0 0 1 0 2.239l-.114.006H10a1.125 1.125 0 0 1 0-2.25h10Zm-6-7 .115.006a1.125 1.125 0 0 1 0 2.238L14 6.125H4a1.125 1.125 0 0 1 0-2.25h10Zm6 0 .115.006a1.125 1.125 0 0 1 0 2.238L20 6.125h-2.002a1.125 1.125 0 0 1 0-2.25H20Z"/>
  <path fill="#888" d="M10.874 21v-4a1.126 1.126 0 0 1 2.25 0v4a1.125 1.125 0 0 1-2.25 0Zm-1.999-7v-4a1.125 1.125 0 1 1 2.25 0v4a1.125 1.125 0 0 1-2.25 0Zm4-7V3a1.125 1.125 0 0 1 2.25 0v4a1.126 1.126 0 0 1-2.25 0Z"/>
</svg>
