<svg xmlns="http://www.w3.org/2000/svg" width="24" height="24" fill="none" viewBox="0 0 24 24">
  <path fill="#888" d="M3.875 20v-4a1.125 1.125 0 0 1 2.25 0v4a1.125 1.125 0 0 1-2.25 0Zm7 0V10a1.125 1.125 0 0 1 2.25 0v10a1.126 1.126 0 0 1-2.25 0Zm7 0v-2a1.126 1.126 0 0 1 2.25 0v2a1.125 1.125 0 0 1-2.25 0Zm0-6V4a1.125 1.125 0 0 1 2.25 0v10a1.125 1.125 0 0 1-2.25 0Zm-14-2V4a1.125 1.125 0 0 1 2.25 0v8a1.125 1.125 0 0 1-2.25 0Zm7-6V4a1.125 1.125 0 0 1 2.25 0v2a1.125 1.125 0 0 1-2.25 0Z"/>
  <path fill="#888" d="M19.875 16a.876.876 0 1 0-1.752 0 .876.876 0 0 0 1.752 0Zm-14-2a.876.876 0 1 0-1.751 0 .876.876 0 0 0 1.751 0Zm7-6a.875.875 0 1 0-1.75-.001.875.875 0 0 0 1.75 0Zm9.25 8a3.125 3.125 0 1 1-6.25 0 3.125 3.125 0 0 1 6.25 0Zm-14-2a3.126 3.126 0 1 1-6.25 0 3.126 3.126 0 0 1 6.25 0Zm7-6a3.125 3.125 0 1 1-6.251 0 3.125 3.125 0 0 1 6.25 0Z"/>
</svg>
