<svg xmlns="http://www.w3.org/2000/svg" width="24" height="24" fill="none" viewBox="0 0 24 24">
  <path fill="#888" d="M3.875 20v-4a1.125 1.125 0 0 1 2.25 0v4a1.125 1.125 0 0 1-2.25 0Zm7 0V10a1.125 1.125 0 0 1 2.25 0v10a1.126 1.126 0 0 1-2.25 0Zm7 0v-2a1.126 1.126 0 0 1 2.25 0v2a1.125 1.125 0 0 1-2.25 0Zm0-6V4a1.125 1.125 0 0 1 2.25 0v10a1.125 1.125 0 0 1-2.25 0Zm-14-2V4a1.125 1.125 0 0 1 2.25 0v8a1.125 1.125 0 0 1-2.25 0Zm7-6V4a1.125 1.125 0 0 1 2.25 0v2a1.125 1.125 0 0 1-2.25 0Z"/>
  <path fill="#888" d="m21 12.876.116.005a1.125 1.125 0 0 1 0 2.239l-.116.006h-4a1.126 1.126 0 0 1 0-2.25h4ZM7 10.873l.115.006a1.126 1.126 0 0 1 0 2.239L7 13.124H3a1.125 1.125 0 0 1 0-2.25h4Zm7-1.999.115.006a1.125 1.125 0 0 1 0 2.238l-.116.006h-3.998a1.125 1.125 0 0 1 0-2.25h3.998Z"/>
</svg>
