<svg xmlns="http://www.w3.org/2000/svg" width="24" height="24" fill="none" viewBox="0 0 24 24">
  <path fill="#888" d="M20.5 13.376a1.125 1.125 0 0 1 .891 1.81l-3.606 4.689H20.5l.115.006a1.125 1.125 0 0 1 0 2.238l-.114.006h-5.002a1.126 1.126 0 0 1-.89-1.81l3.606-4.69H15.5a1.126 1.126 0 0 1 0-2.25h5ZM18 1.875c.46 0 .874.28 1.044.708l3 7.5.038.108a1.126 1.126 0 0 1-2.078.832l-.049-.105-.317-.793h-3.276l-.318.793a1.125 1.125 0 0 1-2.088-.835l3-7.5.074-.154c.2-.34.568-.554.97-.554Zm-.738 6h1.476L18 6.028l-.738 1.847ZM5.875 3v15.284l-2.08-2.08a1.125 1.125 0 0 0-1.59 1.59l4 4.001.085.078c.442.36 1.094.334 1.506-.078l3.999-4 .078-.085a1.125 1.125 0 0 0-1.582-1.582l-.087.076-2.079 2.08V3a1.125 1.125 0 0 0-2.25 0Z"/>
</svg>
