<svg xmlns="http://www.w3.org/2000/svg" width="24" height="24" fill="none" viewBox="0 0 24 24">
  <path fill="#888" d="M2.375 18V8a1.125 1.125 0 0 1 2.25 0v10c0 1.036.84 1.875 1.875 1.875h11c1.035 0 1.874-.84 1.875-1.875V8a1.125 1.125 0 0 1 2.25 0v10a4.125 4.125 0 0 1-4.125 4.125h-11A4.125 4.125 0 0 1 2.375 18Z"/>
  <path fill="#888" d="m14 10.875.116.006a1.125 1.125 0 0 1 0 2.238l-.116.006h-4a1.125 1.125 0 0 1 0-2.25h4Zm-10.875-4h17.75v-2.75H3.125v2.75Zm20 .125A2.125 2.125 0 0 1 21 9.125H3A2.125 2.125 0 0 1 .875 7V4c0-1.173.952-2.125 2.125-2.125h18c1.174 0 2.125.952 2.125 2.125v3Z"/>
</svg>
