<svg xmlns="http://www.w3.org/2000/svg" width="24" height="24" fill="none" viewBox="0 0 24 24">
  <path fill="#888" d="M2.875 19V6A4.125 4.125 0 0 1 7 1.875h1.25l.115.006a1.125 1.125 0 0 1 0 2.238l-.115.006H7c-1.036 0-1.875.84-1.875 1.875v13c0 1.036.84 1.875 1.875 1.875h10c1.036 0 1.875-.84 1.875-1.875V6c0-1.035-.84-1.875-1.875-1.875h-1.25a1.125 1.125 0 0 1 0-2.25H17A4.125 4.125 0 0 1 21.125 6v13A4.126 4.126 0 0 1 17 23.125H7A4.125 4.125 0 0 1 2.875 19Z"/>
  <path fill="#888" d="m15 12.875.115.006a1.125 1.125 0 0 1 0 2.238l-.114.006H9a1.125 1.125 0 0 1 0-2.25h6ZM14.875 4A.875.875 0 0 0 14 3.125h-4A.875.875 0 0 0 9.125 4v.375h5.75V4Zm2.25 1c0 .897-.726 1.625-1.624 1.625h-7A1.625 1.625 0 0 1 6.875 5V4A3.125 3.125 0 0 1 10 .875h4A3.125 3.125 0 0 1 17.125 4v1Z"/>
</svg>
