<svg xmlns="http://www.w3.org/2000/svg" width="24" height="24" fill="none" viewBox="0 0 24 24">
  <path fill="#888" d="M2.875 19V5A4.125 4.125 0 0 1 7 .875h6.586c.293 0 .58.063.844.177l.022.009c.171.077.333.175.48.296l.157.14 5.414 5.415c.18.18.322.39.426.618.007.015.016.03.022.047.113.262.174.547.174.838V19A4.125 4.125 0 0 1 17 23.125H7A4.125 4.125 0 0 1 2.875 19Zm12.25-13c0 .484.392.875.875.875h1.285l-2.16-2.16V6Zm-10 13c0 1.035.84 1.875 1.875 1.875h10c1.036 0 1.875-.84 1.875-1.875V9.125H16A3.125 3.125 0 0 1 12.876 6V3.125H7c-1.036 0-1.875.84-1.875 1.875v14Z"/>
  <path fill="#888" d="M15.705 11.705a1.125 1.125 0 1 1 1.59 1.59l-2.698 2.699a2.125 2.125 0 0 1-2.436.405l-.16-.086-1.078-.646-2.628 2.628a1.125 1.125 0 1 1-1.59-1.59l2.698-2.698.133-.123a2.126 2.126 0 0 1 2.303-.284l.16.088 1.076.644 2.63-2.627Z"/>
</svg>
