<svg xmlns="http://www.w3.org/2000/svg" width="24" height="24" fill="none" viewBox="0 0 24 24">
  <path fill="#888" d="M18.875 14.34V9.125H16A3.125 3.125 0 0 1 12.875 6V3.125H7.66a1.125 1.125 0 0 1 0-2.25h5.926c.23 0 .456.037.67.108l.21.082.168.087c.11.062.215.135.313.217l.142.129 5.414 5.414.129.142c.081.098.154.202.216.312l.087.168.082.21c.071.214.108.44.108.67v5.926a1.125 1.125 0 0 1-2.25 0ZM15.125 6c0 .483.392.875.875.875h1.284l-2.159-2.16V6ZM1.205 1.205a1.125 1.125 0 0 1 1.506-.078l.084.078 20 19.999.078.087a1.124 1.124 0 0 1-1.582 1.581l-.087-.077-1.093-1.093a4.11 4.11 0 0 1-3.11 1.422H7A4.125 4.125 0 0 1 2.875 19V5c0-.169.012-.336.032-.502L1.205 2.795l-.078-.085a1.125 1.125 0 0 1 .078-1.505Zm3.92 17.794c0 1.036.84 1.875 1.875 1.875h10a1.87 1.87 0 0 0 1.513-.77L5.125 6.715V19Z"/>
</svg>
