<svg xmlns="http://www.w3.org/2000/svg" width="24" height="24" fill="none" viewBox="0 0 24 24">
  <path fill="#888" d="M.875 18V6A4.125 4.125 0 0 1 5 1.875h4.586c.493 0 .969.172 1.347.482l.155.14 2.377 2.378H19A4.125 4.125 0 0 1 23.125 9v9A4.125 4.125 0 0 1 19 22.125H5A4.125 4.125 0 0 1 .875 18Zm2.25 0c0 1.035.84 1.875 1.875 1.875h14c1.035 0 1.875-.84 1.875-1.875V9c0-1.036-.84-1.875-1.875-1.875h-5.586c-.493 0-.968-.172-1.346-.482l-.157-.14-2.377-2.378H5c-1.036 0-1.875.84-1.875 1.875v12Z"/>
  <path fill="#888" d="M10.875 16.5v-1.875H9a1.125 1.125 0 0 1 0-2.25h1.875V10.5a1.125 1.125 0 0 1 2.25 0v1.875H15a1.125 1.125 0 0 1 0 2.25h-1.875V16.5a1.125 1.125 0 0 1-2.25 0Z"/>
</svg>
