<svg xmlns="http://www.w3.org/2000/svg" width="24" height="24" fill="none" viewBox="0 0 24 24">
  <path fill="#888" d="M18.875 5c0-1.035-.84-1.875-1.875-1.875H7c-1.036 0-1.875.84-1.875 1.875v14c0 1.035.84 1.875 1.875 1.875h10c1.036 0 1.875-.84 1.875-1.875V5Zm2.25 14A4.125 4.125 0 0 1 17 23.125H7A4.125 4.125 0 0 1 2.875 19V5A4.125 4.125 0 0 1 7 .875h10A4.125 4.125 0 0 1 21.125 5v14Z"/>
  <path fill="#888" d="m16 14.874.115.006a1.125 1.125 0 0 1 0 2.239l-.115.006H8a1.125 1.125 0 0 1 0-2.25h8Zm0-3.998.115.005a1.125 1.125 0 0 1 0 2.239l-.115.006H8a1.125 1.125 0 0 1 0-2.25h8Zm-4-4.001.115.006a1.125 1.125 0 0 1 0 2.238L12 9.125H8a1.125 1.125 0 0 1 0-2.25h4Z"/>
</svg>
