<svg xmlns="http://www.w3.org/2000/svg" width="24" height="24" fill="none" viewBox="0 0 24 24">
  <path fill="#888" d="m15.926 20.875.115.005a1.126 1.126 0 0 1 0 2.239l-.115.006h-2.024a1.125 1.125 0 1 1 0-2.25h2.024Zm-8.301-1.96a1.125 1.125 0 0 1 1.392.58l.044.105.083.198c.187.385.5.699.885.886l.198.082.107.044a1.125 1.125 0 0 1-.746 2.11l-.111-.033-.219-.083a4.172 4.172 0 0 1-2.234-2.234l-.085-.22-.033-.11a1.126 1.126 0 0 1 .719-1.325Zm13.141.685a1.125 1.125 0 0 1 2.121.75 4.17 4.17 0 0 1-2.537 2.537 1.125 1.125 0 1 1-.75-2.12 1.92 1.92 0 0 0 1.166-1.167Zm.109-3.674v-2.024a1.125 1.125 0 0 1 2.25 0v2.024a1.125 1.125 0 0 1-2.25 0Zm-1.96-8.301c.194-.55.771-.854 1.325-.72l.11.034.22.085a4.172 4.172 0 0 1 2.234 2.234l.083.219.034.11a1.125 1.125 0 0 1-2.11.747l-.045-.107-.082-.198a1.925 1.925 0 0 0-.886-.885l-.198-.083-.107-.044a1.125 1.125 0 0 1-.578-1.392ZM14.874 5a1.874 1.874 0 0 0-1.875-1.875H5c-1.036 0-1.875.84-1.875 1.875v8c0 1.035.84 1.874 1.875 1.874h8a1.874 1.874 0 0 0 1.874-1.875V5Zm2.25 8A4.125 4.125 0 0 1 13 17.124H5a4.125 4.125 0 0 1-4.125-4.126V5A4.125 4.125 0 0 1 5 .875h8A4.125 4.125 0 0 1 17.124 5v8Z"/>
</svg>
