<svg xmlns="http://www.w3.org/2000/svg" width="24" height="24" fill="none" viewBox="0 0 24 24">
  <path fill="#888" d="M10.875 20.75V17A4.125 4.125 0 0 1 15 12.875h5.75l.115.006a1.125 1.125 0 0 1 0 2.238l-.115.006H15c-1.036 0-1.875.84-1.875 1.875v3.75a1.125 1.125 0 0 1-2.25 0Z"/>
  <path fill="#888" d="M19.875 6c0-1.036-.84-1.875-1.875-1.875H6c-1.036 0-1.875.84-1.875 1.875v12c0 1.035.84 1.875 1.875 1.875h5.613l8.262-6.426V6Zm2.25 7.51c0 .574-.232 1.12-.637 1.518l-.183.161-8.344 6.488c-.373.29-.831.448-1.304.448H6A4.125 4.125 0 0 1 1.875 18V6A4.125 4.125 0 0 1 6 1.875h12A4.125 4.125 0 0 1 22.125 6v7.51Z"/>
</svg>
