<svg xmlns="http://www.w3.org/2000/svg" width="24" height="24" fill="none" viewBox="0 0 24 24">
  <path fill="#888" d="M8.875 19a1.874 1.874 0 1 0-3.75 0 1.875 1.875 0 0 0 3.75 0Zm10 0a1.875 1.875 0 1 0-3.75 0 1.875 1.875 0 0 0 3.75 0Zm2.25 0a4.125 4.125 0 0 1-8.25 0c0-.126.008-.251.02-.375h-1.789c.011.124.02.249.02.375A4.125 4.125 0 1 1 7 14.875c1.281 0 2.423.586 3.179 1.5h3.641A4.125 4.125 0 0 1 21.125 19ZM13.093 1.837a3.383 3.383 0 0 1 3.451-.782c1.215.41 2.182 1.483 2.436 2.94l1.282 7.329c.69.18 1.382.382 2.08.605L22 12.999l-.342 1.073a37.04 37.04 0 0 0-2.64-.74c-4.748-1.138-9.25-1.147-14.036 0a37.01 37.01 0 0 0-2.64.74 1.125 1.125 0 1 1-.686-2.143 40.089 40.089 0 0 1 2.081-.605L5.02 3.995l.056-.268c.32-1.32 1.242-2.287 2.38-2.672 1.225-.413 2.64-.125 3.645.98l.098.098c.508.462 1.223.429 1.702-.098l.193-.198Zm9.25 10.092a1.125 1.125 0 0 1-.685 2.143l.684-2.143Zm-6.518-8.742c-.404-.137-.874-.062-1.26.361-1.315 1.448-3.44 1.539-4.857.273l-.274-.273c-.385-.423-.856-.498-1.26-.361-.363.122-.72.437-.881.959l-.058.237-1.12 6.407c3.976-.753 7.82-.75 11.77 0l-1.12-6.407c-.117-.665-.525-1.056-.94-1.196Z"/>
</svg>
