<svg xmlns="http://www.w3.org/2000/svg" width="24" height="24" fill="none" viewBox="0 0 24 24">
  <path fill="#888" d="M6.753 15.622a1.125 1.125 0 0 1 .993 2.014L3.55 19.981a1.125 1.125 0 0 1-1.098-1.962l4.198-2.346.104-.05Zm9.067.483c.284-.508.904-.71 1.427-.484l.104.05 4.198 2.348a1.125 1.125 0 1 1-1.097 1.962l-4.198-2.345-.098-.061a1.125 1.125 0 0 1-.336-1.47ZM10.875 8.5V4a1.126 1.126 0 0 1 2.25 0v4.5a1.125 1.125 0 0 1-2.25 0Z"/>
  <path fill="#888" d="M3.217 16.887a2.125 2.125 0 1 1-2.332 2.33l-.01-.216.01-.219A2.126 2.126 0 0 1 3 16.875l.217.012Zm18 0a2.125 2.125 0 1 1-2.332 2.33l-.01-.216.01-.219A2.126 2.126 0 0 1 21 16.875l.217.012Zm-5.342-3.895-2.75 1.57v3.303l2.31-1.318a.876.876 0 0 0 .44-.76v-2.795Zm-3.44-3.252a.876.876 0 0 0-.87 0l-2.298 1.312 2.734 1.563 2.731-1.561-2.298-1.314Zm-.218-7.855a2.126 2.126 0 1 1-2.332 2.332L9.875 4l.01-.218a2.126 2.126 0 0 1 2.116-1.907l.216.01ZM8.125 15.787c0 .313.168.604.44.76l2.31 1.318v-3.303l-2.75-1.57v2.795Zm10 0A3.127 3.127 0 0 1 16.55 18.5l-3 1.714a3.123 3.123 0 0 1-3.1 0l-3-1.714a3.127 3.127 0 0 1-1.575-2.714v-3.573A3.124 3.124 0 0 1 7.45 9.5l3-1.714a3.125 3.125 0 0 1 3.1 0l3 1.714a3.127 3.127 0 0 1 1.575 2.713v3.573Z"/>
</svg>
