<svg xmlns="http://www.w3.org/2000/svg" width="24" height="24" fill="none" viewBox="0 0 24 24">
  <path fill="#888" d="M.875 12c0-4.102 2.037-7.728 5.15-9.92l.099-.061a1.126 1.126 0 0 1 1.198 1.9l-.466.35A9.855 9.855 0 0 0 3.125 12c0 3.13 1.456 5.92 3.731 7.731l.466.349.09.072a1.125 1.125 0 0 1-1.288 1.83l-.099-.062-.57-.428A12.105 12.105 0 0 1 .876 12Zm20 0a9.862 9.862 0 0 0-4.197-8.08l.649-.92.647-.92a12.112 12.112 0 0 1 5.15 9.92c0 4.102-2.037 7.727-5.15 9.92a1.125 1.125 0 0 1-1.296-1.84A9.862 9.862 0 0 0 20.875 12Zm-4.468-9.648a1.125 1.125 0 0 1 1.567-.272l-1.296 1.84a1.125 1.125 0 0 1-.271-1.567Z"/>
  <path fill="#888" d="M16 11.629a.62.62 0 0 0-.124.37l.011.127a.62.62 0 0 0 .113.244v-.741Zm1 .741a.618.618 0 0 0 .112-.244l.013-.127-.013-.126A.619.619 0 0 0 17 11.63v.741Zm-4.388-.496a.619.619 0 0 0-.111-.245v.741a.618.618 0 0 0 .11-.244l.014-.127-.013-.126Zm-1.112-.245a.62.62 0 0 0-.124.37l.011.127a.62.62 0 0 0 .113.244v-.741Zm-3.388.245A.62.62 0 0 0 8 11.629v.741a.619.619 0 0 0 .112-.244l.013-.127-.013-.126ZM7 11.629a.62.62 0 0 0-.125.37l.012.127A.62.62 0 0 0 7 12.37v-.741Zm2.125.37a1.625 1.625 0 0 1-3.242.167L5.876 12l.009-.165a1.625 1.625 0 0 1 1.615-1.46l.167.009a1.623 1.623 0 0 1 1.458 1.615Zm4.5 0a1.625 1.625 0 0 1-3.242.167L10.376 12l.009-.165A1.625 1.625 0 0 1 12 10.376l.167.009c.82.083 1.46.774 1.46 1.615Zm4.5 0a1.625 1.625 0 0 1-3.242.167L14.876 12l.009-.165a1.625 1.625 0 0 1 1.616-1.459l.166.009c.82.083 1.46.774 1.46 1.615Z"/>
</svg>
