<svg xmlns="http://www.w3.org/2000/svg" width="24" height="24" fill="none" viewBox="0 0 24 24">
  <path fill="#888" d="M.875 12c0-4.102 2.037-7.728 5.15-9.92l.099-.061a1.126 1.126 0 0 1 1.198 1.9l-.466.35A9.855 9.855 0 0 0 3.125 12c0 3.13 1.456 5.92 3.731 7.731l.466.349.09.072a1.125 1.125 0 0 1-1.288 1.83l-.099-.062-.57-.428A12.105 12.105 0 0 1 .876 12Zm20 0a9.862 9.862 0 0 0-4.197-8.08l.649-.92.647-.92a12.112 12.112 0 0 1 5.15 9.92c0 4.102-2.037 7.727-5.15 9.92a1.125 1.125 0 0 1-1.296-1.84A9.862 9.862 0 0 0 20.875 12Zm-4.468-9.648a1.125 1.125 0 0 1 1.567-.272l-1.296 1.84a1.125 1.125 0 0 1-.271-1.567ZM11.5 16.129a.62.62 0 0 0-.124.37l.011.127a.62.62 0 0 0 .113.244v-.741Zm1 .741a.618.618 0 0 0 .112-.245l.013-.125-.013-.127a.619.619 0 0 0-.111-.244v.741Zm-1-5.241a.62.62 0 0 0-.124.37l.011.127a.62.62 0 0 0 .113.244v-.741Zm1 .741a.618.618 0 0 0 .112-.244l.013-.127-.013-.126a.619.619 0 0 0-.111-.244v.741Zm-.334-6.486a1.625 1.625 0 1 1-1.782 1.782l-.009-.167.009-.165a1.625 1.625 0 0 1 1.615-1.459l.167.009ZM11.63 8a.62.62 0 0 0 .743 0h-.743ZM12 6.875a.62.62 0 0 0-.37.125H12v-.125ZM12 7h.373a.62.62 0 0 0-.246-.113L12 6.875V7Zm1.627 9.5a1.625 1.625 0 0 1-3.242.167l-.009-.168.009-.165A1.625 1.625 0 0 1 12 14.875l.167.009c.82.083 1.46.774 1.46 1.616Zm0-4.5a1.625 1.625 0 0 1-3.242.167l-.009-.168.009-.165A1.625 1.625 0 0 1 12 10.375l.167.009c.82.083 1.46.774 1.46 1.615Z"/>
</svg>
