<svg xmlns="http://www.w3.org/2000/svg" width="24" height="24" fill="none" viewBox="0 0 24 24">
  <path fill="#888" d="M19.376 18v-3c0-.893.289-1.762.824-2.476l.393-.524-.393-.524A4.127 4.127 0 0 1 19.376 9V6c0-1.035-.84-1.875-1.875-1.875h-1a1.125 1.125 0 0 1 0-2.25h1A4.125 4.125 0 0 1 21.626 6v3c0 .406.131.8.375 1.125l.899 1.2c.3.4.3.95 0 1.35l-.9 1.2A1.88 1.88 0 0 0 21.626 15v3a4.125 4.125 0 0 1-4.125 4.125h-1a1.125 1.125 0 0 1 0-2.25h1c1.035 0 1.875-.84 1.875-1.875ZM2.375 18v-3c0-.355-.1-.702-.288-1L2 13.874l-.9-1.2c-.3-.4-.3-.95 0-1.35l.9-1.2.087-.124a1.88 1.88 0 0 0 .288-1.001V6A4.125 4.125 0 0 1 6.5 1.875h1l.115.006a1.126 1.126 0 0 1 0 2.238l-.114.006h-1c-1.036 0-1.876.84-1.876 1.875v3c0 .78-.222 1.543-.636 2.2l-.189.276-.394.524.394.524.19.276c.413.656.635 1.42.635 2.2v3c0 1.035.84 1.875 1.875 1.875h1l.115.006a1.126 1.126 0 0 1 0 2.238l-.114.006h-1A4.125 4.125 0 0 1 2.374 18Z"/>
</svg>
