<svg xmlns="http://www.w3.org/2000/svg" width="24" height="24" fill="none" viewBox="0 0 24 24">
  <path fill="#888" d="M1.875 18V6A4.125 4.125 0 0 1 6 1.875h6.54a1.125 1.125 0 0 1 0 2.25H6c-1.036 0-1.875.84-1.875 1.875v12c0 1.035.84 1.875 1.875 1.875h12c1.035 0 1.875-.84 1.875-1.875v-6.54a1.125 1.125 0 0 1 2.25 0V18A4.125 4.125 0 0 1 18 22.125H6A4.125 4.125 0 0 1 1.875 18Z"/>
  <path fill="#888" d="M9.205 8.955a1.125 1.125 0 1 1 1.59 1.59l-1.454 1.456 1.454 1.454.078.085a1.126 1.126 0 0 1-1.583 1.582l-.085-.076-2.25-2.25a1.125 1.125 0 0 1 0-1.59l2.25-2.25Zm4 0a1.124 1.124 0 0 1 1.505-.078l.086.078 2.25 2.25a1.126 1.126 0 0 1 0 1.59l-2.25 2.25a1.125 1.125 0 0 1-1.59-1.59l1.454-1.454-1.455-1.455-.078-.086a1.124 1.124 0 0 1 .078-1.505ZM19 .875c.507 0 .952.34 1.085.83l.257.938.061.18c.171.407.521.717.954.835l.939.257a1.125 1.125 0 0 1 0 2.17l-.94.257a1.447 1.447 0 0 0-.953.835l-.061.18-.257.939a1.125 1.125 0 0 1-2.17 0l-.257-.94a1.447 1.447 0 0 0-1.015-1.014l-.939-.257a1.125 1.125 0 0 1 0-2.17l.94-.257c.493-.135.88-.52 1.014-1.015l.257-.939.064-.176A1.125 1.125 0 0 1 19 .875Zm0 3.87c-.08.09-.166.174-.255.255.089.08.174.165.255.253.08-.088.165-.173.253-.253A3.706 3.706 0 0 1 19 4.745Z"/>
</svg>
