<svg xmlns="http://www.w3.org/2000/svg" width="24" height="24" fill="none" viewBox="0 0 24 24">
  <path fill="#888" d="M9.205 11.955a1.125 1.125 0 0 1 1.59 1.59L9.342 15l1.455 1.455.076.085a1.125 1.125 0 0 1-1.582 1.583l-.085-.078-2.25-2.25a1.125 1.125 0 0 1 0-1.59l2.25-2.25Zm4 0a1.126 1.126 0 0 1 1.505-.078l.085.078 2.25 2.25a1.125 1.125 0 0 1 0 1.59l-2.25 2.25a1.125 1.125 0 0 1-1.59-1.59L14.658 15l-1.455-1.455-.076-.085a1.125 1.125 0 0 1 .076-1.505ZM21 7.875a1.125 1.125 0 0 1 0 2.25H3a1.125 1.125 0 0 1 0-2.25h18Z"/>
  <path fill="#888" d="M19.875 6c0-1.036-.84-1.875-1.875-1.875H6c-1.036 0-1.875.84-1.875 1.875v12c0 1.035.84 1.875 1.875 1.875h12c1.035 0 1.875-.84 1.875-1.875V6Zm2.25 12A4.125 4.125 0 0 1 18 22.125H6A4.125 4.125 0 0 1 1.875 18V6A4.125 4.125 0 0 1 6 1.875h12A4.125 4.125 0 0 1 22.125 6v12Z"/>
</svg>
