<svg xmlns="http://www.w3.org/2000/svg" width="24" height="24" fill="none" viewBox="0 0 24 24">
  <path fill="#888" d="M4.375 8v8a1.125 1.125 0 0 0 2.25 0v-3.33a4.102 4.102 0 0 0 1.875.454H15l.115-.005a1.125 1.125 0 0 0 0-2.239L15 10.874H8.5A1.875 1.875 0 0 1 6.625 9V8l-.006-.115A1.125 1.125 0 0 0 4.375 8Z"/>
  <path fill="#888" d="M6.875 5.5a1.374 1.374 0 1 1-2.749 0 1.374 1.374 0 0 1 2.749 0Zm12 6.5a1.375 1.375 0 1 1-2.75.001 1.375 1.375 0 0 1 2.75-.001Zm-12 6.5a1.375 1.375 0 1 1-2.75 0 1.375 1.375 0 0 1 2.75 0Zm2.25-13a3.625 3.625 0 1 0-7.25 0 3.625 3.625 0 0 0 7.25 0Zm12 6.5a3.625 3.625 0 1 0-7.25-.001 3.625 3.625 0 0 0 7.25.001Zm-12 6.5a3.624 3.624 0 1 0-7.249 0 3.624 3.624 0 0 0 7.249 0Z"/>
</svg>
