<svg xmlns="http://www.w3.org/2000/svg" width="24" height="24" fill="none" viewBox="0 0 24 24">
  <path fill="#888" d="M4.375 16V8a1.125 1.125 0 0 1 2.25 0v8a1.125 1.125 0 0 1-2.25 0Zm13 0v-5a1.125 1.125 0 0 1 2.25 0v5a1.125 1.125 0 0 1-2.25 0Z"/>
  <path fill="#888" d="M6.875 18.5a1.374 1.374 0 1 0-2.749 0 1.374 1.374 0 0 0 2.749 0Zm13 0a1.375 1.375 0 1 0-2.75.002 1.375 1.375 0 0 0 2.75-.002Zm-13-13a1.375 1.375 0 1 0-2.75 0 1.375 1.375 0 0 0 2.75 0Zm13.33-3.295a1.125 1.125 0 1 1 1.59 1.59L20.09 5.5l1.705 1.705.078.087a1.125 1.125 0 0 1-1.583 1.582l-.085-.078L18.5 7.09l-1.704 1.705a1.125 1.125 0 1 1-1.59-1.59l1.703-1.706-1.704-1.704-.078-.085a1.125 1.125 0 0 1 1.582-1.583l.087.078L18.5 3.908l1.705-1.703ZM9.125 18.5a3.625 3.625 0 1 1-7.25 0 3.625 3.625 0 0 1 7.25 0Zm13 0a3.626 3.626 0 0 1-7.25 0 3.624 3.624 0 0 1 7.25 0Zm-13-13a3.624 3.624 0 1 1-7.249 0 3.624 3.624 0 0 1 7.249 0Z"/>
</svg>
