<svg xmlns="http://www.w3.org/2000/svg" width="24" height="24" fill="none" viewBox="0 0 24 24">
  <path fill="#888" d="M18.875 14.722v-6.31l-6.75 3.75v7.416a1.121 1.121 0 0 1 1.244.582 1.126 1.126 0 0 1-.488 1.514 4.125 4.125 0 0 1-3.626.066l-.234-.118-6-3.28a4.125 4.125 0 0 1-2.146-3.62V8.28c0-.705.182-1.381.508-1.978a1.142 1.142 0 0 1 .17-.285A4.12 4.12 0 0 1 3.021 4.66l6-3.28.234-.118a4.126 4.126 0 0 1 3.724.118l6 3.28.242.144c.5.319.915.738 1.23 1.221a1.134 1.134 0 0 1 .166.277c.326.597.508 1.273.508 1.978v6.442c0 .13-.006.26-.018.388a1.125 1.125 0 0 1-2.24-.21 2.1 2.1 0 0 0 .008-.178ZM11.899 3.355a1.876 1.876 0 0 0-1.583-.101l-.215.101-5.772 3.154L11 10.213l6.67-3.704-5.77-3.154ZM3.125 14.722c0 .686.374 1.316.976 1.645l5.774 3.155v-7.36l-6.75-3.75v6.31Z"/>
  <path fill="#888" d="M22 17.875a1.125 1.125 0 0 1 0 2.25h-6a1.125 1.125 0 0 1 0-2.25h6Z"/>
</svg>
