<svg xmlns="http://www.w3.org/2000/svg" width="24" height="24" fill="none" viewBox="0 0 24 24">
  <path fill="#888" d="M18.875 11.66V8.413l-6.75 3.75v7.6a1.124 1.124 0 0 1 .123 2.172 4.127 4.127 0 0 1-2.993-.194l-.234-.118-6-3.28a4.125 4.125 0 0 1-2.146-3.62V8.28c0-.705.182-1.381.508-1.978a1.142 1.142 0 0 1 .17-.285A4.12 4.12 0 0 1 3.021 4.66l6-3.28.234-.118a4.126 4.126 0 0 1 3.724.118l6 3.28.242.144c.5.319.915.738 1.23 1.221a1.134 1.134 0 0 1 .166.277c.326.597.508 1.273.508 1.978v3.38a1.125 1.125 0 1 1-2.25 0Zm-6.976-8.305a1.876 1.876 0 0 0-1.583-.101l-.215.101-5.772 3.154L11 10.213l6.67-3.704-5.77-3.154ZM3.125 14.722c0 .686.374 1.316.976 1.645l5.774 3.155v-7.36l-6.75-3.75v6.31Z"/>
  <path fill="#888" d="M20.375 18.5a1.875 1.875 0 1 0-3.75 0 1.875 1.875 0 0 0 3.75 0Zm2.25 0c0 .73-.193 1.413-.526 2.008l.696.696.078.087a1.124 1.124 0 0 1-1.582 1.581l-.087-.077-.696-.696a4.101 4.101 0 0 1-2.008.526 4.125 4.125 0 1 1 4.125-4.125Z"/>
</svg>
