<svg xmlns="http://www.w3.org/2000/svg" width="24" height="24" fill="none" viewBox="0 0 24 24">
  <path fill="#888" d="M6.875 21V10.125H3a1.125 1.125 0 0 1 0-2.25h18a1.125 1.125 0 0 1 0 2.25H9.125V21a1.125 1.125 0 0 1-2.25 0ZM15 15.874l.116.006a1.126 1.126 0 0 1 0 2.239l-.116.006h-2.997a1.125 1.125 0 0 1 0-2.25H15Zm2-3.998.115.005a1.125 1.125 0 0 1 0 2.239l-.115.006h-4.997a1.125 1.125 0 0 1 0-2.25H17ZM6.003 4.875l.114.006a1.125 1.125 0 0 1 0 2.238l-.114.006h-.006a1.125 1.125 0 0 1 0-2.25h.006Zm3 0 .114.006a1.125 1.125 0 0 1 0 2.238l-.114.006h-.006a1.125 1.125 0 0 1 0-2.25h.006Zm3 0 .114.006a1.125 1.125 0 0 1 0 2.238l-.114.006h-.006a1.125 1.125 0 0 1 0-2.25h.006Z"/>
  <path fill="#888" d="M19.875 6c0-1.036-.84-1.875-1.875-1.875H6c-1.036 0-1.875.84-1.875 1.875v12c0 1.035.84 1.875 1.875 1.875h12c1.035 0 1.875-.84 1.875-1.875V6Zm2.25 12A4.125 4.125 0 0 1 18 22.125H6A4.125 4.125 0 0 1 1.875 18V6A4.125 4.125 0 0 1 6 1.875h12A4.125 4.125 0 0 1 22.125 6v12Z"/>
</svg>
