<svg xmlns="http://www.w3.org/2000/svg" width="24" height="24" fill="none" viewBox="0 0 24 24">
  <path fill="#888" d="M20.101 19.325a1.125 1.125 0 1 1 1.799 1.35 6.119 6.119 0 0 1-4.9 2.45H2a1.125 1.125 0 0 1 0-2.25h1.875V20a1.125 1.125 0 0 1 2.25 0v.875h8.75V20a1.125 1.125 0 0 1 2.25 0v.87a3.866 3.866 0 0 0 2.976-1.545Zm-7.7-10.45.114.006a1.125 1.125 0 0 1 0 2.238l-.115.006H9a1.125 1.125 0 0 1 0-2.25h3.4Zm-1.401-3a1.125 1.125 0 0 1 0 2.25H9a1.125 1.125 0 0 1 0-2.25h2Z"/>
  <path fill="#888" d="M9.875 4A.875.875 0 0 0 9 3.125H5A.875.875 0 0 0 4.125 4v10c0 1.036.84 1.875 1.875 1.875h9.422c.802 0 1.453-.65 1.453-1.453 0-.977-.615-1.848-1.535-2.177l-4.718-1.686A1.125 1.125 0 0 1 9.875 9.5V4Zm2.25 4.706 3.972 1.42.334.134a4.562 4.562 0 0 1 2.694 4.162 3.703 3.703 0 0 1-3.703 3.703H6A4.125 4.125 0 0 1 1.875 14V4A3.125 3.125 0 0 1 5 .875h4A3.125 3.125 0 0 1 12.124 4v4.706Z"/>
</svg>
