<svg xmlns="http://www.w3.org/2000/svg" width="24" height="24" fill="none" viewBox="0 0 24 24">
  <path fill="#888" d="M16.873 12.354A2.876 2.876 0 0 0 15.125 15c0 .64.213 1.232.568 1.71a4.881 4.881 0 0 0 1.18-3.178v-1.178ZM6.434 15.527a3.78 3.78 0 0 0 .8 4.169l.07.072.287.259a3.788 3.788 0 0 0 3.878.54l-5.035-5.04Zm12.689-1.995a7.133 7.133 0 0 1-2.09 5.045l-2.784 2.781a6.038 6.038 0 0 1-8.31.214l-.226-.214-.07-.07a6.031 6.031 0 0 1-.27-8.243l.024-.029a6.13 6.13 0 0 1 .246-.26l.365-.364.195-.215c.369-.447.6-.986.657-1.543l.015-.28V5.5a1.125 1.125 0 0 1 2.25 0v4.854l-.007.258a5.148 5.148 0 0 1-1.292 3.125l5.427 5.434.848-.848A5.105 5.105 0 0 1 12.875 15a5.126 5.126 0 0 1 3.998-5V5.5a1.125 1.125 0 0 1 2.25 0v5.442l.002.059-.002.045v2.486Z"/>
  <path fill="#888" d="M8.125 4.375h9.75v-1.25h-9.75v1.25Zm12 .125A2.125 2.125 0 0 1 18 6.625H8A2.125 2.125 0 0 1 5.876 4.5V3c0-1.173.952-2.125 2.126-2.125H18c1.173 0 2.125.952 2.125 2.125v1.5Z"/>
</svg>
