<svg xmlns="http://www.w3.org/2000/svg" width="24" height="24" fill="none" viewBox="0 0 24 24">
  <path fill="#888" d="m15.875 3.59-.437 2.623a3.486 3.486 0 0 1-6.877 0L8.125 3.59v3.408c0 1.197-.302 2.17-.813 2.938a4.51 4.51 0 0 1-1.187 1.198V20c0 .483.391.874.875.875h10a.874.874 0 0 0 .875-.875v-8.865a4.485 4.485 0 0 1-1.186-1.198c-.511-.768-.814-1.74-.814-2.938V3.591ZM18.125 7c0 .803.198 1.33.436 1.688.244.365.576.623.942.806.381.19.622.58.622 1.007V20A3.124 3.124 0 0 1 17 23.125H7A3.125 3.125 0 0 1 3.875 20v-9.5c0-.426.241-.815.623-1.006a2.39 2.39 0 0 0 .941-.806c.239-.357.436-.886.436-1.689V2.666c0-.483.31-.913.769-1.066l2-.668.12-.032a1.126 1.126 0 0 1 1.345.915l.671 4.027.057.216a1.236 1.236 0 0 0 2.382-.216l.671-4.027.026-.12a1.127 1.127 0 0 1 1.44-.763l2 .668c.46.153.769.582.769 1.066V7Z"/>
</svg>
