<svg xmlns="http://www.w3.org/2000/svg" width="24" height="24" fill="none" viewBox="0 0 24 24">
  <path fill="#888" d="M3.21 8.875a7.127 7.127 0 0 1 6.95 5.545l.97 4.276a1.125 1.125 0 0 1-2.194.5l-.971-4.276a4.877 4.877 0 0 0-4.755-3.796H2.108a1.125 1.125 0 0 1 0-2.25H3.21Zm11.853 10.32a1.125 1.125 0 0 1-2.194-.499l2.194.5Zm6.828-10.32.116.005a1.125 1.125 0 0 1 0 2.239l-.116.005H20.79a4.875 4.875 0 0 0-4.754 3.796l-.973 4.276-1.097-.25-1.097-.25.973-4.276a7.126 7.126 0 0 1 6.948-5.545h1.101Zm-7.925-2 .116.006a1.125 1.125 0 0 1 0 2.238l-.116.006H10a1.125 1.125 0 0 1 0-2.25h3.966Z"/>
  <path fill="#888" d="M20.875 6.5a.375.375 0 0 0-.375-.375h-17a.375.375 0 0 0-.375.375v2.067c0 .838.126 1.672.372 2.473a10.313 10.313 0 0 0 5.89 6.486l.492.205c.229.095.474.143.721.143h2.8c.247 0 .493-.048.722-.143l.49-.205a10.315 10.315 0 0 0 5.892-6.486l.086-.302c.19-.708.285-1.438.285-2.171V6.5Zm2.25 2.067c0 .93-.121 1.854-.36 2.75l-.11.383a12.565 12.565 0 0 1-7.177 7.903l-.492.205a4.126 4.126 0 0 1-1.587.317H10.6c-.408 0-.813-.06-1.203-.18l-.383-.137-.493-.205A12.564 12.564 0 0 1 1.347 11.7a10.656 10.656 0 0 1-.472-3.133V6.5A2.625 2.625 0 0 1 3.5 3.875h17A2.625 2.625 0 0 1 23.125 6.5v2.067Z"/>
</svg>
