<svg xmlns="http://www.w3.org/2000/svg" width="24" height="24" fill="none" viewBox="0 0 24 24">
  <path fill="#888" d="M7.125 12.876h9.75v-1.751h-9.75v1.75Zm12 8.124a1.125 1.125 0 0 1-2.25 0v-5.874h-3.75V16a1.125 1.125 0 0 1-2.25 0v-.874h-3.75V21a1.125 1.125 0 0 1-2.25 0V11c0-1.173.952-2.125 2.125-2.125h10c1.173 0 2.125.952 2.125 2.126V21Z"/>
  <path fill="#888" d="M20.875 9.616c0-.63-.317-1.22-.843-1.566l-7-4.613a1.876 1.876 0 0 0-2.064 0l-7 4.613a1.876 1.876 0 0 0-.843 1.566V18c0 1.036.84 1.875 1.875 1.875h14c1.035 0 1.874-.84 1.875-1.875V9.616ZM23.125 18A4.125 4.125 0 0 1 19 22.125H5A4.125 4.125 0 0 1 .875 18V9.616c0-1.387.697-2.681 1.854-3.444L9.73 1.559a4.125 4.125 0 0 1 4.54 0l7 4.613a4.125 4.125 0 0 1 1.855 3.444V18Z"/>
</svg>
