<svg xmlns="http://www.w3.org/2000/svg" width="24" height="24" fill="none" viewBox="0 0 24 24">
  <path fill="#888" d="M18.377 9.5a6.375 6.375 0 0 0-12.75 0v3.631c0 .94-.321 1.848-.903 2.575l-.265.302-.224.23a.375.375 0 0 0 .268.637H19.5c.29 0 .456-.306.337-.541l-.067-.096-.226-.23a4.127 4.127 0 0 1-1.168-2.877V9.5Zm2.25 3.631c0 .489.19.958.53 1.309l.225.23c1.619 1.663.44 4.455-1.882 4.455H4.503c-2.321 0-3.5-2.792-1.882-4.456l.225-.23.12-.137c.265-.331.41-.744.41-1.17V9.5a8.625 8.625 0 0 1 17.25 0v3.631Z"/>
  <path fill="#888" d="m14 20.875.115.006a1.125 1.125 0 0 1 0 2.239l-.116.005h-3.998a1.125 1.125 0 0 1 0-2.25h3.998Zm1-11.5a1.125 1.125 0 0 1 0 2.25H9a1.125 1.125 0 0 1 0-2.25h6Z"/>
</svg>
