<svg width="24" height="24" viewBox="0 0 24 24" fill="none" xmlns="http://www.w3.org/2000/svg">
<path d="M15.125 11C15.7463 11 16.25 11.5037 16.25 12.125C16.25 12.7463 15.7463 13.25 15.125 13.25H8.125C7.50368 13.25 7 12.7463 7 12.125C7 11.5037 7.50368 11 8.125 11H15.125Z" fill="#888888"/>
<path d="M15.125 16.0005L15.2407 16.0063C15.8077 16.0643 16.25 16.5433 16.25 17.1255C16.2498 17.7075 15.8075 18.1867 15.2407 18.2446L15.125 18.2505H8.125C7.50384 18.2505 7.00026 17.7466 7 17.1255C7 16.5042 7.50368 16.0005 8.125 16.0005H15.125ZM15.125 6C15.7463 6 16.25 6.50368 16.25 7.125C16.25 7.74632 15.7463 8.25 15.125 8.25H8.125C7.50368 8.25 7 7.74632 7 7.125C7 6.50368 7.50368 6 8.125 6L15.125 6Z" fill="#888888"/>
</svg>
