<svg xmlns="http://www.w3.org/2000/svg" width="24" height="24" fill="none" viewBox="0 0 24 24">
  <path fill="#888" d="M20.875 12a8.875 8.875 0 1 0-17.75 0 8.875 8.875 0 0 0 17.75 0Zm2.25 0c0 6.144-4.98 11.124-11.124 11.125C5.856 23.125.875 18.145.875 12 .875 5.856 5.856.875 12.001.875c6.143 0 11.124 4.981 11.124 11.126Z"/>
  <path fill="#888" d="M16 11.629a.62.62 0 0 0-.124.37l.011.127c.019.09.06.172.113.244v-.741Zm1 .741a.618.618 0 0 0 .112-.244l.013-.127-.013-.126A.62.62 0 0 0 17 11.63v.741Zm-4.388-.496a.62.62 0 0 0-.111-.245v.741a.618.618 0 0 0 .11-.244l.014-.127-.013-.126Zm-1.112-.245a.62.62 0 0 0-.124.37l.011.127c.019.09.06.172.113.244v-.741Zm-3.388.245A.62.62 0 0 0 8 11.629v.741a.619.619 0 0 0 .112-.244l.013-.127-.013-.126ZM7 11.629a.62.62 0 0 0-.125.37l.012.127c.019.09.06.172.113.244v-.741Zm2.125.37a1.625 1.625 0 0 1-3.242.167L5.876 12l.009-.165a1.625 1.625 0 0 1 1.615-1.46l.167.009a1.623 1.623 0 0 1 1.458 1.615Zm4.5 0a1.625 1.625 0 0 1-3.242.167L10.376 12l.009-.165A1.625 1.625 0 0 1 12 10.376l.167.009c.82.083 1.46.774 1.46 1.615Zm4.5 0a1.625 1.625 0 0 1-3.242.167L14.876 12l.009-.165a1.625 1.625 0 0 1 1.616-1.459l.166.009c.82.083 1.46.774 1.46 1.615Z"/>
</svg>
