<svg xmlns="http://www.w3.org/2000/svg" width="24" height="24" fill="none" viewBox="0 0 24 24">
  <path fill="#888" d="m12.809 5.917.391.05c3.96.61 5.764 4.094 6.25 5.204l.077.202c.13.41.13.845 0 1.254l-.076.202a9.757 9.757 0 0 1-.138.297l-.054.101a1.125 1.125 0 0 1-1.974-1.075l.07-.15c-.476-1.054-1.837-3.4-4.507-3.814l-.268-.033-.114-.018a1.126 1.126 0 0 1 .229-2.226l.114.006ZM19.875 8V6c0-1.035-.84-1.875-1.875-1.875h-2a1.126 1.126 0 0 1 0-2.25h2A4.125 4.125 0 0 1 22.125 6v2a1.125 1.125 0 0 1-2.25 0Zm-18 10v-2a1.125 1.125 0 0 1 2.25 0v2c0 1.036.84 1.875 1.875 1.875h2l.116.006a1.125 1.125 0 0 1 0 2.239L8 22.125H6A4.125 4.125 0 0 1 1.875 18Zm6.292-8.242a7.895 7.895 0 0 0-1.523 2.241c.524 1.164 2.111 3.876 5.355 3.876.73 0 1.367-.138 1.926-.357l-.662-.663c-.386.172-.813.27-1.262.27a3.126 3.126 0 0 1-2.858-4.392l-.976-.975ZM1.875 8V6c0-.729.191-1.415.523-2.01L1.205 2.796l-.078-.085A1.125 1.125 0 0 1 2.71 1.127l.085.078 20 20 .078.086a1.124 1.124 0 0 1-1.582 1.582l-.087-.078L20.01 21.6a4.106 4.106 0 0 1-2.009.525h-2a1.126 1.126 0 0 1 0-2.25h2c.09 0 .177-.01.263-.021l-2.65-2.649a7.371 7.371 0 0 1-3.614.92c-4.198 0-6.349-3.13-7.175-4.723l-.275-.574a2.056 2.056 0 0 1 0-1.657l.157-.338a10.09 10.09 0 0 1 1.87-2.666l-2.431-2.43a1.903 1.903 0 0 0-.02.263v2a1.125 1.125 0 0 1-2.25 0Z"/>
</svg>
