<svg xmlns="http://www.w3.org/2000/svg" width="24" height="24" fill="none" viewBox="0 0 24 24">
  <path fill="#888" d="M14.205 8.205a1.125 1.125 0 1 1 1.59 1.59l-6 6a1.125 1.125 0 1 1-1.59-1.59l6-6Z"/>
  <path fill="#888" d="M5.51 10.531a1.125 1.125 0 0 1 1.591 1.59l-1.986 1.987a3.378 3.378 0 0 0 4.777 4.777l1.986-1.986a1.125 1.125 0 1 1 1.591 1.59l-1.986 1.987a5.628 5.628 0 0 1-7.959-7.959l1.987-1.986Zm7.216-7.206a5.628 5.628 0 0 1 7.949 7.949l-.2.21-1.986 1.985a1.125 1.125 0 0 1-1.59-1.59l1.986-1.987.231-.256a3.378 3.378 0 0 0-4.752-4.752l-.256.231-1.985 1.987a1.125 1.125 0 0 1-1.59-1.591l1.984-1.986.21-.2Z"/>
</svg>
