<svg xmlns="http://www.w3.org/2000/svg" width="24" height="24" fill="none" viewBox="0 0 24 24">
  <path fill="#888" d="M19.875 18V6c0-1.035-.84-1.875-1.875-1.875h-4a1.125 1.125 0 0 1 0-2.25h4A4.125 4.125 0 0 1 22.125 6v12A4.125 4.125 0 0 1 18 22.125h-4a1.125 1.125 0 0 1 0-2.25h4c1.036 0 1.875-.84 1.875-1.875Z"/>
  <path fill="#888" d="M7.204 17.795a1.126 1.126 0 0 0 1.506.078l.085-.078 5-5a1.126 1.126 0 0 0 0-1.59l-5-5a1.125 1.125 0 0 0-1.59 1.59l3.08 3.08H3a1.125 1.125 0 0 0 0 2.25h7.285l-3.08 3.08-.077.085a1.125 1.125 0 0 0 .076 1.505Z"/>
</svg>
