<svg xmlns="http://www.w3.org/2000/svg" width="24" height="24" fill="none" viewBox="0 0 24 24">
  <path fill="#888" d="M20.875 12a8.875 8.875 0 1 0-17.75 0 8.875 8.875 0 0 0 17.75 0Zm2.25 0c0 6.144-4.98 11.124-11.124 11.125C5.856 23.125.875 18.145.875 12 .875 5.856 5.856.875 12.001.875c6.143 0 11.124 4.981 11.124 11.126Z"/>
  <path fill="#888" d="m13 14.874.115.006a1.126 1.126 0 0 1 0 2.239l-.114.006H7.5a1.125 1.125 0 0 1 0-2.25H13Zm3.5-3.998.116.005a1.125 1.125 0 0 1 0 2.239l-.116.006h-9a1.125 1.125 0 0 1 0-2.25h9Zm0-4.001a1.125 1.125 0 0 1 0 2.25h-9a1.125 1.125 0 0 1 0-2.25h9Z"/>
</svg>
