<svg xmlns="http://www.w3.org/2000/svg" width="24" height="24" fill="none" viewBox="0 0 24 24">
  <path fill="#888" d="M1.875 18v-4a1.125 1.125 0 0 1 2.25 0v4c0 1.036.84 1.875 1.875 1.875h12c1.035 0 1.875-.84 1.875-1.875v-4a1.125 1.125 0 0 1 2.25 0v4A4.125 4.125 0 0 1 18 22.125H6A4.125 4.125 0 0 1 1.875 18Z"/>
  <path fill="#888" d="M10.874 13a1.125 1.125 0 0 0 2.25 0V5.715l3.081 3.08a1.125 1.125 0 0 0 1.59-1.59l-5-5a1.125 1.125 0 0 0-1.59 0l-5 5-.078.085A1.126 1.126 0 0 0 7.71 8.872l.085-.076 3.08-3.08V13Z"/>
</svg>
