<svg xmlns="http://www.w3.org/2000/svg" width="24" height="24" fill="none" viewBox="0 0 24 24">
  <path fill="#888" d="M6.548 15.862a1.125 1.125 0 1 1 1.59 1.59l-4.343 4.344a1.126 1.126 0 0 1-1.59-1.59l4.343-4.344ZM11.876 14v-1.875H10a1.125 1.125 0 0 1 0-2.25h1.875V8a1.125 1.125 0 0 1 2.25 0v1.875H16l.115.006a1.125 1.125 0 0 1 0 2.238l-.114.006h-1.876V14a1.125 1.125 0 0 1-2.25 0Z"/>
  <path fill="#888" d="M19.875 11a6.876 6.876 0 1 0-13.751.002A6.876 6.876 0 0 0 19.876 11Zm2.25 0a9.126 9.126 0 1 1-18.25 0 9.126 9.126 0 0 1 18.25 0Z"/>
</svg>
